{"glyphs":{":":{"x_min":0,"x_max":284,"ha":284,"o":"m 82 42 q 70 23 53 14 q 36 6 19 6 q 2 5 -12 12 q -25 18 -28 29 q -31 40 -25 56 q -19 71 -8 86 q 3 101 16 112 q 30 123 42 125 q 54 127 66 120 q 78 114 84 102 q 91 90 92 74 q 92 58 82 42 z m 122 366 q 135 385 153 393 q 171 401 188 400 q 205 400 218 393 q 230 386 233 375 q 236 363 230 348 q 223 333 211 318 q 199 304 184 294 q 170 283 158 282 q 146 280 134 288 q 123 295 116 307 q 110 319 110 334 q 111 350 122 366 z"},"$":{"x_min":0,"x_max":466,"ha":466,"o":"m 422 487 q 429 473 434 456 q 438 439 439 420 q 440 401 436 382 q 432 363 422 345 q 416 334 402 332 q 389 331 381 331 q 368 332 354 336 q 339 340 334 351 q 332 353 332 358 q 331 364 336 371 q 347 386 354 404 q 362 422 366 438 q 369 455 368 468 q 368 482 365 489 q 363 492 362 492 q 339 493 314 480 q 288 468 264 445 q 241 422 228 398 q 214 373 214 354 q 214 330 237 309 q 260 288 288 268 q 313 250 334 232 q 354 213 357 192 q 361 159 347 122 q 333 86 308 55 q 283 24 250 2 q 216 -20 181 -25 q 176 -26 170 -26 q 165 -26 160 -26 q 150 -26 141 -25 q 132 -24 123 -22 q 114 -40 110 -50 q 105 -61 103 -68 q 101 -75 100 -80 q 98 -86 95 -93 q 90 -105 82 -102 q 73 -100 64 -90 q 56 -81 50 -68 q 44 -56 44 -47 q 44 -44 44 -41 q 43 -38 43 -32 q 43 -27 46 -18 q 48 -10 54 5 q 13 28 -14 56 q -42 84 -47 98 q -52 112 -48 131 q -45 150 -37 168 q -29 186 -17 202 q -5 217 7 223 q 23 231 65 225 q 107 219 161 208 q 176 204 188 202 q 200 200 206 199 q 223 198 226 192 q 230 185 230 183 q 228 166 198 166 l 185 166 q 171 166 146 166 q 120 166 94 164 q 69 163 49 160 q 29 158 26 153 q 25 150 30 136 q 36 121 50 98 q 67 72 84 56 q 102 40 116 38 q 134 36 158 47 q 181 58 204 81 q 231 107 246 136 q 262 166 260 189 q 258 204 245 220 q 232 236 214 255 q 202 268 188 282 q 175 296 164 312 q 153 329 145 348 q 137 366 136 388 q 134 416 148 445 q 162 474 190 500 q 219 526 253 540 q 287 555 321 555 q 336 582 346 596 q 357 611 364 618 q 372 626 376 628 q 381 630 383 631 q 392 633 404 627 q 415 621 424 612 q 433 602 438 590 q 442 578 438 568 q 435 562 432 561 q 430 560 426 558 q 421 555 414 548 q 408 541 398 523 q 411 508 422 487 z"},"?":{"x_min":0,"x_max":433,"ha":433,"o":"m 93 42 q 81 23 64 14 q 46 6 29 6 q 12 5 -2 12 q -15 18 -18 29 q -21 40 -15 56 q -9 71 2 86 q 13 101 27 112 q 41 123 53 125 q 65 127 76 120 q 88 114 95 102 q 102 90 102 74 q 103 58 93 42 z m 391 666 q 421 658 445 639 q 469 620 485 598 q 501 576 508 555 q 515 534 511 521 q 504 500 481 476 q 458 452 427 427 q 396 402 360 378 q 324 353 292 330 q 259 307 233 288 q 207 269 195 255 q 186 244 178 229 q 169 214 164 205 q 158 194 147 195 q 136 196 124 203 q 113 210 105 220 q 97 231 97 239 q 97 251 110 266 q 123 281 142 298 q 160 314 181 330 q 202 345 219 357 q 266 391 308 428 q 349 466 378 500 q 407 534 421 560 q 435 586 428 597 q 416 616 384 606 q 352 597 313 570 q 274 543 232 504 q 191 465 160 425 q 154 418 145 425 q 136 432 128 445 q 121 458 117 472 q 113 487 118 495 q 138 530 174 564 q 209 598 248 623 q 288 648 326 660 q 365 673 391 666 z"},"<":{"x_min":0,"x_max":438,"ha":438,"o":"m 285 390 q 291 400 306 398 q 320 395 334 385 q 349 375 358 360 q 367 345 362 329 q 360 323 338 306 q 316 290 284 270 q 252 251 215 231 q 178 211 146 197 q 163 181 178 161 q 194 141 205 121 q 216 101 222 84 q 228 66 227 57 q 225 45 210 40 q 196 35 178 36 q 161 37 147 42 q 133 48 132 58 q 131 65 128 80 q 125 94 120 111 q 115 128 109 146 q 103 164 96 179 l 95 179 q 67 177 58 186 q 49 196 50 209 q 52 222 60 234 q 69 245 75 247 q 103 255 138 276 q 172 296 203 318 q 234 341 257 361 q 280 381 285 390 z"},"'":{"x_min":0,"x_max":2,"ha":2,"o":"m 60 470 q 48 462 37 458 q 26 453 19 454 q 12 454 10 460 q 9 466 16 478 q 23 490 34 510 q 45 529 55 550 q 65 571 71 590 q 77 608 75 617 q 72 632 85 642 q 98 651 117 654 q 136 657 156 652 q 175 647 183 632 q 189 621 178 600 q 167 578 148 554 q 128 530 104 506 q 80 483 60 470 z"},"=":{"x_min":0,"x_max":570,"ha":570,"o":"m 423 215 q 431 213 433 204 q 435 196 430 185 q 426 174 416 162 q 405 149 387 140 q 382 138 362 140 q 343 141 314 145 q 286 149 251 154 q 216 158 182 162 q 147 167 116 170 q 85 173 63 173 q 51 173 50 182 q 49 190 54 202 q 60 213 69 224 q 78 235 86 238 q 95 242 122 242 q 150 242 186 240 q 221 238 260 234 q 300 230 334 226 q 369 222 394 219 q 418 216 423 215 z m 499 357 q 506 356 508 348 q 510 339 506 328 q 501 316 490 304 q 480 292 462 283 q 457 281 438 282 q 418 284 390 288 q 361 291 326 296 q 291 301 256 305 q 222 309 191 312 q 160 315 138 315 q 126 315 125 324 q 124 333 130 344 q 135 356 144 366 q 153 377 161 380 q 170 384 198 384 q 225 384 261 382 q 297 380 336 376 q 376 372 410 368 q 445 364 470 361 q 494 358 499 357 z"},"a":{"x_min":0,"x_max":436,"ha":436,"o":"m 368 286 q 361 280 346 267 q 331 254 314 237 q 296 220 278 200 q 260 181 246 163 q 232 145 224 130 q 217 115 220 107 q 226 91 250 100 q 275 110 307 134 q 339 158 374 190 q 409 222 436 251 q 442 258 450 261 q 457 264 462 264 q 467 264 468 260 q 470 257 466 251 q 453 233 433 206 q 413 180 390 150 q 366 121 341 92 q 316 62 293 38 q 270 15 250 0 q 230 -14 216 -14 q 202 -14 192 -2 q 182 11 177 32 q 172 53 173 81 q 174 109 182 140 q 150 108 126 76 q 101 44 79 18 q 57 -7 36 -22 q 15 -38 -8 -38 q -27 -38 -40 -15 q -52 8 -59 40 q -66 73 -66 107 q -67 141 -61 164 q -57 179 -39 204 q -21 229 5 257 q 31 285 62 314 q 92 343 122 367 q 151 391 176 408 q 201 424 215 427 q 225 429 239 427 q 253 425 267 418 q 281 410 294 398 q 306 385 313 367 q 322 372 336 363 q 349 354 360 340 q 370 325 374 310 q 378 294 368 286 z m -24 94 q -20 79 -4 80 q 11 80 34 92 q 57 104 86 126 q 115 147 147 175 q 201 222 238 268 q 276 313 296 342 q 263 342 226 327 q 189 312 152 288 q 116 263 82 234 q 49 205 24 178 q 0 150 -14 127 q -27 104 -24 94 z"},"L":{"x_min":0,"x_max":694,"ha":694,"o":"m 66 22 q 112 36 160 45 q 151 48 143 52 q 135 56 129 60 q 123 65 120 70 q 118 74 122 78 q 172 129 224 195 q 277 261 326 330 q 375 400 418 469 q 461 538 493 596 q 471 576 456 568 q 442 559 434 558 q 427 557 427 562 q 427 566 435 572 q 444 579 458 594 q 472 608 488 627 q 504 646 520 668 q 537 690 549 711 q 553 721 567 720 q 581 718 596 708 q 612 698 624 682 q 635 666 633 647 q 631 625 605 578 q 579 531 540 472 q 500 412 452 347 q 403 282 356 223 q 310 164 270 118 q 229 73 206 53 q 267 63 329 68 q 391 74 445 74 q 499 73 542 67 q 584 61 606 48 q 616 42 616 22 q 617 2 610 -18 q 604 -39 593 -52 q 582 -65 570 -58 q 550 -46 512 -38 q 474 -30 426 -26 q 378 -23 323 -24 q 268 -24 214 -28 q 160 -33 112 -42 q 64 -50 28 -61 q 13 -66 10 -56 q 8 -45 14 -30 q 21 -15 34 0 q 48 16 66 22 z"},"3":{"x_min":0,"x_max":1372,"ha":1372,"o":"m 408 206 l 450 206 q 454 154 458 104 q 462 54 464 2 q 466 40 469 79 q 472 118 476 156 l 482 206 l 522 206 q 526 164 530 123 q 534 82 538 40 l 540 2 q 544 44 545 83 q 546 122 550 162 q 552 172 553 183 q 554 194 554 206 l 584 206 l 564 -38 l 518 -38 q 514 10 509 58 q 504 106 502 156 q 500 120 497 83 q 494 46 490 10 l 486 -38 l 440 -38 l 428 98 l 416 -38 l 372 -38 q 366 10 361 58 q 356 106 354 156 q 352 120 350 83 q 348 46 344 10 l 338 -38 l 292 -38 l 280 102 l 270 -38 l 224 -38 q 218 10 214 58 q 210 104 208 150 q 206 116 203 82 q 200 46 196 10 l 190 -38 l 146 -38 l 124 206 l 154 206 q 160 154 163 104 q 166 54 168 2 q 172 40 174 79 q 176 118 182 156 l 188 206 l 226 206 q 232 164 236 123 q 240 82 242 40 l 246 2 q 248 44 250 83 q 252 122 256 162 l 260 206 l 302 206 q 306 154 310 104 q 314 54 316 2 q 320 40 322 79 q 324 118 328 156 q 330 168 331 180 q 332 192 334 206 l 374 206 q 380 164 383 123 q 386 82 390 40 l 392 2 q 396 44 398 83 q 400 122 404 162 z m 1254 734 l 124 734 l 124 756 l 1254 756 z m 1254 -194 l 124 -194 l 124 -172 l 1254 -172 z m 790 -38 l 754 -38 l 754 206 l 813 206 q 824 206 834 202 q 850 194 855 174 q 860 154 860 138 l 860 119 q 860 108 858 97 q 856 86 851 77 q 846 68 836 64 l 866 -38 l 828 -38 l 806 58 l 790 58 z m 1032 16 l 1032 -38 l 1000 -38 l 1000 206 l 1032 206 q 1044 162 1056 120 q 1068 78 1078 34 q 1074 78 1074 120 l 1074 206 l 1106 206 l 1106 -38 l 1072 -38 q 1060 4 1048 45 q 1036 86 1026 128 q 1028 100 1029 72 q 1030 44 1032 16 z m 656 -38 l 622 -38 l 652 206 l 708 206 l 738 -38 l 704 -38 l 696 20 l 664 20 z m 1202 114 q 1204 126 1203 138 q 1202 150 1198 162 q 1194 170 1187 175 q 1180 180 1172 170 q 1166 162 1165 149 q 1164 136 1164 126 q 1162 114 1162 102 l 1162 56 q 1162 44 1164 34 q 1164 24 1166 11 q 1168 -2 1178 -6 q 1188 -12 1194 -5 q 1200 2 1202 15 q 1204 28 1204 40 l 1204 58 l 1180 58 l 1180 86 l 1238 86 l 1238 -38 l 1212 -38 l 1210 -4 q 1208 -16 1203 -27 q 1198 -38 1186 -40 q 1176 -44 1165 -39 q 1154 -34 1146 -26 q 1132 -8 1130 17 q 1128 42 1128 62 q 1126 88 1127 114 q 1128 140 1136 164 q 1138 176 1143 186 q 1148 196 1158 200 q 1168 206 1180 207 q 1192 208 1202 204 q 1214 200 1221 190 q 1228 180 1231 167 q 1234 154 1235 141 q 1236 128 1236 118 z m 274 330 q 278 338 285 344 q 292 350 302 352 q 310 354 318 350 q 326 346 334 350 l 316 316 q 314 312 311 305 q 308 298 312 296 q 316 292 322 298 q 328 304 334 312 q 336 316 339 321 q 342 326 344 332 l 352 350 q 360 350 368 354 l 348 316 l 343 306 q 340 300 344 296 q 348 292 354 298 q 360 304 364 310 q 368 320 374 330 q 380 340 384 348 q 388 358 392 367 q 396 376 402 384 q 410 382 416 388 l 388 332 q 386 328 384 323 q 382 318 380 312 q 378 308 376 300 q 374 292 382 296 q 386 298 391 303 q 396 308 400 314 q 402 322 408 330 q 412 338 419 344 q 426 350 436 352 q 444 354 452 350 q 460 346 470 350 q 464 342 460 333 q 456 324 452 316 q 450 312 447 305 q 444 298 446 296 q 450 294 453 296 q 456 298 460 301 q 464 304 467 309 q 470 314 472 316 l 472 318 l 504 384 q 512 384 518 388 q 512 376 507 364 q 502 352 494 342 q 502 348 511 353 q 520 358 528 346 q 534 336 528 323 q 522 310 516 302 q 522 302 527 305 q 532 308 536 312 l 545 330 q 550 340 556 348 l 574 384 q 580 382 586 388 l 574 360 q 568 346 560 332 q 558 328 555 323 q 552 318 550 312 q 548 310 547 307 q 546 304 546 301 q 546 298 547 296 q 548 294 554 296 q 558 298 564 304 q 570 310 572 316 q 576 330 584 338 q 588 342 594 346 q 600 350 608 352 q 616 354 622 353 q 628 352 630 342 q 630 334 626 327 q 622 320 614 316 q 606 312 597 309 q 588 306 582 306 q 582 300 586 297 q 590 294 596 294 q 608 294 619 301 q 630 308 636 318 l 640 316 q 632 302 617 294 q 602 286 586 288 q 570 292 570 306 q 566 302 562 297 q 558 292 554 290 q 546 286 539 289 q 532 292 534 302 l 534 304 q 532 302 530 302 q 526 298 518 298 l 510 298 q 508 298 507 296 q 506 294 504 294 q 494 288 483 289 q 472 290 466 300 q 458 292 448 288 q 440 286 436 291 q 432 296 436 304 q 430 298 422 291 q 414 284 404 290 q 398 294 398 304 q 392 296 384 290 q 376 286 369 289 q 362 292 362 300 q 356 292 352 290 q 344 286 336 289 q 328 292 330 300 q 326 296 322 293 q 318 290 314 288 q 304 286 301 291 q 298 296 302 304 l 300 304 q 296 298 287 291 q 278 284 270 290 q 264 292 263 297 q 262 302 264 306 q 258 302 254 300 q 250 298 240 298 q 236 298 235 297 q 234 296 230 294 q 226 292 219 290 q 212 288 207 289 q 202 290 199 294 q 196 298 198 306 q 200 318 206 329 q 212 340 218 350 q 222 350 230 354 q 228 346 225 339 q 222 332 218 324 q 216 322 213 317 q 210 312 208 307 q 206 302 206 298 q 206 294 210 294 q 220 292 228 302 q 236 312 238 316 q 244 324 247 334 q 250 344 250 352 q 258 354 259 347 q 260 340 258 334 q 254 318 240 304 q 248 302 255 307 q 262 312 266 318 z m 438 448 q 428 448 421 453 q 414 458 411 466 q 408 474 407 484 q 406 494 404 502 l 404 541 q 404 562 410 580 q 412 588 417 595 q 422 602 432 602 q 454 608 464 590 q 472 572 472 552 l 472 514 q 472 504 471 493 q 470 482 467 472 q 464 462 457 455 q 450 448 438 448 z m 992 448 q 982 448 975 453 q 968 458 965 466 q 962 474 961 484 q 960 494 960 502 q 958 520 958 541 q 958 562 964 580 q 966 588 972 595 q 978 602 986 602 q 1006 608 1018 590 q 1026 572 1026 552 l 1026 493 q 1026 482 1022 472 q 1018 462 1011 455 q 1004 448 992 448 z m 916 -38 l 882 -38 l 882 206 l 916 206 z m 274 450 l 254 450 l 254 602 l 291 602 q 298 602 304 600 q 314 594 317 583 q 320 572 320 562 q 320 552 318 535 q 316 518 304 514 l 322 450 l 298 450 l 286 510 q 282 510 280 511 q 278 512 274 512 z m 1056 484 l 1056 450 l 1036 450 l 1036 602 l 1054 602 q 1062 576 1070 549 q 1078 522 1084 496 q 1082 522 1082 549 l 1082 602 l 1102 602 l 1102 450 l 1080 450 q 1072 476 1065 502 q 1058 528 1052 554 q 1054 536 1054 519 q 1054 502 1056 484 z m 138 450 l 116 450 l 116 602 l 150 602 q 176 602 182 576 q 186 562 185 544 q 184 526 176 512 q 170 502 159 501 q 148 500 138 500 z m 502 484 l 502 450 l 482 450 l 482 602 l 500 602 q 508 576 516 549 q 524 522 530 496 q 528 522 527 549 q 526 576 526 602 l 546 602 l 546 450 l 526 450 q 518 476 511 502 q 504 528 498 554 q 500 536 500 519 q 500 502 502 484 z m 574 450 l 552 450 l 570 602 l 606 602 l 624 450 l 604 450 l 598 486 l 578 486 z m 750 448 q 736 448 728 457 q 720 466 718 478 q 716 490 716 504 l 716 602 l 738 602 l 738 485 q 738 480 740 476 q 742 470 747 468 q 752 466 756 470 q 762 476 762 484 l 762 498 q 764 510 763 522 q 762 534 762 546 l 762 602 l 784 602 l 784 530 q 784 518 785 504 q 786 490 783 478 q 780 466 773 457 q 766 448 750 448 z m 1140 350 q 1144 350 1152 354 q 1150 348 1147 343 q 1144 338 1140 334 l 1140 332 q 1146 340 1155 346 q 1164 352 1172 354 q 1184 354 1184 345 q 1184 336 1180 328 q 1178 324 1171 313 q 1164 302 1166 298 q 1168 294 1172 295 q 1176 296 1179 300 q 1182 304 1186 308 q 1190 312 1192 316 l 1210 354 l 1202 354 l 1206 360 l 1214 360 l 1222 376 q 1230 376 1236 380 l 1226 360 l 1240 360 l 1236 354 l 1222 354 l 1204 316 l 1199 306 q 1196 300 1198 296 q 1202 294 1206 296 q 1210 298 1214 303 q 1218 308 1221 312 q 1224 316 1226 318 l 1230 316 q 1224 308 1217 299 q 1210 290 1200 288 q 1190 286 1187 290 q 1184 294 1186 300 l 1181 295 q 1178 292 1174 290 q 1168 286 1160 288 q 1152 290 1154 300 q 1154 308 1160 316 q 1166 324 1168 330 q 1170 334 1172 340 q 1174 346 1168 346 q 1156 344 1147 332 q 1138 320 1134 312 q 1130 306 1127 300 q 1124 294 1122 288 l 1110 288 l 1115 301 q 1111 300 1106 298 l 1096 298 q 1092 292 1086 290 q 1080 288 1078 288 q 1068 284 1060 292 q 1052 298 1053 309 q 1054 320 1058 330 q 1064 338 1073 346 q 1082 354 1094 354 q 1104 354 1108 348 q 1112 342 1112 334 q 1112 326 1109 317 q 1106 308 1102 302 q 1114 302 1122 314 z m 354 520 q 330 536 328 560 q 326 570 330 582 q 334 594 344 600 q 354 604 366 603 q 378 602 386 594 q 396 586 396 575 l 396 554 l 374 554 l 374 567 q 374 574 370 578 q 360 586 355 579 q 350 572 348 564 q 348 554 356 547 q 364 540 372 534 q 380 528 386 520 q 392 512 394 504 q 396 492 394 482 q 392 472 387 464 q 382 456 373 451 q 364 446 352 448 q 332 452 330 468 q 328 484 328 500 l 348 500 l 348 480 q 350 474 356 470 q 362 466 368 470 q 372 474 373 483 q 374 492 372 498 q 370 506 365 511 q 360 516 354 520 z m 820 520 q 798 534 794 560 q 792 570 796 582 q 800 594 810 600 q 820 604 832 603 q 844 602 852 594 q 862 586 861 575 q 860 564 860 554 l 840 554 q 840 560 841 567 q 842 574 836 578 q 828 586 822 579 q 816 572 816 564 q 816 554 823 547 q 830 540 838 534 q 854 522 860 504 q 862 492 861 482 q 860 472 854 464 q 848 456 839 451 q 830 446 818 448 q 798 452 796 468 q 794 484 794 500 l 816 500 q 816 494 815 489 q 814 484 816 480 q 818 474 823 470 q 828 466 834 470 q 840 474 841 483 q 842 492 840 498 q 838 506 833 511 q 828 516 820 520 z m 248 450 l 192 450 l 192 602 l 248 602 l 248 582 l 214 582 l 214 538 l 242 538 l 242 516 l 214 516 l 214 470 l 248 470 z m 924 450 l 870 450 l 870 602 l 924 602 l 924 582 l 892 582 l 892 538 l 920 538 l 920 516 l 892 516 l 892 470 l 924 470 z m 178 322 l 136 320 q 130 312 126 303 q 122 294 122 284 q 114 282 112 286 q 110 290 112 297 q 114 304 117 311 q 120 318 122 320 l 108 318 l 102 326 l 126 326 q 136 344 151 361 q 166 378 186 388 q 192 392 202 393 q 212 394 214 382 q 216 378 214 372 q 212 366 210 362 q 204 352 200 342 q 196 332 190 324 q 188 316 182 306 q 176 296 178 288 q 170 286 168 290 q 166 294 168 300 q 170 306 173 312 z m 1212 602 l 1234 602 q 1228 580 1223 559 q 1218 538 1214 516 q 1208 500 1210 483 q 1212 466 1212 450 l 1188 450 q 1188 466 1189 483 q 1190 500 1186 516 q 1180 538 1175 559 q 1170 580 1166 602 l 1186 602 q 1190 582 1194 563 q 1198 544 1200 524 q 1200 544 1204 563 q 1208 582 1212 602 z m 850 290 q 842 294 844 301 q 846 308 848 314 l 866 350 q 872 350 880 354 l 866 326 q 864 322 858 312 q 852 302 856 298 q 862 292 871 300 q 880 308 882 312 q 886 316 888 319 q 890 322 892 328 l 904 352 q 908 352 916 354 q 912 344 908 335 q 904 326 898 316 l 893 306 q 890 300 894 296 q 898 292 904 298 q 910 304 914 310 q 918 320 924 330 q 930 340 934 348 q 938 358 942 367 q 946 376 952 384 q 958 382 966 388 l 928 312 q 926 308 925 300 q 924 292 932 296 q 940 300 946 310 q 950 320 956 330 q 962 340 966 348 q 970 358 974 367 q 978 376 984 384 q 990 382 998 388 l 960 312 q 960 310 959 307 l 957 301 q 956 298 957 296 q 958 294 964 296 q 970 298 975 305 q 980 312 984 318 l 988 316 q 982 308 977 301 q 972 294 964 290 q 958 286 951 289 q 944 292 944 300 q 938 294 932 290 q 926 286 919 289 q 912 292 912 300 q 908 296 903 292 q 898 288 892 288 q 884 288 883 294 q 882 299 883 305 q 877 297 868 291 q 858 284 850 290 z m 1164 450 l 1110 450 l 1110 602 l 1132 602 l 1132 468 l 1164 468 z m 684 450 l 630 450 l 630 602 l 652 602 l 652 468 l 684 468 z m 790 84 q 796 84 802 83 q 808 82 814 86 q 822 94 824 106 q 826 118 826 128 q 826 140 824 153 q 822 166 814 174 q 810 178 803 178 l 790 178 z m 724 350 q 730 350 738 354 q 736 348 733 343 q 730 338 726 334 l 726 332 q 732 340 741 346 q 750 352 758 354 q 770 354 770 345 q 770 336 766 328 q 764 324 756 313 q 748 302 752 298 q 754 294 758 296 q 762 298 766 303 q 770 308 774 312 q 778 316 778 318 l 782 316 q 778 310 773 303 q 768 296 760 290 q 752 286 745 288 q 738 290 740 300 q 740 308 746 316 q 752 324 754 330 q 756 332 757 335 q 758 338 758 340 q 758 342 757 344 q 756 346 752 346 q 742 344 733 332 q 724 320 720 312 l 708 288 l 696 288 l 700 296 q 698 294 696 293 q 694 292 692 290 q 684 286 677 289 q 670 292 672 302 q 672 310 676 317 q 680 324 684 332 q 690 340 692 350 q 702 350 708 354 l 688 316 l 683 306 q 680 300 684 296 q 686 294 690 296 q 694 298 698 303 q 702 308 705 312 q 708 316 710 318 z m 992 584 q 986 584 983 577 q 980 570 979 560 q 978 550 979 540 q 980 530 980 526 q 980 522 979 512 q 978 502 979 492 q 980 482 983 475 q 986 468 992 468 q 998 468 1001 475 q 1004 482 1005 492 q 1006 502 1006 512 l 1006 540 q 1006 550 1005 560 q 1004 570 1001 577 q 998 584 992 584 z m 438 584 q 432 584 429 577 q 426 570 425 560 q 424 550 425 540 q 426 530 426 526 q 426 522 425 512 q 424 502 425 492 q 426 482 429 475 q 432 468 438 468 q 444 468 447 475 q 450 482 451 492 q 452 502 451 512 q 450 522 450 526 q 450 530 451 540 q 452 550 451 560 q 450 570 447 577 q 444 584 438 584 z m 1240 602 l 1262 602 q 1262 574 1261 546 q 1260 518 1258 488 l 1244 488 q 1242 518 1241 545 q 1240 572 1240 602 z m 202 386 q 194 388 183 379 q 172 370 168 366 q 152 348 138 326 l 180 326 l 194 354 q 194 356 197 361 q 200 366 202 372 q 204 378 205 382 q 206 386 202 386 z m 1088 374 q 1084 370 1082 374 q 1080 378 1082 382 q 1070 386 1065 376 q 1060 366 1058 360 l 1072 360 l 1068 354 l 1054 354 l 1010 264 q 1006 264 996 262 l 1042 354 l 1028 354 l 1030 360 l 1046 360 q 1048 368 1053 376 q 1058 384 1068 386 q 1074 388 1084 384 q 1086 384 1089 380 q 1092 376 1088 374 z m 884 374 q 880 370 878 374 q 876 378 876 382 q 866 386 860 376 q 854 366 852 360 l 866 360 l 864 354 l 850 354 l 806 264 q 800 264 792 262 l 838 354 l 822 354 l 826 360 l 840 360 q 844 368 849 376 q 854 384 864 386 q 870 388 878 384 q 880 384 884 380 q 888 376 884 374 z m 672 94 q 670 84 669 74 q 668 64 666 54 l 694 54 q 692 82 687 112 q 682 141 680 171 q 678 151 676 133 q 674 114 672 94 z m 138 518 q 142 518 147 517 q 152 516 154 520 q 160 526 160 535 l 160 567 q 160 576 154 580 q 152 586 147 585 q 142 584 138 584 z m 1094 348 q 1086 348 1079 339 q 1072 330 1068 320 q 1064 310 1064 301 q 1064 292 1072 292 q 1078 292 1085 301 q 1092 310 1097 321 q 1102 332 1102 340 q 1102 348 1094 348 z m 512 346 q 504 346 499 341 q 494 336 489 328 q 484 320 481 312 q 478 304 474 298 q 486 290 496 298 q 506 306 510 314 q 512 316 515 321 q 518 326 519 332 q 520 338 519 342 q 518 346 512 346 z m 978 -18 q 978 -28 972 -33 q 966 -38 958 -38 q 950 -38 944 -33 q 938 -28 938 -18 q 938 -8 944 -3 q 950 2 958 2 q 966 2 972 -3 q 978 -8 978 -18 z m 612 -18 q 612 -28 606 -33 q 600 -38 592 -38 q 584 -38 578 -33 q 572 -28 572 -18 q 572 -8 578 -3 q 584 2 592 2 q 600 2 606 -3 q 612 -8 612 -18 z m 274 526 l 282 526 q 286 526 290 528 q 296 532 297 540 q 298 548 298 556 q 298 562 297 570 q 296 578 290 582 q 286 584 283 584 l 274 584 z m 280 294 q 288 294 294 300 q 300 306 304 314 q 308 322 312 331 q 316 340 318 346 q 308 350 298 342 q 288 334 284 326 q 282 324 279 319 q 276 314 275 309 q 274 304 274 299 q 274 294 280 294 z m 416 294 q 422 294 428 300 q 434 306 439 314 q 444 322 447 331 q 450 340 454 346 q 442 350 433 342 q 424 334 418 326 q 418 324 415 319 q 412 314 410 309 q 408 304 409 299 q 410 294 416 294 z m 588 324 q 586 320 585 317 q 584 314 582 310 q 594 310 607 320 q 620 330 620 342 q 620 350 615 349 q 610 348 604 344 q 600 340 596 335 q 592 330 588 324 z m 582 532 l 580 508 l 596 508 l 588 580 q 588 568 586 556 z m 1262 462 q 1262 456 1258 453 q 1254 450 1250 450 q 1246 450 1242 453 q 1238 456 1238 462 q 1238 468 1242 472 q 1246 476 1250 476 q 1254 476 1258 472 q 1262 468 1262 462 z m 1244 294 q 1240 286 1232 289 q 1224 292 1228 300 q 1232 308 1240 304 q 1248 300 1244 294 z m 376 370 q 374 364 366 366 q 358 368 360 376 q 362 380 365 381 q 368 382 372 381 q 376 380 378 377 q 380 374 376 370 z m 716 370 q 712 364 705 366 q 698 368 700 376 q 700 380 704 381 q 708 382 712 381 q 716 380 717 377 q 718 374 716 370 z m 1264 340 q 1262 336 1259 335 q 1256 334 1253 335 q 1250 336 1249 339 q 1248 342 1250 346 q 1254 352 1261 349 q 1268 346 1264 340 z"},";":{"x_min":0,"x_max":284,"ha":284,"o":"m 122 366 q 135 385 153 393 q 171 401 188 400 q 205 400 218 393 q 230 386 233 375 q 236 363 230 348 q 223 333 211 318 q 199 304 184 294 q 170 283 158 282 q 146 280 134 288 q 123 295 116 307 q 110 319 110 334 q 111 350 122 366 z m 84 42 q 76 29 61 14 q 46 -1 28 -14 q 11 -28 -8 -39 q -26 -50 -42 -56 q -49 -58 -57 -58 q -65 -57 -71 -54 q -77 -51 -80 -46 q -84 -40 -81 -33 q -80 -29 -74 -27 q -67 -25 -58 -20 q -49 -16 -40 -8 q -30 1 -22 18 q -18 27 -22 38 q -26 48 -22 61 q -19 72 -12 83 q -4 94 6 103 q 15 112 25 118 q 35 123 44 125 q 56 127 68 120 q 80 114 86 102 q 93 90 94 74 q 94 58 84 42 z"},"J":{"x_min":0,"x_max":700,"ha":700,"o":"m 588 712 q 654 695 701 662 q 748 629 759 585 q 762 574 752 544 q 743 513 724 470 q 704 427 676 376 q 647 325 612 273 q 578 221 538 172 q 497 122 454 83 q 410 44 364 19 q 318 -6 272 -10 q 220 -14 176 -12 q 133 -11 100 -5 q 66 1 44 11 q 23 21 16 34 q 8 48 12 77 q 15 106 26 138 q 38 170 57 200 q 76 229 100 244 q 113 252 138 258 q 162 263 192 266 q 222 270 254 272 q 286 273 316 272 q 346 272 370 270 q 393 268 406 264 q 442 253 440 244 q 439 235 419 235 q 368 234 310 223 q 251 212 202 196 q 152 180 118 162 q 83 145 80 130 q 76 113 91 96 q 106 78 130 63 q 153 48 180 38 q 207 29 226 30 q 259 31 296 56 q 334 81 372 122 q 411 162 449 214 q 487 265 521 320 q 555 374 584 427 q 613 480 632 524 q 652 567 661 596 q 670 626 665 633 q 648 657 608 658 q 567 660 514 642 q 462 623 404 585 q 346 547 294 490 q 288 483 274 490 q 261 498 249 512 q 237 526 230 544 q 223 561 229 574 q 245 606 289 635 q 333 664 388 684 q 442 705 496 713 q 551 721 588 712 z"},"V":{"x_min":0,"x_max":640,"ha":640,"o":"m 1001 614 q 942 594 876 558 q 809 522 740 476 q 672 431 604 380 q 535 328 472 276 q 408 224 352 176 q 297 127 254 88 q 210 48 182 21 q 153 -6 145 -14 q 138 -21 112 -16 q 87 -12 62 -1 q 36 10 20 24 q 3 39 14 53 q 28 71 60 114 q 91 158 130 214 q 169 271 210 332 q 251 394 284 448 q 317 503 336 542 q 356 582 352 594 q 348 605 326 597 q 305 589 276 568 q 246 547 212 516 q 179 486 152 452 q 140 438 130 431 q 119 424 112 422 q 104 421 101 426 q 98 430 102 439 q 110 459 127 487 q 144 515 166 545 q 188 575 212 604 q 237 634 260 657 q 284 680 306 694 q 327 709 342 709 q 358 709 374 689 q 391 669 404 640 q 418 612 427 580 q 436 549 436 527 q 436 506 418 470 q 400 435 368 389 q 336 343 293 291 q 250 239 199 185 q 193 179 177 162 q 161 144 144 125 q 127 106 112 88 q 96 71 90 65 q 92 62 96 60 q 100 58 106 61 q 109 63 124 76 q 139 89 160 108 q 181 126 206 149 q 231 172 255 194 q 383 313 480 397 q 578 481 650 538 q 721 595 770 628 q 820 661 852 678 q 885 694 904 698 q 923 701 935 698 q 953 694 969 682 q 985 669 995 655 q 1005 641 1008 629 q 1010 617 1001 614 z"},"\"":{"x_min":0,"x_max":316,"ha":316,"o":"m 281 449 q 269 441 258 436 q 247 432 240 432 q 233 433 232 439 q 230 445 237 457 q 244 469 255 488 q 266 508 276 529 q 286 550 292 568 q 298 587 296 596 q 293 611 306 620 q 319 630 338 633 q 357 636 376 631 q 396 626 404 611 q 410 600 399 578 q 388 557 368 533 q 349 509 325 486 q 301 462 281 449 z m 160 450 q 148 442 137 438 q 126 433 119 434 q 112 434 110 440 q 109 446 116 458 q 123 470 134 490 q 145 509 155 530 q 165 551 171 570 q 177 588 175 597 q 172 612 185 622 q 198 631 217 634 q 236 637 256 632 q 275 627 283 612 q 289 601 278 580 q 267 558 248 534 q 228 510 204 486 q 180 463 160 450 z"},"7":{"x_min":0,"x_max":1372,"ha":1372,"o":"m 408 206 l 450 206 q 454 154 458 104 q 462 54 464 2 q 466 40 469 79 q 472 118 476 156 l 482 206 l 522 206 q 526 164 530 123 q 534 82 538 40 l 540 2 q 544 44 545 83 q 546 122 550 162 q 552 172 553 183 q 554 194 554 206 l 584 206 l 564 -38 l 518 -38 q 514 10 509 58 q 504 106 502 156 q 500 120 497 83 q 494 46 490 10 l 486 -38 l 440 -38 l 428 98 l 416 -38 l 372 -38 q 366 10 361 58 q 356 106 354 156 q 352 120 350 83 q 348 46 344 10 l 338 -38 l 292 -38 l 280 102 l 270 -38 l 224 -38 q 218 10 214 58 q 210 104 208 150 q 206 116 203 82 q 200 46 196 10 l 190 -38 l 146 -38 l 124 206 l 154 206 q 160 154 163 104 q 166 54 168 2 q 172 40 174 79 q 176 118 182 156 l 188 206 l 226 206 q 232 164 236 123 q 240 82 242 40 l 246 2 q 248 44 250 83 q 252 122 256 162 l 260 206 l 302 206 q 306 154 310 104 q 314 54 316 2 q 320 40 322 79 q 324 118 328 156 q 330 168 331 180 q 332 192 334 206 l 374 206 q 380 164 383 123 q 386 82 390 40 l 392 2 q 396 44 398 83 q 400 122 404 162 z m 1254 734 l 124 734 l 124 756 l 1254 756 z m 1254 -194 l 124 -194 l 124 -172 l 1254 -172 z m 790 -38 l 754 -38 l 754 206 l 813 206 q 824 206 834 202 q 850 194 855 174 q 860 154 860 138 l 860 119 q 860 108 858 97 q 856 86 851 77 q 846 68 836 64 l 866 -38 l 828 -38 l 806 58 l 790 58 z m 1032 16 l 1032 -38 l 1000 -38 l 1000 206 l 1032 206 q 1044 162 1056 120 q 1068 78 1078 34 q 1074 78 1074 120 l 1074 206 l 1106 206 l 1106 -38 l 1072 -38 q 1060 4 1048 45 q 1036 86 1026 128 q 1028 100 1029 72 q 1030 44 1032 16 z m 656 -38 l 622 -38 l 652 206 l 708 206 l 738 -38 l 704 -38 l 696 20 l 664 20 z m 1202 114 q 1204 126 1203 138 q 1202 150 1198 162 q 1194 170 1187 175 q 1180 180 1172 170 q 1166 162 1165 149 q 1164 136 1164 126 q 1162 114 1162 102 l 1162 56 q 1162 44 1164 34 q 1164 24 1166 11 q 1168 -2 1178 -6 q 1188 -12 1194 -5 q 1200 2 1202 15 q 1204 28 1204 40 l 1204 58 l 1180 58 l 1180 86 l 1238 86 l 1238 -38 l 1212 -38 l 1210 -4 q 1208 -16 1203 -27 q 1198 -38 1186 -40 q 1176 -44 1165 -39 q 1154 -34 1146 -26 q 1132 -8 1130 17 q 1128 42 1128 62 q 1126 88 1127 114 q 1128 140 1136 164 q 1138 176 1143 186 q 1148 196 1158 200 q 1168 206 1180 207 q 1192 208 1202 204 q 1214 200 1221 190 q 1228 180 1231 167 q 1234 154 1235 141 q 1236 128 1236 118 z m 274 330 q 278 338 285 344 q 292 350 302 352 q 310 354 318 350 q 326 346 334 350 l 316 316 q 314 312 311 305 q 308 298 312 296 q 316 292 322 298 q 328 304 334 312 q 336 316 339 321 q 342 326 344 332 l 352 350 q 360 350 368 354 l 348 316 l 343 306 q 340 300 344 296 q 348 292 354 298 q 360 304 364 310 q 368 320 374 330 q 380 340 384 348 q 388 358 392 367 q 396 376 402 384 q 410 382 416 388 l 388 332 q 386 328 384 323 q 382 318 380 312 q 378 308 376 300 q 374 292 382 296 q 386 298 391 303 q 396 308 400 314 q 402 322 408 330 q 412 338 419 344 q 426 350 436 352 q 444 354 452 350 q 460 346 470 350 q 464 342 460 333 q 456 324 452 316 q 450 312 447 305 q 444 298 446 296 q 450 294 453 296 q 456 298 460 301 q 464 304 467 309 q 470 314 472 316 l 472 318 l 504 384 q 512 384 518 388 q 512 376 507 364 q 502 352 494 342 q 502 348 511 353 q 520 358 528 346 q 534 336 528 323 q 522 310 516 302 q 522 302 527 305 q 532 308 536 312 l 545 330 q 550 340 556 348 l 574 384 q 580 382 586 388 l 574 360 q 568 346 560 332 q 558 328 555 323 q 552 318 550 312 q 548 310 547 307 q 546 304 546 301 q 546 298 547 296 q 548 294 554 296 q 558 298 564 304 q 570 310 572 316 q 576 330 584 338 q 588 342 594 346 q 600 350 608 352 q 616 354 622 353 q 628 352 630 342 q 630 334 626 327 q 622 320 614 316 q 606 312 597 309 q 588 306 582 306 q 582 300 586 297 q 590 294 596 294 q 608 294 619 301 q 630 308 636 318 l 640 316 q 632 302 617 294 q 602 286 586 288 q 570 292 570 306 q 566 302 562 297 q 558 292 554 290 q 546 286 539 289 q 532 292 534 302 l 534 304 q 532 302 530 302 q 526 298 518 298 l 510 298 q 508 298 507 296 q 506 294 504 294 q 494 288 483 289 q 472 290 466 300 q 458 292 448 288 q 440 286 436 291 q 432 296 436 304 q 430 298 422 291 q 414 284 404 290 q 398 294 398 304 q 392 296 384 290 q 376 286 369 289 q 362 292 362 300 q 356 292 352 290 q 344 286 336 289 q 328 292 330 300 q 326 296 322 293 q 318 290 314 288 q 304 286 301 291 q 298 296 302 304 l 300 304 q 296 298 287 291 q 278 284 270 290 q 264 292 263 297 q 262 302 264 306 q 258 302 254 300 q 250 298 240 298 q 236 298 235 297 q 234 296 230 294 q 226 292 219 290 q 212 288 207 289 q 202 290 199 294 q 196 298 198 306 q 200 318 206 329 q 212 340 218 350 q 222 350 230 354 q 228 346 225 339 q 222 332 218 324 q 216 322 213 317 q 210 312 208 307 q 206 302 206 298 q 206 294 210 294 q 220 292 228 302 q 236 312 238 316 q 244 324 247 334 q 250 344 250 352 q 258 354 259 347 q 260 340 258 334 q 254 318 240 304 q 248 302 255 307 q 262 312 266 318 z m 438 448 q 428 448 421 453 q 414 458 411 466 q 408 474 407 484 q 406 494 404 502 l 404 541 q 404 562 410 580 q 412 588 417 595 q 422 602 432 602 q 454 608 464 590 q 472 572 472 552 l 472 514 q 472 504 471 493 q 470 482 467 472 q 464 462 457 455 q 450 448 438 448 z m 992 448 q 982 448 975 453 q 968 458 965 466 q 962 474 961 484 q 960 494 960 502 q 958 520 958 541 q 958 562 964 580 q 966 588 972 595 q 978 602 986 602 q 1006 608 1018 590 q 1026 572 1026 552 l 1026 493 q 1026 482 1022 472 q 1018 462 1011 455 q 1004 448 992 448 z m 916 -38 l 882 -38 l 882 206 l 916 206 z m 274 450 l 254 450 l 254 602 l 291 602 q 298 602 304 600 q 314 594 317 583 q 320 572 320 562 q 320 552 318 535 q 316 518 304 514 l 322 450 l 298 450 l 286 510 q 282 510 280 511 q 278 512 274 512 z m 1056 484 l 1056 450 l 1036 450 l 1036 602 l 1054 602 q 1062 576 1070 549 q 1078 522 1084 496 q 1082 522 1082 549 l 1082 602 l 1102 602 l 1102 450 l 1080 450 q 1072 476 1065 502 q 1058 528 1052 554 q 1054 536 1054 519 q 1054 502 1056 484 z m 138 450 l 116 450 l 116 602 l 150 602 q 176 602 182 576 q 186 562 185 544 q 184 526 176 512 q 170 502 159 501 q 148 500 138 500 z m 502 484 l 502 450 l 482 450 l 482 602 l 500 602 q 508 576 516 549 q 524 522 530 496 q 528 522 527 549 q 526 576 526 602 l 546 602 l 546 450 l 526 450 q 518 476 511 502 q 504 528 498 554 q 500 536 500 519 q 500 502 502 484 z m 574 450 l 552 450 l 570 602 l 606 602 l 624 450 l 604 450 l 598 486 l 578 486 z m 750 448 q 736 448 728 457 q 720 466 718 478 q 716 490 716 504 l 716 602 l 738 602 l 738 485 q 738 480 740 476 q 742 470 747 468 q 752 466 756 470 q 762 476 762 484 l 762 498 q 764 510 763 522 q 762 534 762 546 l 762 602 l 784 602 l 784 530 q 784 518 785 504 q 786 490 783 478 q 780 466 773 457 q 766 448 750 448 z m 1140 350 q 1144 350 1152 354 q 1150 348 1147 343 q 1144 338 1140 334 l 1140 332 q 1146 340 1155 346 q 1164 352 1172 354 q 1184 354 1184 345 q 1184 336 1180 328 q 1178 324 1171 313 q 1164 302 1166 298 q 1168 294 1172 295 q 1176 296 1179 300 q 1182 304 1186 308 q 1190 312 1192 316 l 1210 354 l 1202 354 l 1206 360 l 1214 360 l 1222 376 q 1230 376 1236 380 l 1226 360 l 1240 360 l 1236 354 l 1222 354 l 1204 316 l 1199 306 q 1196 300 1198 296 q 1202 294 1206 296 q 1210 298 1214 303 q 1218 308 1221 312 q 1224 316 1226 318 l 1230 316 q 1224 308 1217 299 q 1210 290 1200 288 q 1190 286 1187 290 q 1184 294 1186 300 l 1181 295 q 1178 292 1174 290 q 1168 286 1160 288 q 1152 290 1154 300 q 1154 308 1160 316 q 1166 324 1168 330 q 1170 334 1172 340 q 1174 346 1168 346 q 1156 344 1147 332 q 1138 320 1134 312 q 1130 306 1127 300 q 1124 294 1122 288 l 1110 288 l 1115 301 q 1111 300 1106 298 l 1096 298 q 1092 292 1086 290 q 1080 288 1078 288 q 1068 284 1060 292 q 1052 298 1053 309 q 1054 320 1058 330 q 1064 338 1073 346 q 1082 354 1094 354 q 1104 354 1108 348 q 1112 342 1112 334 q 1112 326 1109 317 q 1106 308 1102 302 q 1114 302 1122 314 z m 354 520 q 330 536 328 560 q 326 570 330 582 q 334 594 344 600 q 354 604 366 603 q 378 602 386 594 q 396 586 396 575 l 396 554 l 374 554 l 374 567 q 374 574 370 578 q 360 586 355 579 q 350 572 348 564 q 348 554 356 547 q 364 540 372 534 q 380 528 386 520 q 392 512 394 504 q 396 492 394 482 q 392 472 387 464 q 382 456 373 451 q 364 446 352 448 q 332 452 330 468 q 328 484 328 500 l 348 500 l 348 480 q 350 474 356 470 q 362 466 368 470 q 372 474 373 483 q 374 492 372 498 q 370 506 365 511 q 360 516 354 520 z m 820 520 q 798 534 794 560 q 792 570 796 582 q 800 594 810 600 q 820 604 832 603 q 844 602 852 594 q 862 586 861 575 q 860 564 860 554 l 840 554 q 840 560 841 567 q 842 574 836 578 q 828 586 822 579 q 816 572 816 564 q 816 554 823 547 q 830 540 838 534 q 854 522 860 504 q 862 492 861 482 q 860 472 854 464 q 848 456 839 451 q 830 446 818 448 q 798 452 796 468 q 794 484 794 500 l 816 500 q 816 494 815 489 q 814 484 816 480 q 818 474 823 470 q 828 466 834 470 q 840 474 841 483 q 842 492 840 498 q 838 506 833 511 q 828 516 820 520 z m 248 450 l 192 450 l 192 602 l 248 602 l 248 582 l 214 582 l 214 538 l 242 538 l 242 516 l 214 516 l 214 470 l 248 470 z m 924 450 l 870 450 l 870 602 l 924 602 l 924 582 l 892 582 l 892 538 l 920 538 l 920 516 l 892 516 l 892 470 l 924 470 z m 178 322 l 136 320 q 130 312 126 303 q 122 294 122 284 q 114 282 112 286 q 110 290 112 297 q 114 304 117 311 q 120 318 122 320 l 108 318 l 102 326 l 126 326 q 136 344 151 361 q 166 378 186 388 q 192 392 202 393 q 212 394 214 382 q 216 378 214 372 q 212 366 210 362 q 204 352 200 342 q 196 332 190 324 q 188 316 182 306 q 176 296 178 288 q 170 286 168 290 q 166 294 168 300 q 170 306 173 312 z m 1212 602 l 1234 602 q 1228 580 1223 559 q 1218 538 1214 516 q 1208 500 1210 483 q 1212 466 1212 450 l 1188 450 q 1188 466 1189 483 q 1190 500 1186 516 q 1180 538 1175 559 q 1170 580 1166 602 l 1186 602 q 1190 582 1194 563 q 1198 544 1200 524 q 1200 544 1204 563 q 1208 582 1212 602 z m 850 290 q 842 294 844 301 q 846 308 848 314 l 866 350 q 872 350 880 354 l 866 326 q 864 322 858 312 q 852 302 856 298 q 862 292 871 300 q 880 308 882 312 q 886 316 888 319 q 890 322 892 328 l 904 352 q 908 352 916 354 q 912 344 908 335 q 904 326 898 316 l 893 306 q 890 300 894 296 q 898 292 904 298 q 910 304 914 310 q 918 320 924 330 q 930 340 934 348 q 938 358 942 367 q 946 376 952 384 q 958 382 966 388 l 928 312 q 926 308 925 300 q 924 292 932 296 q 940 300 946 310 q 950 320 956 330 q 962 340 966 348 q 970 358 974 367 q 978 376 984 384 q 990 382 998 388 l 960 312 q 960 310 959 307 l 957 301 q 956 298 957 296 q 958 294 964 296 q 970 298 975 305 q 980 312 984 318 l 988 316 q 982 308 977 301 q 972 294 964 290 q 958 286 951 289 q 944 292 944 300 q 938 294 932 290 q 926 286 919 289 q 912 292 912 300 q 908 296 903 292 q 898 288 892 288 q 884 288 883 294 q 882 299 883 305 q 877 297 868 291 q 858 284 850 290 z m 1164 450 l 1110 450 l 1110 602 l 1132 602 l 1132 468 l 1164 468 z m 684 450 l 630 450 l 630 602 l 652 602 l 652 468 l 684 468 z m 790 84 q 796 84 802 83 q 808 82 814 86 q 822 94 824 106 q 826 118 826 128 q 826 140 824 153 q 822 166 814 174 q 810 178 803 178 l 790 178 z m 724 350 q 730 350 738 354 q 736 348 733 343 q 730 338 726 334 l 726 332 q 732 340 741 346 q 750 352 758 354 q 770 354 770 345 q 770 336 766 328 q 764 324 756 313 q 748 302 752 298 q 754 294 758 296 q 762 298 766 303 q 770 308 774 312 q 778 316 778 318 l 782 316 q 778 310 773 303 q 768 296 760 290 q 752 286 745 288 q 738 290 740 300 q 740 308 746 316 q 752 324 754 330 q 756 332 757 335 q 758 338 758 340 q 758 342 757 344 q 756 346 752 346 q 742 344 733 332 q 724 320 720 312 l 708 288 l 696 288 l 700 296 q 698 294 696 293 q 694 292 692 290 q 684 286 677 289 q 670 292 672 302 q 672 310 676 317 q 680 324 684 332 q 690 340 692 350 q 702 350 708 354 l 688 316 l 683 306 q 680 300 684 296 q 686 294 690 296 q 694 298 698 303 q 702 308 705 312 q 708 316 710 318 z m 992 584 q 986 584 983 577 q 980 570 979 560 q 978 550 979 540 q 980 530 980 526 q 980 522 979 512 q 978 502 979 492 q 980 482 983 475 q 986 468 992 468 q 998 468 1001 475 q 1004 482 1005 492 q 1006 502 1006 512 l 1006 540 q 1006 550 1005 560 q 1004 570 1001 577 q 998 584 992 584 z m 438 584 q 432 584 429 577 q 426 570 425 560 q 424 550 425 540 q 426 530 426 526 q 426 522 425 512 q 424 502 425 492 q 426 482 429 475 q 432 468 438 468 q 444 468 447 475 q 450 482 451 492 q 452 502 451 512 q 450 522 450 526 q 450 530 451 540 q 452 550 451 560 q 450 570 447 577 q 444 584 438 584 z m 1240 602 l 1262 602 q 1262 574 1261 546 q 1260 518 1258 488 l 1244 488 q 1242 518 1241 545 q 1240 572 1240 602 z m 202 386 q 194 388 183 379 q 172 370 168 366 q 152 348 138 326 l 180 326 l 194 354 q 194 356 197 361 q 200 366 202 372 q 204 378 205 382 q 206 386 202 386 z m 1088 374 q 1084 370 1082 374 q 1080 378 1082 382 q 1070 386 1065 376 q 1060 366 1058 360 l 1072 360 l 1068 354 l 1054 354 l 1010 264 q 1006 264 996 262 l 1042 354 l 1028 354 l 1030 360 l 1046 360 q 1048 368 1053 376 q 1058 384 1068 386 q 1074 388 1084 384 q 1086 384 1089 380 q 1092 376 1088 374 z m 884 374 q 880 370 878 374 q 876 378 876 382 q 866 386 860 376 q 854 366 852 360 l 866 360 l 864 354 l 850 354 l 806 264 q 800 264 792 262 l 838 354 l 822 354 l 826 360 l 840 360 q 844 368 849 376 q 854 384 864 386 q 870 388 878 384 q 880 384 884 380 q 888 376 884 374 z m 672 94 q 670 84 669 74 q 668 64 666 54 l 694 54 q 692 82 687 112 q 682 141 680 171 q 678 151 676 133 q 674 114 672 94 z m 138 518 q 142 518 147 517 q 152 516 154 520 q 160 526 160 535 l 160 567 q 160 576 154 580 q 152 586 147 585 q 142 584 138 584 z m 1094 348 q 1086 348 1079 339 q 1072 330 1068 320 q 1064 310 1064 301 q 1064 292 1072 292 q 1078 292 1085 301 q 1092 310 1097 321 q 1102 332 1102 340 q 1102 348 1094 348 z m 512 346 q 504 346 499 341 q 494 336 489 328 q 484 320 481 312 q 478 304 474 298 q 486 290 496 298 q 506 306 510 314 q 512 316 515 321 q 518 326 519 332 q 520 338 519 342 q 518 346 512 346 z m 978 -18 q 978 -28 972 -33 q 966 -38 958 -38 q 950 -38 944 -33 q 938 -28 938 -18 q 938 -8 944 -3 q 950 2 958 2 q 966 2 972 -3 q 978 -8 978 -18 z m 612 -18 q 612 -28 606 -33 q 600 -38 592 -38 q 584 -38 578 -33 q 572 -28 572 -18 q 572 -8 578 -3 q 584 2 592 2 q 600 2 606 -3 q 612 -8 612 -18 z m 274 526 l 282 526 q 286 526 290 528 q 296 532 297 540 q 298 548 298 556 q 298 562 297 570 q 296 578 290 582 q 286 584 283 584 l 274 584 z m 280 294 q 288 294 294 300 q 300 306 304 314 q 308 322 312 331 q 316 340 318 346 q 308 350 298 342 q 288 334 284 326 q 282 324 279 319 q 276 314 275 309 q 274 304 274 299 q 274 294 280 294 z m 416 294 q 422 294 428 300 q 434 306 439 314 q 444 322 447 331 q 450 340 454 346 q 442 350 433 342 q 424 334 418 326 q 418 324 415 319 q 412 314 410 309 q 408 304 409 299 q 410 294 416 294 z m 588 324 q 586 320 585 317 q 584 314 582 310 q 594 310 607 320 q 620 330 620 342 q 620 350 615 349 q 610 348 604 344 q 600 340 596 335 q 592 330 588 324 z m 582 532 l 580 508 l 596 508 l 588 580 q 588 568 586 556 z m 1262 462 q 1262 456 1258 453 q 1254 450 1250 450 q 1246 450 1242 453 q 1238 456 1238 462 q 1238 468 1242 472 q 1246 476 1250 476 q 1254 476 1258 472 q 1262 468 1262 462 z m 1244 294 q 1240 286 1232 289 q 1224 292 1228 300 q 1232 308 1240 304 q 1248 300 1244 294 z m 376 370 q 374 364 366 366 q 358 368 360 376 q 362 380 365 381 q 368 382 372 381 q 376 380 378 377 q 380 374 376 370 z m 716 370 q 712 364 705 366 q 698 368 700 376 q 700 380 704 381 q 708 382 712 381 q 716 380 717 377 q 718 374 716 370 z m 1264 340 q 1262 336 1259 335 q 1256 334 1253 335 q 1250 336 1249 339 q 1248 342 1250 346 q 1254 352 1261 349 q 1268 346 1264 340 z"},"S":{"x_min":0,"x_max":619,"ha":619,"o":"m 525 717 q 556 712 583 684 q 610 657 625 618 q 640 580 640 536 q 640 492 618 454 q 612 444 593 442 q 574 439 555 442 q 536 446 524 455 q 512 464 522 478 q 541 504 552 534 q 562 565 565 592 q 568 619 564 637 q 559 655 547 655 q 510 656 474 636 q 437 615 408 585 q 378 555 360 522 q 341 488 341 461 q 341 439 354 420 q 368 400 388 382 q 409 364 432 347 q 456 330 477 314 q 498 297 513 280 q 528 263 530 245 q 536 201 518 154 q 499 107 466 68 q 434 28 392 1 q 349 -26 306 -32 q 255 -39 204 -20 q 154 -2 114 26 q 73 54 46 82 q 19 111 14 124 q 8 140 12 164 q 17 187 28 210 q 38 233 52 252 q 66 270 81 278 q 91 283 112 283 q 132 283 158 280 q 183 276 212 270 q 240 265 266 260 q 291 255 310 251 q 330 247 339 246 q 352 245 358 241 q 363 237 362 233 q 360 229 352 226 q 344 222 330 222 q 303 222 264 222 q 224 222 187 220 q 150 218 123 213 q 96 208 93 198 q 91 191 96 176 q 100 162 109 144 q 118 127 131 108 q 144 88 159 72 q 174 56 190 45 q 205 34 220 32 q 250 28 286 48 q 323 68 354 100 q 385 132 405 171 q 425 210 422 243 q 420 261 408 278 q 396 296 378 315 q 361 334 341 354 q 321 374 303 398 q 285 421 272 448 q 260 475 258 507 q 255 547 278 588 q 301 628 340 659 q 378 690 427 707 q 476 724 525 717 z"},"}":{"x_min":0,"x_max":153,"ha":153,"o":"m 0 251 q 28 278 53 314 q 78 350 94 389 q 109 428 112 467 q 116 506 100 539 q 85 570 63 593 q 41 616 14 632 q -13 649 -43 658 q -73 668 -104 673 q -177 683 -276 682 q -374 682 -489 675 q -604 668 -730 656 q -856 645 -984 634 q -1112 622 -1236 612 q -1361 601 -1474 597 q -1586 593 -1681 596 q -1776 600 -1844 616 q -1870 622 -1894 636 q -1919 650 -1939 666 q -1959 683 -1973 700 q -1987 716 -1991 728 q -1995 740 -1988 745 q -1982 750 -1962 743 q -1902 721 -1808 712 q -1714 704 -1598 704 q -1481 704 -1348 711 q -1216 718 -1078 727 q -940 736 -802 746 q -665 755 -539 760 q -413 766 -306 765 q -198 764 -119 753 q -76 748 -36 729 q 3 710 36 682 q 70 654 94 620 q 119 585 132 551 q 147 513 141 467 q 135 421 116 376 q 96 332 67 292 q 38 253 7 227 q -1 220 -7 219 q -13 218 -15 222 q -17 226 -14 234 q -11 241 0 251 z"},"Z":{"x_min":0,"x_max":705,"ha":705,"o":"m 744 720 q 750 721 758 722 q 766 722 774 718 q 782 713 790 702 q 798 690 804 668 q 809 646 808 634 q 807 621 803 614 q 799 608 793 605 q 787 602 783 600 q 690 549 602 486 q 513 422 432 354 q 351 287 279 222 q 207 156 148 102 q 147 101 152 94 q 178 112 206 131 q 233 150 258 165 q 284 180 305 190 q 326 200 340 201 q 351 202 366 192 q 380 182 396 166 q 413 149 430 129 q 448 109 466 91 q 478 79 490 75 q 501 71 515 77 q 539 87 564 108 q 589 128 614 153 q 638 178 661 204 q 684 230 705 251 q 715 261 724 266 q 734 271 740 270 q 746 270 746 265 q 746 260 737 251 q 715 229 688 192 q 661 155 631 116 q 601 76 569 40 q 537 4 505 -16 q 500 -19 490 -24 q 481 -29 469 -30 q 457 -31 442 -26 q 428 -21 413 -5 q 405 4 390 23 q 375 42 358 62 q 341 81 324 96 q 308 112 296 114 q 279 116 251 102 q 223 88 190 68 q 158 48 124 26 q 90 5 60 -8 q 58 -10 56 -11 q 55 -12 54 -14 q 44 -23 34 -17 q 24 -11 18 2 q 11 15 10 30 q 10 46 20 56 q 22 58 43 81 q 64 104 98 141 q 131 178 176 226 q 221 273 272 324 q 322 374 376 424 q 431 475 484 518 q 538 562 588 595 q 638 628 679 643 q 614 629 552 617 q 489 605 435 599 q 381 593 338 594 q 296 596 272 611 q 261 617 261 637 q 261 657 267 678 q 273 698 284 711 q 295 724 307 717 q 337 699 389 690 q 441 682 502 683 q 563 684 627 694 q 691 703 744 720 z"},"x":{"x_min":0,"x_max":404,"ha":404,"o":"m 108 409 q 114 417 124 412 q 134 408 142 398 q 151 387 156 374 q 161 362 156 353 q 141 327 126 305 q 110 283 96 264 q 82 246 72 228 q 61 211 55 194 q 52 186 52 179 q 51 172 51 164 q 103 211 155 259 q 207 307 250 347 q 294 387 325 412 q 356 438 367 440 q 379 442 391 432 q 403 421 410 406 q 418 392 418 378 q 419 365 409 362 q 399 359 373 342 q 347 326 310 298 q 272 270 226 232 q 180 194 131 149 l 76 98 q 82 89 87 84 q 101 67 126 70 q 152 72 184 86 q 215 101 249 124 q 283 146 314 170 q 344 194 368 216 q 393 238 404 251 q 414 261 423 266 q 432 271 438 270 q 443 270 443 265 q 443 260 435 251 q 419 234 396 208 q 373 181 346 151 q 318 121 288 90 q 258 60 230 34 q 201 8 176 -10 q 150 -28 131 -33 q 108 -38 84 -10 q 61 19 41 62 q -13 7 -50 -32 q -88 -70 -111 -77 q -127 -82 -142 -74 q -156 -65 -165 -52 q -174 -39 -176 -26 q -178 -14 -169 -10 q -141 1 -92 40 q -44 80 13 131 q 5 157 0 181 q -4 205 -3 221 q -2 237 4 253 q 11 269 24 290 q 37 311 58 340 q 78 368 108 409 z"},")":{"x_min":0,"x_max":397,"ha":397,"o":"m -155 -152 q -168 -156 -182 -157 q -197 -158 -204 -156 q -212 -153 -208 -146 q -203 -140 -178 -130 q -108 -101 -46 -58 q 16 -16 66 34 q 115 84 150 139 q 185 194 202 248 q 216 292 219 338 q 222 385 214 429 q 206 473 186 512 q 166 551 133 580 q 124 587 136 595 q 148 603 168 608 q 188 612 209 613 q 230 614 239 608 q 272 586 292 546 q 311 505 317 455 q 323 405 316 350 q 309 294 290 241 q 270 188 232 130 q 195 73 140 20 q 84 -33 10 -78 q -63 -123 -155 -152 z"},"&":{"x_min":0,"x_max":703,"ha":703,"o":"m 412 -54 q 412 -73 395 -80 q 378 -88 358 -86 q 337 -84 320 -72 q 302 -61 301 -42 q 300 -24 314 11 q 329 46 350 86 q 371 125 394 162 q 416 199 431 221 q 376 219 328 214 q 279 209 252 201 q 249 200 245 200 q 207 181 169 156 q 131 131 102 106 q 72 80 55 58 q 38 35 43 22 q 50 1 72 -2 q 93 -6 122 4 q 152 15 188 36 q 223 58 260 87 q 270 95 278 86 q 285 76 288 60 q 291 43 289 25 q 287 7 279 -2 q 261 -23 230 -39 q 200 -55 166 -64 q 133 -73 101 -74 q 69 -75 47 -67 q 18 -56 2 -32 q -13 -7 -18 21 q -22 49 -18 76 q -13 102 -3 117 q 17 147 46 167 q 75 187 105 200 q 135 213 161 220 q 187 228 201 233 q 181 234 165 248 q 149 263 140 284 q 131 305 132 330 q 132 354 146 375 q 161 399 196 433 q 230 467 278 498 q 325 529 382 551 q 440 573 502 573 q 554 573 594 560 q 633 548 653 523 q 664 509 658 484 q 651 460 638 438 q 624 417 610 406 q 595 395 592 408 q 589 421 587 438 q 585 454 582 468 q 579 482 574 492 q 568 502 558 504 q 528 508 490 497 q 452 486 413 466 q 374 445 336 419 q 299 393 270 368 q 241 343 224 322 q 206 301 206 291 q 206 279 214 273 q 222 267 233 265 q 244 263 256 262 q 268 261 278 260 l 286 260 q 319 272 370 285 q 421 298 472 308 q 524 318 569 324 q 614 329 637 326 q 645 325 652 309 q 659 293 662 274 q 664 254 660 238 q 657 223 644 223 q 616 224 573 224 q 530 225 481 223 q 481 222 480 222 q 480 221 480 220 q 467 193 455 154 q 443 114 434 74 q 424 35 418 0 q 412 -35 412 -54 z"},"_":{"x_min":0,"x_max":80,"ha":80,"o":"m 2429 -171 q 2438 -172 2440 -178 q 2441 -183 2438 -189 q 2434 -195 2425 -200 q 2416 -204 2403 -204 q 2114 -194 1838 -201 q 1563 -208 1313 -231 q 1063 -254 844 -293 q 626 -332 452 -386 q 432 -392 406 -384 q 379 -377 352 -361 q 325 -345 302 -324 q 278 -303 264 -284 q 251 -265 251 -250 q 251 -234 272 -230 q 338 -216 446 -204 q 554 -193 690 -184 q 825 -176 981 -170 q 1137 -164 1300 -160 q 1462 -157 1624 -156 q 1786 -156 1934 -158 q 2083 -159 2210 -162 q 2337 -166 2429 -171 z"},"v":{"x_min":0,"x_max":448,"ha":448,"o":"m 555 366 q 587 373 586 361 q 584 349 555 335 q 507 312 458 298 q 409 285 356 287 q 335 255 306 220 q 277 185 244 150 q 210 115 174 83 q 139 51 106 26 q 72 1 42 -14 q 12 -30 -9 -32 q -29 -34 -41 -8 q -53 17 -58 52 q -62 88 -58 126 q -55 163 -43 187 q -35 203 -18 227 q -1 251 20 277 q 42 303 65 330 q 88 356 108 378 q 128 399 142 413 q 157 427 162 429 q 169 432 179 425 q 189 418 197 407 q 205 396 209 384 q 213 372 207 365 q 192 345 168 320 q 143 294 116 266 q 90 237 64 208 q 38 179 19 153 q 0 127 -8 106 q -17 86 -9 75 q -3 66 28 80 q 59 93 100 120 q 141 147 186 184 q 230 220 265 256 q 279 271 288 282 q 297 294 305 305 q 286 319 284 342 q 281 364 292 384 q 305 407 324 419 q 342 431 360 430 q 378 430 392 416 q 405 402 408 374 q 409 367 407 366 q 405 365 401 354 q 439 349 474 352 q 509 355 555 366 z"},"O":{"x_min":0,"x_max":661,"ha":661,"o":"m 685 638 q 690 627 692 612 q 695 598 694 582 q 715 573 744 566 q 774 558 815 555 q 832 554 842 550 q 852 547 852 543 q 852 539 840 535 q 828 531 801 528 q 778 525 748 523 q 717 521 687 524 q 676 475 652 418 q 628 360 594 302 q 559 244 516 190 q 474 135 426 92 q 378 48 326 20 q 275 -9 224 -14 q 192 -17 155 2 q 118 20 86 48 q 53 77 32 110 q 11 144 11 172 q 12 212 27 261 q 42 310 69 362 q 96 414 134 465 q 173 516 220 562 q 268 607 324 644 q 380 680 442 701 q 461 707 498 706 q 535 704 574 696 q 612 687 644 672 q 676 658 685 638 z m 262 100 q 314 126 372 176 q 430 227 482 288 q 534 350 574 415 q 614 480 631 536 q 612 542 599 554 q 587 563 580 586 q 572 608 572 628 q 552 629 533 628 q 514 627 499 622 q 442 604 390 570 q 337 535 292 490 q 246 445 209 394 q 172 344 146 294 q 121 245 107 200 q 93 156 95 124 q 96 108 111 97 q 126 86 150 82 q 173 78 202 82 q 232 86 262 100 z"},"(":{"x_min":0,"x_max":389,"ha":389,"o":"m 524 608 q 537 612 552 613 q 567 614 574 611 q 582 608 578 602 q 573 595 548 585 q 477 556 416 514 q 354 472 304 422 q 255 372 220 317 q 185 262 168 208 q 154 164 151 118 q 148 71 156 26 q 164 -18 184 -57 q 204 -96 237 -125 q 245 -133 233 -140 q 221 -147 202 -152 q 182 -157 161 -158 q 140 -158 131 -152 q 98 -130 78 -90 q 59 -50 53 0 q 47 50 54 106 q 61 161 80 214 q 99 268 136 325 q 174 382 230 436 q 285 489 358 534 q 432 579 524 608 z"},"C":{"x_min":0,"x_max":514,"ha":514,"o":"m 474 716 q 487 718 507 709 q 527 700 548 684 q 568 668 586 645 q 604 622 613 596 q 622 570 619 542 q 616 514 595 486 q 588 477 568 476 q 547 474 528 478 q 508 481 497 490 q 486 498 498 510 q 528 538 540 564 q 551 589 551 608 q 551 626 542 636 q 533 647 521 646 q 480 641 438 618 q 395 595 353 560 q 311 526 272 482 q 234 438 201 392 q 168 345 142 298 q 117 251 103 210 q 96 190 95 171 q 94 152 96 136 q 99 119 104 106 q 110 92 117 84 q 136 62 170 63 q 204 64 244 80 q 285 95 328 120 q 372 144 410 170 q 447 196 475 218 q 503 241 514 251 q 538 275 548 273 q 558 271 544 251 q 535 239 516 214 q 497 188 470 157 q 443 126 409 93 q 375 60 338 32 q 300 4 259 -14 q 218 -33 177 -35 q 156 -36 134 -22 q 111 -7 90 18 q 70 43 52 76 q 35 108 24 142 q 13 176 10 208 q 8 241 17 267 q 44 346 94 422 q 144 498 206 560 q 268 623 338 664 q 407 706 474 716 z"},"W":{"x_min":0,"x_max":911,"ha":911,"o":"m 1207 698 q 1225 694 1242 682 q 1259 669 1270 655 q 1281 641 1284 629 q 1288 617 1279 614 q 1203 587 1116 533 q 1030 479 944 413 q 859 347 779 276 q 699 205 636 144 q 572 84 530 40 q 487 -3 477 -14 q 472 -19 458 -18 q 445 -18 428 -14 q 410 -9 392 -2 q 374 6 360 15 q 346 24 340 34 q 333 44 340 53 q 351 69 373 114 q 395 159 422 216 q 450 274 480 337 q 510 400 539 452 q 537 450 520 428 q 503 407 476 374 q 449 340 414 298 q 380 256 343 213 q 306 170 268 128 q 230 87 196 55 q 162 23 134 4 q 106 -16 90 -16 q 70 -16 54 14 q 37 45 26 86 q 16 127 12 170 q 8 212 14 238 q 18 256 34 286 q 50 316 74 354 q 98 391 127 433 q 156 475 186 516 q 217 558 246 596 q 275 634 298 664 q 321 693 337 711 q 353 729 356 730 q 363 733 376 724 q 389 714 401 700 q 413 687 420 672 q 427 658 422 651 q 408 631 376 588 q 344 546 304 491 q 265 436 223 376 q 181 315 148 260 q 114 205 94 162 q 75 119 80 99 q 81 96 97 106 q 113 116 140 136 q 167 156 202 186 q 238 215 278 251 q 317 287 358 328 q 400 369 438 413 q 487 470 518 506 q 550 542 570 566 q 591 590 604 606 q 617 623 630 640 q 638 651 652 642 q 666 634 678 618 q 691 602 700 584 q 710 565 709 556 q 706 529 684 484 q 662 439 630 386 q 599 332 562 277 q 526 222 494 176 q 463 131 440 100 q 418 69 415 65 q 417 62 422 60 q 426 58 431 61 q 434 63 448 76 q 462 89 482 108 q 501 126 524 149 q 547 172 569 194 q 688 313 778 397 q 868 481 935 538 q 1002 595 1048 628 q 1095 661 1126 678 q 1157 694 1176 698 q 1195 701 1207 698 z"},"A":{"x_min":0,"x_max":886,"ha":886,"o":"m 16 72 q 71 91 134 125 q 198 159 264 202 q 201 203 150 206 q 98 210 75 218 q 61 222 50 242 q 38 261 32 282 q 27 303 30 318 q 33 333 50 329 q 75 321 112 314 q 148 307 191 300 q 234 294 282 288 q 330 283 378 280 q 469 346 554 416 q 639 486 708 546 q 776 607 822 650 q 867 694 878 705 q 883 710 896 710 q 910 709 926 704 q 942 700 960 692 q 977 684 989 675 q 1001 666 1006 656 q 1012 646 1005 637 q 991 619 959 576 q 927 532 888 476 q 849 420 808 358 q 767 296 734 242 q 701 188 682 148 q 662 108 666 96 q 670 85 688 92 q 707 100 737 121 q 767 142 805 176 q 843 209 886 251 q 912 276 920 272 q 929 268 916 251 q 910 243 894 220 q 879 198 858 168 q 836 138 810 105 q 785 72 760 44 q 735 17 713 -1 q 691 -19 676 -19 q 661 -19 646 -1 q 631 17 619 44 q 607 70 600 99 q 593 128 593 151 q 593 162 598 179 q 604 196 615 218 q 586 212 534 208 q 483 205 421 203 q 331 128 270 85 q 210 42 170 20 q 131 -2 109 -6 q 87 -11 74 -8 q 56 -4 41 8 q 26 20 18 33 q 9 46 8 58 q 7 69 16 72 z m 595 277 q 611 278 619 272 q 627 267 632 250 q 663 305 712 372 q 761 440 820 505 q 826 512 842 529 q 857 546 874 566 q 892 585 908 602 q 923 620 929 626 q 927 629 918 630 q 908 632 903 629 q 900 627 885 614 q 870 602 849 583 q 828 564 803 542 q 778 519 754 497 q 682 430 620 375 q 559 320 506 274 q 554 274 595 277 z"},"f":{"x_min":0,"x_max":297,"ha":297,"o":"m 325 674 q 332 684 343 680 q 354 675 364 664 q 375 654 382 641 q 389 628 389 621 q 388 614 367 584 q 346 553 311 506 q 276 460 229 402 q 182 343 130 279 q 140 253 145 228 q 175 212 214 213 q 252 214 297 252 q 317 269 328 268 q 338 267 327 252 q 312 231 290 211 q 269 191 245 176 q 221 161 195 153 q 169 145 144 147 q 138 100 123 55 q 108 10 86 -32 q 65 -73 40 -108 q 15 -143 -10 -168 q -35 -194 -58 -208 q -80 -223 -96 -223 q -115 -223 -127 -207 q -139 -191 -146 -166 q -152 -140 -154 -108 q -155 -76 -152 -43 q -148 -10 -140 20 q -132 51 -120 73 q -97 115 -60 168 q -23 221 22 280 q 18 300 18 314 q 18 329 20 338 q 21 344 26 350 q 31 357 38 361 q 46 365 54 366 q 63 366 69 362 l 79 354 q 145 438 210 521 q 275 604 325 674 z m -109 -97 q -101 -110 -74 -93 q -48 -76 -16 -38 q 16 -1 46 53 q 76 107 91 168 q 83 173 73 185 l 62 197 q 18 142 -18 94 q -53 46 -76 8 q -99 -30 -108 -57 q -117 -84 -109 -97 z"},"Q":{"x_min":0,"x_max":671,"ha":671,"o":"m 668 638 q 678 607 674 560 q 671 514 654 458 q 638 403 610 343 q 583 283 547 226 q 511 170 466 122 q 422 73 372 39 q 401 7 428 -15 q 454 -37 474 -42 q 485 -45 482 -60 q 479 -75 468 -91 q 458 -107 442 -118 q 425 -129 409 -123 q 384 -114 352 -82 q 320 -49 287 -2 q 263 -11 237 -14 q 218 -16 194 -8 q 169 0 144 14 q 118 29 94 48 q 70 68 51 89 q 32 110 21 132 q 10 153 11 172 q 15 239 44 316 q 73 393 126 466 q 179 539 256 601 q 334 663 435 701 q 457 709 494 708 q 531 707 568 698 q 604 689 632 674 q 661 658 668 638 z m 165 229 q 159 244 162 262 q 166 281 173 295 q 180 309 188 314 q 197 319 201 307 q 214 268 241 220 q 268 173 301 126 q 367 170 428 232 q 489 293 535 360 q 581 428 606 494 q 632 561 628 614 q 623 619 608 623 q 593 627 573 628 q 553 630 530 628 q 507 625 486 617 q 393 583 318 522 q 244 461 192 390 q 140 320 112 249 q 84 178 83 124 q 83 109 96 98 q 110 87 131 82 q 152 76 178 77 q 205 78 231 87 q 211 122 194 158 q 177 194 165 229 z"},"w":{"x_min":0,"x_max":610,"ha":610,"o":"m 732 366 q 765 373 763 361 q 761 349 732 335 q 685 312 634 297 q 584 282 531 284 q 510 252 483 217 q 456 182 426 148 q 397 113 366 82 q 335 50 305 26 q 275 1 248 -14 q 220 -29 199 -31 q 184 -32 173 -17 q 162 -2 156 22 q 150 46 148 76 q 147 105 150 132 q 93 58 52 18 q 12 -23 -14 -23 q -34 -23 -46 0 q -59 22 -64 54 q -68 86 -65 120 q -62 155 -50 178 q -42 194 -24 218 q -7 243 14 270 q 36 298 59 326 q 82 353 102 376 q 123 399 138 414 q 152 428 157 430 q 164 433 174 426 q 184 419 192 408 q 200 397 204 385 q 208 373 202 366 q 187 346 162 321 q 138 296 112 268 q 85 240 59 212 q 33 183 14 158 q -4 133 -12 113 q -21 93 -13 82 q -7 73 12 80 q 30 87 56 104 q 82 121 112 146 q 142 172 172 201 q 187 227 211 259 q 235 291 258 320 q 282 349 301 370 q 320 390 327 393 q 333 395 340 390 q 348 386 355 378 q 362 370 368 360 q 373 351 375 343 q 377 334 374 328 q 370 323 361 314 q 358 311 342 295 q 327 279 306 256 q 286 233 264 206 q 242 179 225 154 q 208 129 200 108 q 191 87 199 76 q 205 67 231 80 q 257 94 292 121 q 328 148 368 184 q 408 221 442 257 q 456 272 462 279 q 468 286 476 297 q 444 315 448 361 q 449 376 460 395 q 470 414 484 429 q 499 444 515 452 q 531 460 544 455 q 559 449 566 434 q 574 419 577 402 q 580 385 579 370 q 578 355 575 350 q 613 345 650 350 q 687 355 732 366 z"},"-":{"x_min":0,"x_max":408,"ha":408,"o":"m 298 271 q 306 270 308 259 q 309 248 306 234 q 303 219 297 206 q 291 193 284 188 q 278 184 256 184 q 233 185 202 187 q 170 189 134 190 q 98 191 66 188 q 54 187 52 196 q 49 204 52 216 q 56 228 64 239 q 71 250 79 254 q 92 261 124 265 q 157 269 193 270 q 229 272 260 272 q 290 272 298 271 z"},"E":{"x_min":0,"x_max":763,"ha":763,"o":"m 69 21 l 130 36 q 116 45 105 58 q 94 71 96 88 q 96 92 108 110 q 121 128 143 156 q 165 183 194 218 q 223 253 256 292 q 204 287 179 281 q 168 278 162 281 q 155 284 153 290 q 151 296 154 304 q 158 311 168 317 q 181 325 220 334 q 258 344 309 355 q 339 391 370 427 q 400 463 428 496 q 457 530 482 560 q 506 589 525 612 q 478 606 436 600 q 394 593 360 587 q 325 581 300 576 q 276 571 264 568 q 251 565 246 575 q 242 585 244 598 q 246 612 253 625 q 260 638 269 642 q 300 655 361 667 q 422 679 497 689 q 572 699 653 706 q 734 714 807 718 q 880 722 936 722 q 992 721 1017 715 q 1026 713 1028 698 q 1031 684 1029 668 q 1027 652 1020 640 q 1013 627 1003 629 q 987 632 952 633 q 916 634 876 634 q 835 633 795 632 q 755 631 730 630 q 705 628 681 627 q 657 626 632 624 q 615 592 564 529 q 512 466 443 378 q 504 387 556 392 q 608 397 633 395 q 642 395 654 382 q 667 368 676 352 q 685 336 686 324 q 687 311 672 311 q 652 311 620 310 q 589 310 550 309 q 512 308 469 306 q 426 304 384 302 q 319 216 273 149 q 227 82 204 49 q 270 60 338 66 q 407 73 467 74 q 527 75 572 70 q 617 66 636 54 q 647 47 648 28 q 650 8 644 -12 q 639 -31 628 -44 q 618 -57 604 -52 q 583 -44 542 -38 q 502 -33 451 -30 q 400 -28 342 -28 q 283 -28 226 -32 q 170 -36 118 -43 q 67 -50 30 -61 q 14 -66 11 -56 q 8 -45 15 -30 q 22 -15 36 0 q 50 16 69 21 z"},"s":{"x_min":0,"x_max":309,"ha":309,"o":"m 0 251 q 11 263 25 280 q 39 296 55 316 q 71 335 88 355 q 105 375 121 395 q 151 461 218 518 q 226 525 241 518 q 256 512 269 500 q 282 488 288 476 q 295 463 288 457 q 276 448 258 430 q 240 411 222 386 q 203 362 187 334 q 171 305 163 275 q 158 256 154 236 q 151 215 149 194 q 195 194 236 207 q 278 220 309 251 q 316 258 324 262 q 333 266 338 266 q 343 266 344 262 q 346 258 340 251 q 302 206 253 186 q 204 166 147 166 q 143 118 142 78 q 141 39 136 26 q 131 15 114 6 q 96 -3 74 -8 q 51 -13 28 -12 q 5 -11 -10 0 q -24 9 -39 32 q -54 56 -66 85 q -79 114 -86 146 q -93 179 -89 206 q -87 226 -76 237 q -64 248 -50 245 q -42 243 -39 239 q 13 213 78 201 l 90 288 q 91 296 92 304 q 94 313 96 321 q 79 304 62 286 q 46 269 30 251 q 22 242 14 238 q 6 235 1 236 q -4 236 -5 240 q -6 244 0 251 z m 20 87 q 40 90 52 115 q 64 140 72 173 q 13 184 -42 207 q -42 189 -39 167 q -36 145 -28 126 q -21 107 -9 96 q 3 84 20 87 z"},">":{"x_min":0,"x_max":449,"ha":449,"o":"m 110 44 q 104 34 89 36 q 74 39 60 49 q 45 59 36 74 q 27 89 32 105 q 34 111 56 127 q 78 143 110 162 q 142 182 179 202 q 216 222 248 236 q 231 252 216 272 q 200 292 189 312 q 178 333 172 350 q 165 367 167 377 q 168 389 183 394 q 198 399 215 398 q 232 397 246 392 q 261 386 262 376 q 263 368 266 354 q 269 339 274 322 q 278 305 284 287 q 290 269 297 254 q 298 254 298 254 q 298 255 299 255 q 327 257 336 247 q 345 237 344 224 q 342 212 334 200 q 325 189 319 187 q 291 179 256 158 q 222 138 191 116 q 160 93 138 73 q 115 53 110 44 z"},"l":{"x_min":0,"x_max":260,"ha":260,"o":"m 408 614 q 400 602 380 578 q 361 555 334 524 q 308 494 277 458 q 246 423 214 387 q 182 351 152 317 q 121 283 96 255 q 72 227 55 208 q 38 188 33 182 q 7 149 -4 120 q -15 92 -7 84 q 0 76 26 84 q 52 92 89 114 q 126 136 170 171 q 215 206 260 251 q 267 258 276 262 q 285 267 291 268 q 297 268 298 264 q 298 260 290 251 q 227 180 180 127 q 133 74 96 38 q 60 3 32 -14 q 4 -31 -20 -30 q -44 -30 -54 -2 q -63 27 -58 72 q -53 117 -33 174 q -13 230 23 287 q 32 301 55 330 q 78 359 108 396 q 138 432 172 473 q 207 514 240 554 q 272 594 299 630 q 326 666 342 691 q 348 701 361 693 q 374 685 386 670 q 398 654 406 638 q 413 621 408 614 z"},"8":{"x_min":0,"x_max":1372,"ha":1372,"o":"m 408 206 l 450 206 q 454 154 458 104 q 462 54 464 2 q 466 40 469 79 q 472 118 476 156 l 482 206 l 522 206 q 526 164 530 123 q 534 82 538 40 l 540 2 q 544 44 545 83 q 546 122 550 162 q 552 172 553 183 q 554 194 554 206 l 584 206 l 564 -38 l 518 -38 q 514 10 509 58 q 504 106 502 156 q 500 120 497 83 q 494 46 490 10 l 486 -38 l 440 -38 l 428 98 l 416 -38 l 372 -38 q 366 10 361 58 q 356 106 354 156 q 352 120 350 83 q 348 46 344 10 l 338 -38 l 292 -38 l 280 102 l 270 -38 l 224 -38 q 218 10 214 58 q 210 104 208 150 q 206 116 203 82 q 200 46 196 10 l 190 -38 l 146 -38 l 124 206 l 154 206 q 160 154 163 104 q 166 54 168 2 q 172 40 174 79 q 176 118 182 156 l 188 206 l 226 206 q 232 164 236 123 q 240 82 242 40 l 246 2 q 248 44 250 83 q 252 122 256 162 l 260 206 l 302 206 q 306 154 310 104 q 314 54 316 2 q 320 40 322 79 q 324 118 328 156 q 330 168 331 180 q 332 192 334 206 l 374 206 q 380 164 383 123 q 386 82 390 40 l 392 2 q 396 44 398 83 q 400 122 404 162 z m 1254 734 l 124 734 l 124 756 l 1254 756 z m 1254 -194 l 124 -194 l 124 -172 l 1254 -172 z m 790 -38 l 754 -38 l 754 206 l 813 206 q 824 206 834 202 q 850 194 855 174 q 860 154 860 138 l 860 119 q 860 108 858 97 q 856 86 851 77 q 846 68 836 64 l 866 -38 l 828 -38 l 806 58 l 790 58 z m 1032 16 l 1032 -38 l 1000 -38 l 1000 206 l 1032 206 q 1044 162 1056 120 q 1068 78 1078 34 q 1074 78 1074 120 l 1074 206 l 1106 206 l 1106 -38 l 1072 -38 q 1060 4 1048 45 q 1036 86 1026 128 q 1028 100 1029 72 q 1030 44 1032 16 z m 656 -38 l 622 -38 l 652 206 l 708 206 l 738 -38 l 704 -38 l 696 20 l 664 20 z m 1202 114 q 1204 126 1203 138 q 1202 150 1198 162 q 1194 170 1187 175 q 1180 180 1172 170 q 1166 162 1165 149 q 1164 136 1164 126 q 1162 114 1162 102 l 1162 56 q 1162 44 1164 34 q 1164 24 1166 11 q 1168 -2 1178 -6 q 1188 -12 1194 -5 q 1200 2 1202 15 q 1204 28 1204 40 l 1204 58 l 1180 58 l 1180 86 l 1238 86 l 1238 -38 l 1212 -38 l 1210 -4 q 1208 -16 1203 -27 q 1198 -38 1186 -40 q 1176 -44 1165 -39 q 1154 -34 1146 -26 q 1132 -8 1130 17 q 1128 42 1128 62 q 1126 88 1127 114 q 1128 140 1136 164 q 1138 176 1143 186 q 1148 196 1158 200 q 1168 206 1180 207 q 1192 208 1202 204 q 1214 200 1221 190 q 1228 180 1231 167 q 1234 154 1235 141 q 1236 128 1236 118 z m 274 330 q 278 338 285 344 q 292 350 302 352 q 310 354 318 350 q 326 346 334 350 l 316 316 q 314 312 311 305 q 308 298 312 296 q 316 292 322 298 q 328 304 334 312 q 336 316 339 321 q 342 326 344 332 l 352 350 q 360 350 368 354 l 348 316 l 343 306 q 340 300 344 296 q 348 292 354 298 q 360 304 364 310 q 368 320 374 330 q 380 340 384 348 q 388 358 392 367 q 396 376 402 384 q 410 382 416 388 l 388 332 q 386 328 384 323 q 382 318 380 312 q 378 308 376 300 q 374 292 382 296 q 386 298 391 303 q 396 308 400 314 q 402 322 408 330 q 412 338 419 344 q 426 350 436 352 q 444 354 452 350 q 460 346 470 350 q 464 342 460 333 q 456 324 452 316 q 450 312 447 305 q 444 298 446 296 q 450 294 453 296 q 456 298 460 301 q 464 304 467 309 q 470 314 472 316 l 472 318 l 504 384 q 512 384 518 388 q 512 376 507 364 q 502 352 494 342 q 502 348 511 353 q 520 358 528 346 q 534 336 528 323 q 522 310 516 302 q 522 302 527 305 q 532 308 536 312 l 545 330 q 550 340 556 348 l 574 384 q 580 382 586 388 l 574 360 q 568 346 560 332 q 558 328 555 323 q 552 318 550 312 q 548 310 547 307 q 546 304 546 301 q 546 298 547 296 q 548 294 554 296 q 558 298 564 304 q 570 310 572 316 q 576 330 584 338 q 588 342 594 346 q 600 350 608 352 q 616 354 622 353 q 628 352 630 342 q 630 334 626 327 q 622 320 614 316 q 606 312 597 309 q 588 306 582 306 q 582 300 586 297 q 590 294 596 294 q 608 294 619 301 q 630 308 636 318 l 640 316 q 632 302 617 294 q 602 286 586 288 q 570 292 570 306 q 566 302 562 297 q 558 292 554 290 q 546 286 539 289 q 532 292 534 302 l 534 304 q 532 302 530 302 q 526 298 518 298 l 510 298 q 508 298 507 296 q 506 294 504 294 q 494 288 483 289 q 472 290 466 300 q 458 292 448 288 q 440 286 436 291 q 432 296 436 304 q 430 298 422 291 q 414 284 404 290 q 398 294 398 304 q 392 296 384 290 q 376 286 369 289 q 362 292 362 300 q 356 292 352 290 q 344 286 336 289 q 328 292 330 300 q 326 296 322 293 q 318 290 314 288 q 304 286 301 291 q 298 296 302 304 l 300 304 q 296 298 287 291 q 278 284 270 290 q 264 292 263 297 q 262 302 264 306 q 258 302 254 300 q 250 298 240 298 q 236 298 235 297 q 234 296 230 294 q 226 292 219 290 q 212 288 207 289 q 202 290 199 294 q 196 298 198 306 q 200 318 206 329 q 212 340 218 350 q 222 350 230 354 q 228 346 225 339 q 222 332 218 324 q 216 322 213 317 q 210 312 208 307 q 206 302 206 298 q 206 294 210 294 q 220 292 228 302 q 236 312 238 316 q 244 324 247 334 q 250 344 250 352 q 258 354 259 347 q 260 340 258 334 q 254 318 240 304 q 248 302 255 307 q 262 312 266 318 z m 438 448 q 428 448 421 453 q 414 458 411 466 q 408 474 407 484 q 406 494 404 502 l 404 541 q 404 562 410 580 q 412 588 417 595 q 422 602 432 602 q 454 608 464 590 q 472 572 472 552 l 472 514 q 472 504 471 493 q 470 482 467 472 q 464 462 457 455 q 450 448 438 448 z m 992 448 q 982 448 975 453 q 968 458 965 466 q 962 474 961 484 q 960 494 960 502 q 958 520 958 541 q 958 562 964 580 q 966 588 972 595 q 978 602 986 602 q 1006 608 1018 590 q 1026 572 1026 552 l 1026 493 q 1026 482 1022 472 q 1018 462 1011 455 q 1004 448 992 448 z m 916 -38 l 882 -38 l 882 206 l 916 206 z m 274 450 l 254 450 l 254 602 l 291 602 q 298 602 304 600 q 314 594 317 583 q 320 572 320 562 q 320 552 318 535 q 316 518 304 514 l 322 450 l 298 450 l 286 510 q 282 510 280 511 q 278 512 274 512 z m 1056 484 l 1056 450 l 1036 450 l 1036 602 l 1054 602 q 1062 576 1070 549 q 1078 522 1084 496 q 1082 522 1082 549 l 1082 602 l 1102 602 l 1102 450 l 1080 450 q 1072 476 1065 502 q 1058 528 1052 554 q 1054 536 1054 519 q 1054 502 1056 484 z m 138 450 l 116 450 l 116 602 l 150 602 q 176 602 182 576 q 186 562 185 544 q 184 526 176 512 q 170 502 159 501 q 148 500 138 500 z m 502 484 l 502 450 l 482 450 l 482 602 l 500 602 q 508 576 516 549 q 524 522 530 496 q 528 522 527 549 q 526 576 526 602 l 546 602 l 546 450 l 526 450 q 518 476 511 502 q 504 528 498 554 q 500 536 500 519 q 500 502 502 484 z m 574 450 l 552 450 l 570 602 l 606 602 l 624 450 l 604 450 l 598 486 l 578 486 z m 750 448 q 736 448 728 457 q 720 466 718 478 q 716 490 716 504 l 716 602 l 738 602 l 738 485 q 738 480 740 476 q 742 470 747 468 q 752 466 756 470 q 762 476 762 484 l 762 498 q 764 510 763 522 q 762 534 762 546 l 762 602 l 784 602 l 784 530 q 784 518 785 504 q 786 490 783 478 q 780 466 773 457 q 766 448 750 448 z m 1140 350 q 1144 350 1152 354 q 1150 348 1147 343 q 1144 338 1140 334 l 1140 332 q 1146 340 1155 346 q 1164 352 1172 354 q 1184 354 1184 345 q 1184 336 1180 328 q 1178 324 1171 313 q 1164 302 1166 298 q 1168 294 1172 295 q 1176 296 1179 300 q 1182 304 1186 308 q 1190 312 1192 316 l 1210 354 l 1202 354 l 1206 360 l 1214 360 l 1222 376 q 1230 376 1236 380 l 1226 360 l 1240 360 l 1236 354 l 1222 354 l 1204 316 l 1199 306 q 1196 300 1198 296 q 1202 294 1206 296 q 1210 298 1214 303 q 1218 308 1221 312 q 1224 316 1226 318 l 1230 316 q 1224 308 1217 299 q 1210 290 1200 288 q 1190 286 1187 290 q 1184 294 1186 300 l 1181 295 q 1178 292 1174 290 q 1168 286 1160 288 q 1152 290 1154 300 q 1154 308 1160 316 q 1166 324 1168 330 q 1170 334 1172 340 q 1174 346 1168 346 q 1156 344 1147 332 q 1138 320 1134 312 q 1130 306 1127 300 q 1124 294 1122 288 l 1110 288 l 1115 301 q 1111 300 1106 298 l 1096 298 q 1092 292 1086 290 q 1080 288 1078 288 q 1068 284 1060 292 q 1052 298 1053 309 q 1054 320 1058 330 q 1064 338 1073 346 q 1082 354 1094 354 q 1104 354 1108 348 q 1112 342 1112 334 q 1112 326 1109 317 q 1106 308 1102 302 q 1114 302 1122 314 z m 354 520 q 330 536 328 560 q 326 570 330 582 q 334 594 344 600 q 354 604 366 603 q 378 602 386 594 q 396 586 396 575 l 396 554 l 374 554 l 374 567 q 374 574 370 578 q 360 586 355 579 q 350 572 348 564 q 348 554 356 547 q 364 540 372 534 q 380 528 386 520 q 392 512 394 504 q 396 492 394 482 q 392 472 387 464 q 382 456 373 451 q 364 446 352 448 q 332 452 330 468 q 328 484 328 500 l 348 500 l 348 480 q 350 474 356 470 q 362 466 368 470 q 372 474 373 483 q 374 492 372 498 q 370 506 365 511 q 360 516 354 520 z m 820 520 q 798 534 794 560 q 792 570 796 582 q 800 594 810 600 q 820 604 832 603 q 844 602 852 594 q 862 586 861 575 q 860 564 860 554 l 840 554 q 840 560 841 567 q 842 574 836 578 q 828 586 822 579 q 816 572 816 564 q 816 554 823 547 q 830 540 838 534 q 854 522 860 504 q 862 492 861 482 q 860 472 854 464 q 848 456 839 451 q 830 446 818 448 q 798 452 796 468 q 794 484 794 500 l 816 500 q 816 494 815 489 q 814 484 816 480 q 818 474 823 470 q 828 466 834 470 q 840 474 841 483 q 842 492 840 498 q 838 506 833 511 q 828 516 820 520 z m 248 450 l 192 450 l 192 602 l 248 602 l 248 582 l 214 582 l 214 538 l 242 538 l 242 516 l 214 516 l 214 470 l 248 470 z m 924 450 l 870 450 l 870 602 l 924 602 l 924 582 l 892 582 l 892 538 l 920 538 l 920 516 l 892 516 l 892 470 l 924 470 z m 178 322 l 136 320 q 130 312 126 303 q 122 294 122 284 q 114 282 112 286 q 110 290 112 297 q 114 304 117 311 q 120 318 122 320 l 108 318 l 102 326 l 126 326 q 136 344 151 361 q 166 378 186 388 q 192 392 202 393 q 212 394 214 382 q 216 378 214 372 q 212 366 210 362 q 204 352 200 342 q 196 332 190 324 q 188 316 182 306 q 176 296 178 288 q 170 286 168 290 q 166 294 168 300 q 170 306 173 312 z m 1212 602 l 1234 602 q 1228 580 1223 559 q 1218 538 1214 516 q 1208 500 1210 483 q 1212 466 1212 450 l 1188 450 q 1188 466 1189 483 q 1190 500 1186 516 q 1180 538 1175 559 q 1170 580 1166 602 l 1186 602 q 1190 582 1194 563 q 1198 544 1200 524 q 1200 544 1204 563 q 1208 582 1212 602 z m 850 290 q 842 294 844 301 q 846 308 848 314 l 866 350 q 872 350 880 354 l 866 326 q 864 322 858 312 q 852 302 856 298 q 862 292 871 300 q 880 308 882 312 q 886 316 888 319 q 890 322 892 328 l 904 352 q 908 352 916 354 q 912 344 908 335 q 904 326 898 316 l 893 306 q 890 300 894 296 q 898 292 904 298 q 910 304 914 310 q 918 320 924 330 q 930 340 934 348 q 938 358 942 367 q 946 376 952 384 q 958 382 966 388 l 928 312 q 926 308 925 300 q 924 292 932 296 q 940 300 946 310 q 950 320 956 330 q 962 340 966 348 q 970 358 974 367 q 978 376 984 384 q 990 382 998 388 l 960 312 q 960 310 959 307 l 957 301 q 956 298 957 296 q 958 294 964 296 q 970 298 975 305 q 980 312 984 318 l 988 316 q 982 308 977 301 q 972 294 964 290 q 958 286 951 289 q 944 292 944 300 q 938 294 932 290 q 926 286 919 289 q 912 292 912 300 q 908 296 903 292 q 898 288 892 288 q 884 288 883 294 q 882 299 883 305 q 877 297 868 291 q 858 284 850 290 z m 1164 450 l 1110 450 l 1110 602 l 1132 602 l 1132 468 l 1164 468 z m 684 450 l 630 450 l 630 602 l 652 602 l 652 468 l 684 468 z m 790 84 q 796 84 802 83 q 808 82 814 86 q 822 94 824 106 q 826 118 826 128 q 826 140 824 153 q 822 166 814 174 q 810 178 803 178 l 790 178 z m 724 350 q 730 350 738 354 q 736 348 733 343 q 730 338 726 334 l 726 332 q 732 340 741 346 q 750 352 758 354 q 770 354 770 345 q 770 336 766 328 q 764 324 756 313 q 748 302 752 298 q 754 294 758 296 q 762 298 766 303 q 770 308 774 312 q 778 316 778 318 l 782 316 q 778 310 773 303 q 768 296 760 290 q 752 286 745 288 q 738 290 740 300 q 740 308 746 316 q 752 324 754 330 q 756 332 757 335 q 758 338 758 340 q 758 342 757 344 q 756 346 752 346 q 742 344 733 332 q 724 320 720 312 l 708 288 l 696 288 l 700 296 q 698 294 696 293 q 694 292 692 290 q 684 286 677 289 q 670 292 672 302 q 672 310 676 317 q 680 324 684 332 q 690 340 692 350 q 702 350 708 354 l 688 316 l 683 306 q 680 300 684 296 q 686 294 690 296 q 694 298 698 303 q 702 308 705 312 q 708 316 710 318 z m 992 584 q 986 584 983 577 q 980 570 979 560 q 978 550 979 540 q 980 530 980 526 q 980 522 979 512 q 978 502 979 492 q 980 482 983 475 q 986 468 992 468 q 998 468 1001 475 q 1004 482 1005 492 q 1006 502 1006 512 l 1006 540 q 1006 550 1005 560 q 1004 570 1001 577 q 998 584 992 584 z m 438 584 q 432 584 429 577 q 426 570 425 560 q 424 550 425 540 q 426 530 426 526 q 426 522 425 512 q 424 502 425 492 q 426 482 429 475 q 432 468 438 468 q 444 468 447 475 q 450 482 451 492 q 452 502 451 512 q 450 522 450 526 q 450 530 451 540 q 452 550 451 560 q 450 570 447 577 q 444 584 438 584 z m 1240 602 l 1262 602 q 1262 574 1261 546 q 1260 518 1258 488 l 1244 488 q 1242 518 1241 545 q 1240 572 1240 602 z m 202 386 q 194 388 183 379 q 172 370 168 366 q 152 348 138 326 l 180 326 l 194 354 q 194 356 197 361 q 200 366 202 372 q 204 378 205 382 q 206 386 202 386 z m 1088 374 q 1084 370 1082 374 q 1080 378 1082 382 q 1070 386 1065 376 q 1060 366 1058 360 l 1072 360 l 1068 354 l 1054 354 l 1010 264 q 1006 264 996 262 l 1042 354 l 1028 354 l 1030 360 l 1046 360 q 1048 368 1053 376 q 1058 384 1068 386 q 1074 388 1084 384 q 1086 384 1089 380 q 1092 376 1088 374 z m 884 374 q 880 370 878 374 q 876 378 876 382 q 866 386 860 376 q 854 366 852 360 l 866 360 l 864 354 l 850 354 l 806 264 q 800 264 792 262 l 838 354 l 822 354 l 826 360 l 840 360 q 844 368 849 376 q 854 384 864 386 q 870 388 878 384 q 880 384 884 380 q 888 376 884 374 z m 672 94 q 670 84 669 74 q 668 64 666 54 l 694 54 q 692 82 687 112 q 682 141 680 171 q 678 151 676 133 q 674 114 672 94 z m 138 518 q 142 518 147 517 q 152 516 154 520 q 160 526 160 535 l 160 567 q 160 576 154 580 q 152 586 147 585 q 142 584 138 584 z m 1094 348 q 1086 348 1079 339 q 1072 330 1068 320 q 1064 310 1064 301 q 1064 292 1072 292 q 1078 292 1085 301 q 1092 310 1097 321 q 1102 332 1102 340 q 1102 348 1094 348 z m 512 346 q 504 346 499 341 q 494 336 489 328 q 484 320 481 312 q 478 304 474 298 q 486 290 496 298 q 506 306 510 314 q 512 316 515 321 q 518 326 519 332 q 520 338 519 342 q 518 346 512 346 z m 978 -18 q 978 -28 972 -33 q 966 -38 958 -38 q 950 -38 944 -33 q 938 -28 938 -18 q 938 -8 944 -3 q 950 2 958 2 q 966 2 972 -3 q 978 -8 978 -18 z m 612 -18 q 612 -28 606 -33 q 600 -38 592 -38 q 584 -38 578 -33 q 572 -28 572 -18 q 572 -8 578 -3 q 584 2 592 2 q 600 2 606 -3 q 612 -8 612 -18 z m 274 526 l 282 526 q 286 526 290 528 q 296 532 297 540 q 298 548 298 556 q 298 562 297 570 q 296 578 290 582 q 286 584 283 584 l 274 584 z m 280 294 q 288 294 294 300 q 300 306 304 314 q 308 322 312 331 q 316 340 318 346 q 308 350 298 342 q 288 334 284 326 q 282 324 279 319 q 276 314 275 309 q 274 304 274 299 q 274 294 280 294 z m 416 294 q 422 294 428 300 q 434 306 439 314 q 444 322 447 331 q 450 340 454 346 q 442 350 433 342 q 424 334 418 326 q 418 324 415 319 q 412 314 410 309 q 408 304 409 299 q 410 294 416 294 z m 588 324 q 586 320 585 317 q 584 314 582 310 q 594 310 607 320 q 620 330 620 342 q 620 350 615 349 q 610 348 604 344 q 600 340 596 335 q 592 330 588 324 z m 582 532 l 580 508 l 596 508 l 588 580 q 588 568 586 556 z m 1262 462 q 1262 456 1258 453 q 1254 450 1250 450 q 1246 450 1242 453 q 1238 456 1238 462 q 1238 468 1242 472 q 1246 476 1250 476 q 1254 476 1258 472 q 1262 468 1262 462 z m 1244 294 q 1240 286 1232 289 q 1224 292 1228 300 q 1232 308 1240 304 q 1248 300 1244 294 z m 376 370 q 374 364 366 366 q 358 368 360 376 q 362 380 365 381 q 368 382 372 381 q 376 380 378 377 q 380 374 376 370 z m 716 370 q 712 364 705 366 q 698 368 700 376 q 700 380 704 381 q 708 382 712 381 q 716 380 717 377 q 718 374 716 370 z m 1264 340 q 1262 336 1259 335 q 1256 334 1253 335 q 1250 336 1249 339 q 1248 342 1250 346 q 1254 352 1261 349 q 1268 346 1264 340 z"},"\\":{"x_min":0,"x_max":401,"ha":401,"o":"m 104 635 q 102 643 110 648 q 118 653 131 652 q 144 652 160 646 q 177 639 192 626 q 195 623 198 594 q 201 564 204 517 q 207 470 211 410 q 215 349 219 285 q 223 221 228 158 q 232 94 237 40 q 242 -13 248 -52 q 253 -91 259 -106 q 263 -118 255 -122 q 247 -126 234 -124 q 221 -123 207 -118 q 193 -113 187 -107 q 181 -101 175 -67 q 169 -33 162 19 q 155 71 148 136 q 142 201 136 268 q 130 335 124 399 q 119 463 114 514 q 110 566 108 598 q 105 631 104 635 z"},"e":{"x_min":0,"x_max":378,"ha":378,"o":"m 298 390 q 315 373 326 352 q 336 330 331 304 q 328 292 306 272 q 285 251 248 232 q 212 213 162 200 q 112 187 52 189 q 29 154 20 125 q 10 96 22 83 q 32 72 56 74 q 80 77 112 88 q 145 100 182 119 q 220 138 256 160 q 293 183 325 206 q 357 230 378 251 q 402 274 412 272 q 422 271 408 251 q 401 240 378 216 q 356 193 324 163 q 293 133 256 102 q 220 70 184 44 q 149 17 118 -1 q 87 -19 67 -20 q 41 -22 20 4 q -2 29 -16 65 q -29 101 -33 139 q -37 177 -27 201 q -13 236 15 274 q 43 311 76 343 q 110 375 145 398 q 180 421 209 427 q 226 431 252 422 q 278 413 298 390 z m 268 361 q 262 368 252 368 q 242 369 232 365 q 215 359 194 344 q 173 329 152 309 q 130 289 109 265 q 88 241 70 216 q 87 217 110 226 q 133 236 157 250 q 181 263 204 279 q 226 295 242 310 q 259 326 266 340 q 274 353 268 361 z"},"b":{"x_min":0,"x_max":389,"ha":389,"o":"m 329 691 q 335 702 348 698 q 360 693 372 681 q 384 669 391 654 q 398 640 394 630 q 378 596 338 547 q 298 498 249 442 q 259 440 271 434 q 283 429 292 418 q 302 407 308 390 q 315 373 315 348 q 349 343 377 344 q 405 345 428 349 q 451 353 468 358 q 485 362 497 365 q 526 371 531 362 q 536 354 507 337 q 497 331 476 322 q 454 314 426 306 q 398 299 366 294 q 335 288 305 288 q 296 259 278 225 q 260 191 236 156 q 213 120 186 87 q 159 54 131 28 q 103 3 76 -12 q 50 -27 28 -27 q 5 -27 -10 -12 q -24 4 -30 29 q -37 54 -36 86 q -36 118 -30 151 q -24 184 -14 216 q -3 247 11 272 q 25 297 49 330 q 73 362 102 399 q 132 436 164 476 q 197 515 228 554 q 259 592 285 627 q 311 662 329 691 z m 18 97 q 29 82 58 94 q 87 105 122 134 q 156 164 189 206 q 222 248 240 295 q 220 301 209 313 q 193 327 190 343 q 187 359 191 375 q 152 330 116 287 q 79 244 54 207 q 28 170 18 142 q 7 113 18 97 z"},"%":{"x_min":0,"x_max":544,"ha":544,"o":"m 276 532 q 285 527 292 515 q 298 503 302 488 q 305 474 306 459 q 307 444 304 434 l 301 424 q 348 460 394 486 q 439 512 481 520 q 491 522 506 514 q 520 505 532 494 q 543 482 547 471 q 551 460 542 457 q 455 428 374 375 q 294 322 224 259 q 155 196 98 130 q 40 64 -2 9 q -10 -1 -20 3 q -31 7 -39 18 q -47 28 -49 42 q -51 56 -42 67 q -16 98 20 140 q 55 183 98 230 q 87 235 77 242 q 67 250 59 260 q 44 278 42 303 q 42 306 43 308 q 44 336 56 364 q 69 392 88 418 q 106 443 129 465 q 152 487 175 503 q 207 526 234 534 q 260 541 276 532 z m 409 327 q 418 322 425 309 q 432 296 436 280 q 440 264 441 248 q 442 232 439 221 q 430 183 406 144 q 381 105 352 72 q 322 40 292 20 q 261 -1 239 -2 q 224 -3 206 7 q 187 17 175 33 q 157 55 157 80 l 157 86 q 159 116 172 146 q 185 176 206 204 q 226 231 250 255 q 275 279 299 296 q 334 321 363 329 q 392 337 409 327 z m 392 244 q 392 251 388 257 q 372 258 348 245 q 324 232 300 211 q 275 190 254 165 q 232 140 220 118 q 210 99 209 91 q 208 83 210 80 q 211 80 212 78 q 213 77 218 77 q 232 77 258 92 q 284 107 311 130 q 338 152 360 179 q 383 206 390 229 q 391 234 392 238 q 392 241 392 244 z m 261 455 q 261 460 260 462 q 259 465 257 467 q 242 468 220 456 q 198 444 175 424 q 152 405 132 382 q 112 359 102 338 q 93 321 92 313 q 90 305 92 303 q 92 300 99 300 q 112 300 136 314 q 161 328 186 349 q 211 370 232 395 q 253 420 259 441 q 260 446 260 450 q 261 453 261 455 z"},"m":{"x_min":0,"x_max":730,"ha":730,"o":"m 730 251 q 749 272 762 272 q 774 271 760 251 q 724 204 689 159 q 654 114 619 76 q 584 39 549 14 q 514 -12 478 -19 q 460 -23 442 -7 q 424 9 412 36 q 399 64 396 98 q 393 132 406 164 q 411 177 428 198 q 445 218 467 240 q 489 261 512 282 q 534 302 551 317 q 514 298 465 258 q 416 219 365 172 q 314 124 266 74 q 219 24 186 -16 q 180 -22 169 -20 q 158 -18 146 -10 q 135 -3 126 8 q 117 20 116 31 q 115 41 126 62 q 136 83 153 108 q 170 134 191 162 q 212 190 233 215 q 254 240 272 260 q 290 280 301 290 q 264 271 212 238 q 159 204 104 164 q 49 123 -2 79 q -53 35 -87 -5 q -92 -11 -104 -10 q -117 -10 -130 -4 q -143 2 -152 12 q -162 21 -162 32 q -162 39 -144 65 q -126 91 -98 126 q -71 162 -38 203 q -5 244 26 283 q 56 322 80 354 q 104 387 113 404 q 117 411 130 408 q 144 405 158 396 q 172 388 181 376 q 190 363 185 350 q 176 329 149 298 q 122 266 89 230 q 56 194 24 156 q -9 118 -28 84 q 10 121 55 166 q 100 212 146 256 q 191 301 234 338 q 278 374 314 393 q 327 400 347 396 q 367 391 384 382 q 401 372 410 359 q 420 346 413 335 q 402 319 386 298 q 369 277 352 254 q 334 232 316 210 q 299 188 286 170 q 273 151 266 138 q 259 124 262 120 q 299 154 337 196 q 375 239 413 280 q 451 320 488 354 q 525 389 561 408 q 568 415 586 410 q 605 404 623 393 q 641 382 652 368 q 664 355 658 347 q 628 309 590 266 q 552 224 520 186 q 487 149 468 120 q 448 91 456 81 q 463 72 482 76 q 501 80 526 92 q 551 105 580 124 q 609 144 637 166 q 665 188 690 210 q 714 233 730 251 z"},"#":{"x_min":0,"x_max":573,"ha":573,"o":"m 548 403 q 556 401 558 392 q 559 384 554 372 q 550 361 540 349 q 529 337 511 328 q 507 326 491 327 q 475 328 450 330 q 421 295 397 263 q 373 231 352 199 q 383 196 404 194 q 425 191 430 190 q 438 188 440 180 q 442 171 438 160 q 433 149 422 136 q 411 124 393 115 q 388 113 364 114 q 339 116 302 120 l 266 59 q 262 53 249 54 q 236 55 222 60 q 209 65 200 73 q 191 81 196 89 l 222 130 l 144 139 q 133 121 122 103 q 111 85 100 65 q 96 59 83 60 q 70 61 56 66 q 43 71 34 79 q 25 87 30 95 l 62 146 q 51 147 42 148 q 33 148 25 148 q 12 148 11 157 q 10 166 16 177 q 21 188 30 199 q 39 210 47 213 q 53 215 68 216 q 84 217 105 217 q 127 252 150 288 q 173 324 196 357 q 163 360 142 360 q 130 360 129 369 q 128 378 134 390 q 139 401 148 412 q 157 423 165 426 q 173 429 196 430 q 218 430 249 429 q 272 456 292 476 q 313 496 332 505 q 341 509 354 505 q 368 501 379 492 q 390 484 395 474 q 400 465 394 459 l 359 422 l 411 417 q 434 446 456 468 q 478 489 498 499 q 507 503 520 499 q 534 495 544 487 q 555 479 560 469 q 566 459 560 453 q 536 429 517 407 q 529 405 537 404 q 545 403 548 403 z m 354 340 l 294 348 q 263 312 238 278 q 214 245 191 213 l 269 207 q 289 240 310 274 q 332 308 354 340 z"},",":{"x_min":0,"x_max":256,"ha":256,"o":"m 67 42 q 59 29 44 14 q 29 -1 12 -14 q -6 -28 -24 -39 q -43 -50 -59 -56 q -66 -58 -74 -58 q -82 -57 -88 -54 q -94 -51 -98 -46 q -101 -40 -98 -33 q -97 -29 -90 -27 q -84 -25 -75 -20 q -66 -16 -56 -8 q -47 1 -39 18 q -35 27 -39 38 q -43 48 -39 61 q -36 72 -28 83 q -21 94 -12 103 q -2 112 8 118 q 18 123 27 125 q 39 127 51 120 q 63 114 70 102 q 76 90 76 74 q 77 58 67 42 z"},"n":{"x_min":0,"x_max":486,"ha":486,"o":"m 486 251 q 495 261 504 266 q 513 271 518 271 q 523 271 523 266 q 523 261 516 251 q 481 204 448 160 q 415 116 382 80 q 350 45 317 20 q 284 -4 248 -11 q 230 -14 212 2 q 195 17 183 44 q 171 70 167 102 q 163 134 174 163 q 179 176 200 200 q 220 223 246 248 q 273 273 299 296 q 325 320 342 335 q 290 312 236 276 q 181 240 127 195 q 73 150 22 98 q -28 47 -73 -6 q -79 -13 -92 -12 q -104 -11 -116 -6 q -129 0 -139 10 q -149 20 -149 31 q -149 38 -131 66 q -113 94 -86 133 q -58 172 -25 218 q 8 263 38 305 q 69 347 93 382 q 117 417 126 434 q 130 441 144 438 q 157 435 171 426 q 185 418 194 406 q 203 393 198 380 q 189 359 163 328 q 137 298 106 264 q 74 231 43 197 q 12 163 -5 135 q 33 172 76 214 q 120 257 164 298 q 207 338 249 372 q 291 405 327 423 q 340 430 360 424 q 380 417 398 404 q 415 391 424 376 q 433 361 426 350 q 399 310 361 268 q 323 226 290 189 q 256 152 236 124 q 215 96 223 86 q 234 72 266 85 q 299 98 339 125 q 379 152 419 186 q 459 221 486 251 z"},"h":{"x_min":0,"x_max":493,"ha":493,"o":"m 493 251 q 502 261 511 266 q 520 271 525 271 q 530 271 530 266 q 530 260 523 251 q 488 204 453 159 q 418 114 383 77 q 348 40 312 14 q 277 -11 241 -18 q 223 -22 205 -6 q 187 10 175 37 q 163 64 160 98 q 157 132 170 165 q 175 178 192 198 q 209 219 230 240 q 252 262 274 282 q 297 303 314 318 q 277 300 224 262 q 170 225 114 180 q 57 135 5 88 q -47 40 -81 0 q -86 -6 -98 -4 q -109 -2 -120 6 q -132 13 -141 24 q -150 36 -150 47 q -150 53 -130 82 q -109 111 -75 156 q -41 200 3 256 q 47 311 93 368 q 139 426 184 482 q 228 539 264 584 q 300 630 324 662 q 348 693 352 702 q 356 709 370 704 q 383 700 396 690 q 410 679 418 666 q 427 652 420 640 q 403 610 368 566 q 332 523 288 474 q 244 424 196 372 q 147 320 105 274 q 63 228 31 192 q -1 155 -13 136 q 25 173 69 213 q 113 253 158 290 q 203 328 246 359 q 289 390 325 409 q 332 416 350 410 q 368 405 386 394 q 404 383 416 370 q 427 356 421 348 q 391 310 353 268 q 315 226 282 188 q 250 150 231 121 q 212 92 220 82 q 227 73 246 76 q 265 80 290 93 q 315 106 344 126 q 373 145 401 166 q 429 188 453 210 q 477 233 493 251 z"},"z":{"x_min":0,"x_max":498,"ha":498,"o":"m 435 342 q 429 340 400 321 q 371 302 330 274 q 290 246 244 212 q 197 178 155 146 q 113 115 82 89 q 50 63 39 51 q 84 81 126 101 q 168 121 193 125 q 213 127 225 113 q 237 99 254 82 q 266 70 280 71 q 293 72 306 77 q 328 87 354 108 q 379 128 404 152 q 430 177 454 204 q 478 230 498 251 q 507 261 516 266 q 525 271 530 270 q 536 270 536 265 q 536 260 528 251 q 508 229 480 192 q 453 155 422 116 q 391 76 359 40 q 327 4 297 -16 q 292 -19 280 -20 q 269 -22 256 -20 q 242 -19 230 -16 q 218 -12 212 -5 q 197 12 184 30 q 170 49 158 54 q 144 58 130 54 q 115 50 98 41 q 82 32 62 20 q 43 9 21 -2 q 15 -6 9 -8 q 3 -11 -3 -13 q -19 -18 -34 -10 q -48 -1 -58 12 q -67 25 -69 38 q -71 50 -62 54 q -34 66 10 100 q 55 134 105 177 q 155 220 206 266 q 256 313 298 349 q 276 338 254 327 q 231 316 210 308 q 189 300 171 296 q 153 293 139 298 q 126 302 122 314 q 117 327 116 344 q 95 320 72 295 q 48 270 31 251 q 23 243 15 239 q 7 235 2 236 q -4 236 -5 240 q -6 244 0 251 q 29 283 62 326 q 95 368 128 411 q 135 421 140 422 q 146 424 151 420 q 156 416 160 408 q 165 400 171 391 q 176 385 190 382 q 204 379 222 379 q 239 379 258 382 q 278 386 293 392 q 333 409 365 415 q 397 421 405 418 q 415 413 424 402 q 434 391 440 378 q 445 366 444 356 q 444 345 435 342 z"},"B":{"x_min":0,"x_max":763,"ha":763,"o":"m 702 720 q 737 709 762 687 q 787 665 802 640 q 817 614 822 590 q 827 566 821 551 q 813 532 794 515 q 776 498 752 483 q 728 468 700 456 q 673 443 648 434 q 624 424 604 418 q 585 411 577 408 q 609 412 634 394 q 658 377 673 350 q 688 323 692 294 q 696 264 689 243 q 675 205 634 160 q 592 115 532 75 q 473 35 402 8 q 332 -18 260 -18 q 209 -18 166 -6 q 122 7 90 24 q 58 42 38 61 q 18 80 14 93 q 8 112 14 139 q 19 166 30 192 q 42 219 56 240 q 71 261 82 267 q 96 275 121 276 q 146 277 182 274 q 209 311 243 354 q 277 398 312 442 q 348 485 382 526 q 415 567 441 599 q 401 584 362 567 q 324 550 290 533 q 257 516 230 500 q 203 483 187 468 q 179 460 168 469 q 157 478 148 494 q 140 509 136 526 q 132 542 138 551 q 152 572 193 595 q 234 618 289 639 q 344 660 406 678 q 469 696 527 708 q 585 719 632 723 q 679 727 702 720 z m 316 322 l 274 265 q 309 261 350 258 q 391 254 438 252 q 456 251 462 248 q 468 244 464 240 q 460 236 448 232 q 435 229 416 228 l 242 220 q 224 193 214 176 q 205 160 200 150 q 196 140 194 134 q 191 129 187 125 q 181 119 169 121 q 157 123 146 130 q 134 138 126 149 q 117 160 119 171 q 120 177 124 186 q 129 196 137 209 q 108 204 94 196 q 81 188 77 176 q 70 156 84 135 q 98 114 121 96 q 144 78 171 65 q 198 52 217 50 q 255 45 302 61 q 348 77 394 104 q 440 132 482 168 q 525 203 556 238 q 586 272 600 302 q 615 331 606 347 q 596 363 572 370 q 548 376 525 379 q 502 367 476 354 q 451 342 427 334 q 403 325 383 322 q 363 319 351 325 q 339 331 337 350 z m 393 421 q 415 426 442 428 q 468 429 494 427 q 522 439 554 456 q 585 474 615 494 q 645 514 672 536 q 699 557 718 576 q 737 596 745 612 q 753 627 746 637 q 737 649 718 654 q 699 658 673 658 q 647 657 615 651 q 583 645 548 635 q 539 609 498 554 q 456 500 393 421 z"},"K":{"x_min":0,"x_max":749,"ha":749,"o":"m 479 708 q 482 715 497 715 q 512 715 528 708 q 543 702 555 690 q 567 677 565 658 q 560 621 518 566 q 475 510 407 424 q 432 428 460 422 q 487 417 505 396 q 528 400 556 420 q 585 439 614 468 q 644 496 674 530 q 703 565 728 598 q 752 631 770 659 q 789 687 797 704 q 803 717 816 712 q 828 706 840 690 q 851 675 858 655 q 865 635 861 620 q 853 592 824 556 q 795 521 757 486 q 719 451 676 420 q 634 390 599 374 q 585 367 568 360 q 551 352 531 344 q 544 324 553 302 q 562 280 560 263 q 558 240 548 214 q 537 188 526 164 q 515 140 508 122 q 502 104 508 98 q 517 90 540 98 q 562 105 594 126 q 627 146 666 178 q 706 210 749 251 q 762 264 770 268 q 779 273 783 272 q 787 271 786 265 q 785 259 779 251 q 773 244 758 221 q 742 198 720 168 q 699 138 674 105 q 648 72 623 44 q 598 17 576 -1 q 554 -19 539 -19 q 524 -19 506 -2 q 488 14 473 38 q 458 63 448 90 q 438 118 438 141 q 438 158 443 182 q 448 207 454 232 q 461 258 466 282 q 472 306 473 322 q 438 310 408 304 q 379 297 365 305 q 359 308 353 318 q 347 328 343 342 l 338 335 q 290 272 250 214 q 210 157 180 112 q 151 66 132 36 q 114 6 108 0 q 102 -6 86 -8 q 70 -9 53 -4 q 36 0 23 11 q 10 22 11 40 q 11 46 31 76 q 51 107 84 154 q 116 200 158 258 q 199 316 242 376 q 286 435 328 493 q 369 551 402 597 q 376 580 359 574 q 342 569 334 570 q 326 570 326 574 q 327 579 336 584 q 346 590 364 602 q 381 615 402 632 q 422 649 442 668 q 462 688 479 708 z"},"R":{"x_min":0,"x_max":764,"ha":764,"o":"m 707 705 q 741 694 766 665 q 792 636 807 602 q 822 568 827 537 q 832 506 826 491 q 815 463 791 440 q 767 417 738 398 q 710 380 680 366 q 651 353 629 344 q 615 338 597 332 q 579 326 559 321 q 567 305 572 290 q 577 274 576 262 q 574 239 563 213 q 552 187 541 163 q 530 139 524 121 q 517 103 523 97 q 532 89 554 97 q 577 105 610 125 q 642 145 682 177 q 721 209 764 251 q 790 276 798 272 q 807 268 794 251 q 788 243 772 220 q 757 198 736 168 q 714 138 688 105 q 663 72 638 44 q 614 17 592 -1 q 570 -19 555 -19 q 539 -19 522 -2 q 504 14 489 38 q 474 62 464 90 q 454 117 454 140 q 454 155 458 176 q 462 198 468 221 q 473 244 478 266 q 484 288 487 306 q 452 300 422 298 q 393 297 381 304 q 375 307 370 316 q 364 326 360 339 l 347 322 q 299 259 258 204 q 217 148 186 105 q 155 62 135 34 q 115 6 109 0 q 103 -6 87 -8 q 71 -9 54 -4 q 36 0 23 10 q 10 21 11 39 q 11 46 38 82 q 66 119 108 172 q 151 226 203 290 q 255 353 304 414 q 354 474 395 525 q 436 576 457 604 q 417 594 379 582 q 341 569 308 555 q 275 541 249 526 q 223 512 207 498 q 199 490 188 499 q 177 508 168 524 q 160 539 156 556 q 152 572 158 581 q 172 602 212 622 q 251 641 304 657 q 358 673 418 685 q 479 697 536 704 q 592 711 638 712 q 684 712 707 705 z m 546 600 q 543 577 512 534 q 480 492 419 414 q 448 412 482 400 q 515 388 535 365 q 558 377 588 396 q 617 415 646 438 q 675 460 701 484 q 727 508 745 530 q 763 553 770 573 q 776 593 766 607 q 756 620 734 627 q 711 634 680 636 q 648 637 610 633 q 571 629 530 621 q 546 610 546 600 z"},"T":{"x_min":0,"x_max":432,"ha":432,"o":"m 874 716 q 883 714 886 700 q 888 686 886 671 q 884 656 877 644 q 870 632 860 634 q 837 635 812 632 q 788 628 766 623 q 743 618 724 612 q 706 605 696 600 q 689 596 685 598 q 681 600 682 606 q 684 612 692 620 q 700 629 717 638 q 679 638 645 637 q 611 636 588 635 q 568 634 548 633 q 528 632 508 630 q 523 620 523 611 q 522 597 507 574 q 492 550 466 514 q 440 479 404 431 q 367 383 324 320 q 281 257 244 198 q 206 140 177 94 q 148 48 130 18 q 111 -13 106 -19 q 101 -25 86 -23 q 70 -21 54 -12 q 37 -3 24 11 q 11 25 11 43 q 11 48 27 72 q 43 96 70 132 q 97 169 132 215 q 167 261 204 310 q 242 359 280 408 q 318 457 350 500 q 382 542 406 574 q 431 607 442 624 q 385 618 333 611 q 281 604 238 598 q 195 591 164 585 q 134 579 121 576 q 108 573 104 582 q 100 592 102 605 q 104 618 111 630 q 118 643 127 647 q 158 659 219 670 q 280 682 354 692 q 429 701 510 708 q 592 715 664 719 q 737 723 793 722 q 849 722 874 716 z"},"P":{"x_min":0,"x_max":705,"ha":705,"o":"m 732 720 q 766 709 792 680 q 817 651 832 617 q 847 583 852 552 q 857 521 851 506 q 843 487 824 466 q 804 446 778 426 q 751 406 721 387 q 691 368 662 352 q 634 335 610 322 q 585 310 571 303 q 540 288 504 270 q 469 253 436 240 q 403 226 376 220 q 349 214 336 221 q 328 225 325 236 q 322 246 323 258 q 324 270 328 282 q 332 293 338 301 q 342 306 356 311 q 370 316 390 319 q 409 322 432 323 q 455 324 477 322 q 507 336 545 360 q 583 384 622 413 q 660 442 695 473 q 730 504 754 532 q 779 561 790 584 q 801 608 791 622 q 781 635 758 640 q 736 646 704 644 q 673 643 635 636 q 597 628 555 617 q 544 597 522 568 q 501 540 472 502 q 443 465 407 420 q 371 374 331 322 q 283 259 241 201 q 199 143 167 97 q 135 51 114 21 q 94 -9 88 -15 q 82 -21 69 -16 q 56 -11 42 1 q 29 13 20 30 q 10 48 11 66 q 11 72 32 100 q 53 128 87 170 q 121 213 164 266 q 207 318 252 372 q 297 427 340 479 q 384 531 418 573 q 352 547 298 520 q 244 492 217 468 q 209 460 198 469 q 187 478 178 494 q 169 509 165 526 q 161 542 167 551 q 181 572 222 595 q 263 618 318 639 q 373 660 436 678 q 499 696 557 708 q 615 719 662 723 q 709 727 732 720 z"},"|":{"x_min":0,"x_max":500,"ha":500,"o":"m 434 689 q 438 696 446 694 q 455 693 464 684 q 473 676 480 661 q 487 646 489 627 q 489 623 472 594 q 455 565 427 519 q 399 473 362 415 q 326 357 288 295 q 249 233 211 172 q 173 111 142 60 q 111 8 89 -30 q 67 -67 61 -82 q 56 -94 48 -92 q 39 -89 30 -80 q 22 -70 16 -58 q 10 -45 10 -36 q 10 -28 28 6 q 45 41 74 92 q 104 143 141 206 q 178 270 218 335 q 257 400 294 462 q 332 525 362 574 q 393 623 412 654 q 432 686 434 689 z"},"t":{"x_min":0,"x_max":273,"ha":273,"o":"m 13 496 q 19 492 38 490 q 56 488 82 488 q 107 487 135 488 q 163 488 187 490 q 217 527 243 562 q 269 596 286 624 q 292 634 305 628 q 318 621 330 608 q 342 594 349 578 q 356 563 351 556 q 344 546 334 533 q 323 520 309 503 q 331 506 352 510 q 373 514 391 516 q 409 519 422 520 q 436 520 443 518 q 455 514 462 500 q 469 485 470 470 q 472 456 466 448 q 461 439 446 447 q 440 450 422 452 q 405 453 380 452 q 355 452 325 450 q 295 449 262 447 q 235 415 204 380 q 174 344 146 310 q 117 277 92 247 q 68 217 51 195 q 38 178 28 162 q 18 146 12 132 q 6 119 4 109 q 2 99 6 95 q 13 87 39 94 q 65 100 102 120 q 139 140 184 173 q 228 206 273 251 q 283 262 292 266 q 301 271 306 270 q 311 270 311 265 q 311 260 303 251 q 176 108 92 39 q 8 -30 -22 -30 q -48 -30 -56 0 q -65 30 -58 75 q -52 120 -34 173 q -15 226 13 273 q 27 296 64 340 q 100 385 144 438 q 118 436 95 434 q 72 433 54 432 q 35 432 22 432 q 10 433 6 435 q -6 440 -11 454 q -16 467 -15 479 q -14 491 -7 498 q 0 504 13 496 z"},"M":{"x_min":0,"x_max":969,"ha":969,"o":"m 116 -7 q 106 -15 84 -12 q 63 -9 44 0 q 24 8 14 20 q 4 32 17 43 q 54 75 105 125 q 156 175 213 234 q 270 294 330 358 q 389 421 444 480 q 499 539 546 589 q 593 639 624 670 q 637 684 649 695 q 661 706 672 712 q 679 719 698 714 q 716 708 734 697 q 752 686 764 672 q 775 659 769 651 q 749 626 715 582 q 681 539 642 488 q 602 437 562 384 q 522 331 491 286 q 460 241 442 210 q 425 179 431 172 q 437 164 470 186 q 504 207 554 247 q 603 287 662 340 q 722 392 780 446 q 838 500 889 550 q 940 599 973 632 q 994 656 1012 674 q 1031 693 1044 702 q 1052 708 1068 704 q 1083 700 1097 691 q 1111 682 1119 671 q 1127 660 1120 654 q 1106 641 1082 614 q 1057 586 1027 548 q 997 511 964 466 q 930 422 897 376 q 864 330 835 286 q 806 242 786 204 q 765 166 754 138 q 744 110 749 97 q 753 86 772 94 q 791 101 820 122 q 850 143 888 176 q 926 210 969 251 q 982 264 990 268 q 999 273 1003 272 q 1007 271 1006 265 q 1005 259 999 251 q 993 244 978 221 q 962 198 940 168 q 919 138 894 105 q 868 72 843 44 q 818 17 796 -1 q 774 -19 759 -19 q 744 -19 726 1 q 709 21 694 50 q 680 79 672 110 q 663 141 665 164 q 666 179 678 204 q 689 230 708 263 q 727 296 752 334 q 776 372 804 412 q 750 349 696 287 q 643 225 596 176 q 549 126 512 93 q 474 60 452 56 q 434 53 416 71 q 398 89 386 119 q 374 149 371 186 q 368 222 381 255 q 385 266 408 312 q 431 359 464 421 q 414 355 362 286 q 310 217 262 157 q 215 97 176 53 q 138 9 116 -7 z"},"g":{"x_min":0,"x_max":440,"ha":440,"o":"m 335 355 q 361 324 368 306 q 376 288 356 270 q 345 259 328 238 q 312 216 296 192 q 279 167 264 144 q 248 120 239 105 q 217 72 197 39 q 177 6 157 -26 q 197 12 242 56 q 287 99 328 138 q 368 177 398 208 q 429 239 440 251 q 447 259 455 263 q 463 267 468 266 q 474 266 475 262 q 476 258 470 251 q 462 242 438 216 q 413 191 379 156 q 345 121 304 80 q 264 38 224 -2 q 185 -43 150 -80 q 115 -117 90 -143 q 70 -180 58 -207 q 45 -234 41 -247 q 38 -256 26 -254 q 15 -252 2 -242 q -10 -233 -18 -219 q -27 -205 -24 -191 q -21 -180 -4 -152 q 12 -123 35 -86 q 58 -50 85 -10 q 112 31 136 66 q 160 101 178 126 q 195 152 200 159 q 173 134 143 102 q 113 71 85 44 q 57 16 33 -3 q 9 -22 -6 -22 q -25 -22 -38 -4 q -52 15 -59 42 q -66 68 -67 98 q -68 127 -61 150 q -55 172 -36 201 q -18 230 8 260 q 33 291 62 321 q 92 351 120 375 q 149 399 174 414 q 199 429 216 431 q 242 433 274 411 q 307 389 335 355 z m -26 81 q -22 66 -4 68 q 14 70 40 84 q 66 97 97 121 q 128 145 158 175 q 215 232 250 273 q 284 314 305 339 q 286 351 265 350 q 244 348 220 337 q 175 316 129 278 q 83 240 48 200 q 12 161 -9 128 q -30 94 -26 81 z"},"j":{"x_min":0,"x_max":216,"ha":216,"o":"m 116 407 q 123 412 136 406 q 148 400 159 390 q 170 379 176 367 q 181 355 174 348 q 163 337 142 311 q 122 285 100 254 q 77 223 56 192 q 34 161 21 142 q -10 96 -39 48 q -68 1 -93 -44 q -52 -6 -3 40 q 46 86 91 128 q 136 171 170 204 q 205 238 216 251 q 223 259 231 263 q 239 267 244 266 q 250 266 251 262 q 252 258 246 251 q 237 241 211 214 q 185 188 148 152 q 112 115 70 72 q 27 29 -14 -12 q -56 -54 -92 -91 q -128 -128 -151 -152 q -185 -222 -193 -247 q -196 -257 -208 -254 q -219 -252 -232 -242 q -244 -233 -252 -219 q -261 -205 -258 -191 q -256 -183 -242 -156 q -228 -128 -206 -88 q -183 -48 -154 1 q -125 50 -94 101 q -63 152 -32 202 q 0 252 28 294 q 57 336 80 366 q 102 396 116 407 z m 250 458 q 244 441 230 433 q 216 425 200 424 q 185 423 172 428 q 158 434 152 443 q 146 453 148 466 q 151 480 158 492 q 164 505 174 515 q 184 525 195 527 q 205 529 218 524 q 230 518 239 508 q 248 498 252 485 q 256 472 250 458 z"},"i":{"x_min":0,"x_max":264,"ha":264,"o":"m 130 408 q 137 415 148 410 q 160 405 170 394 q 179 382 184 369 q 188 356 182 347 q 167 328 146 304 q 125 279 103 252 q 81 226 61 200 q 41 173 28 149 q 14 125 9 106 q 4 86 13 74 q 18 66 34 72 q 50 77 72 91 q 94 105 120 126 q 146 146 172 168 q 199 190 223 212 q 247 234 264 251 q 274 261 283 266 q 292 270 298 270 q 303 270 302 265 q 302 260 294 251 q 279 235 257 209 q 235 183 208 152 q 181 122 152 90 q 123 59 96 33 q 68 7 44 -12 q 20 -30 3 -34 q -12 -38 -22 -25 q -32 -12 -37 10 q -42 33 -43 62 q -44 92 -41 122 q -38 151 -32 176 q -27 202 -19 218 q -7 242 10 267 q 28 292 48 316 q 68 340 89 364 q 110 387 130 408 z m 210 522 q 227 525 240 518 q 254 510 262 498 q 271 485 274 471 q 276 457 272 447 q 267 437 255 432 q 243 426 230 425 q 216 424 203 427 q 190 430 183 438 q 176 446 174 459 q 172 472 176 485 q 179 498 188 508 q 196 519 210 522 z"},"y":{"x_min":0,"x_max":418,"ha":418,"o":"m 329 386 q 337 394 349 390 q 361 386 371 376 q 381 367 386 356 q 392 344 386 338 q 358 307 322 258 q 286 210 242 142 q 215 100 190 59 q 164 18 142 -20 q 182 17 226 60 q 270 103 309 141 q 348 179 378 209 q 407 239 418 251 q 425 259 434 263 q 442 267 447 266 q 452 266 453 262 q 454 258 448 251 q 440 242 416 216 q 393 191 360 155 q 326 119 286 76 q 246 34 206 -8 q 166 -51 130 -90 q 93 -130 66 -159 q 40 -211 34 -232 q 31 -241 17 -241 q 3 -241 -12 -234 q -26 -228 -37 -216 q -48 -205 -45 -191 q -40 -170 8 -96 q 56 -21 143 106 q 156 124 166 140 q 177 157 188 172 q 166 151 138 118 q 109 85 80 54 q 52 22 26 -1 q 1 -24 -15 -24 q -35 -24 -48 -2 q -60 21 -64 53 q -69 85 -66 119 q -62 153 -50 177 q -42 193 -24 218 q -7 242 14 270 q 35 297 58 325 q 81 353 102 376 q 122 398 136 413 q 151 428 156 430 q 163 433 173 426 q 183 418 192 407 q 200 396 204 384 q 207 372 201 365 q 186 345 162 319 q 137 293 110 264 q 84 234 58 204 q 32 174 13 148 q -6 121 -14 100 q -23 79 -15 68 q -8 59 12 68 q 33 77 62 98 q 90 119 123 150 q 156 181 186 216 q 215 250 240 279 q 264 308 283 330 q 302 353 314 368 q 325 382 329 386 z"},"@":{"x_min":0,"x_max":765,"ha":765,"o":"m 689 405 q 695 392 700 370 q 704 348 700 318 q 695 287 677 248 q 659 210 620 164 q 542 72 485 29 q 428 -14 404 -14 q 390 -14 380 -2 q 370 11 365 32 q 360 53 361 81 q 362 109 370 140 q 338 108 314 76 q 289 44 267 18 q 245 -7 224 -22 q 203 -38 180 -38 q 161 -38 148 -15 q 136 8 129 40 q 122 73 122 107 q 121 141 127 164 q 131 179 149 204 q 167 229 193 257 q 219 285 250 314 q 280 343 310 367 q 339 391 364 408 q 389 424 403 427 q 413 429 427 427 q 441 425 455 418 q 469 411 482 398 q 494 386 501 368 q 510 373 524 364 q 537 354 548 340 q 558 325 562 310 q 566 294 556 286 q 549 280 534 267 q 519 254 502 237 q 484 220 466 200 q 448 181 434 163 q 420 145 412 130 q 405 115 408 107 q 415 87 456 106 q 498 126 558 198 q 588 234 607 260 q 626 287 636 308 q 645 330 647 348 q 649 366 646 384 q 642 408 614 430 q 587 451 550 466 q 512 480 471 486 q 430 491 399 482 q 360 471 317 442 q 274 414 232 376 q 190 338 152 294 q 114 249 84 206 q 55 164 38 127 q 21 90 21 66 q 21 38 35 10 q 49 -18 72 -41 q 95 -64 124 -80 q 154 -96 184 -102 q 214 -107 242 -99 q 270 -91 291 -66 q 301 -54 310 -58 q 320 -62 324 -76 q 329 -91 326 -112 q 324 -132 312 -153 q 304 -167 290 -178 q 277 -189 261 -198 q 245 -206 229 -210 q 213 -214 200 -212 q 163 -208 120 -176 q 78 -143 41 -94 q 4 -46 -20 12 q -44 70 -43 125 q -42 156 -26 197 q -9 238 19 282 q 47 326 84 370 q 122 414 164 452 q 207 489 253 516 q 299 543 343 553 q 390 563 444 553 q 498 543 548 520 q 597 498 636 467 q 674 436 689 405 z m 335 175 q 389 222 426 268 q 464 313 484 342 q 451 342 414 327 q 377 312 340 288 q 304 263 270 234 q 237 205 212 178 q 188 150 174 127 q 161 104 164 94 q 168 79 184 80 q 199 80 222 92 q 245 104 274 126 q 303 147 335 175 z"},".":{"x_min":0,"x_max":272,"ha":272,"o":"m 72 42 q 60 23 43 14 q 26 6 9 6 q -8 5 -22 12 q -35 18 -38 29 q -41 40 -35 56 q -29 71 -18 86 q -7 101 6 112 q 20 123 32 125 q 44 127 56 120 q 68 114 74 102 q 81 90 82 74 q 82 58 72 42 z"},"p":{"x_min":0,"x_max":395,"ha":395,"o":"m 502 365 q 514 368 522 368 q 531 367 532 363 q 534 359 527 352 q 520 344 502 335 q 487 327 466 318 q 446 309 424 303 q 401 297 379 296 q 357 294 339 300 q 331 276 312 243 q 294 210 268 174 q 243 139 213 105 q 183 71 152 44 q 122 16 92 0 q 61 -17 36 -17 q 4 -17 -19 4 q -42 25 -55 51 q -136 -70 -177 -142 q -218 -215 -234 -229 q -242 -236 -254 -228 q -266 -219 -276 -204 q -286 -190 -291 -174 q -296 -158 -290 -150 q -283 -143 -260 -115 q -238 -87 -206 -44 q -173 -2 -134 52 q -95 107 -55 167 q -15 227 12 268 q 39 309 57 338 q 75 366 86 386 q 97 406 106 425 q 111 435 122 432 q 132 429 141 419 q 150 409 154 396 q 159 382 152 370 l 134 340 q 168 374 201 398 q 234 422 258 423 q 282 424 303 407 q 324 390 335 368 q 339 363 349 358 q 359 352 378 350 q 398 348 428 350 q 458 353 502 365 z m 44 169 q 38 161 26 145 q 13 129 2 112 q -8 96 -11 82 q -14 67 0 63 q 17 58 45 74 q 73 91 104 120 q 134 148 164 184 q 194 220 215 254 q 236 287 244 313 q 252 339 239 348 q 227 356 204 344 q 182 333 154 310 q 127 286 97 256 q 67 225 40 195 q 45 189 47 182 q 49 175 44 169 z"},"X":{"x_min":0,"x_max":719,"ha":719,"o":"m 891 698 q 911 695 928 683 q 945 671 956 656 q 966 642 968 630 q 970 617 961 614 q 907 596 848 567 q 788 538 726 500 q 663 463 600 420 q 537 378 477 333 q 466 295 458 258 q 450 222 446 191 q 442 160 444 136 q 447 113 458 103 q 472 89 504 100 q 537 110 576 134 q 614 158 653 190 q 692 222 719 251 q 725 258 732 262 q 740 265 745 264 q 750 264 752 260 q 754 257 749 251 q 736 233 715 207 q 694 181 670 152 q 645 122 618 92 q 591 63 566 40 q 541 16 520 2 q 498 -13 485 -13 q 474 -13 454 4 q 435 22 414 50 q 393 77 376 111 q 358 145 351 178 q 347 195 348 216 q 348 237 350 260 q 303 214 256 166 q 208 117 169 76 q 130 35 102 6 q 75 -23 67 -30 q 57 -39 45 -30 q 33 -22 24 -6 q 15 10 12 28 q 10 46 20 56 q 28 63 60 92 q 91 122 139 166 q 187 209 248 262 q 308 316 374 372 q 387 418 402 463 q 418 508 431 544 q 444 579 450 602 q 457 626 452 630 q 443 637 415 623 q 387 609 352 582 q 317 555 280 520 q 242 486 215 452 q 203 438 192 431 q 182 424 174 422 q 167 421 164 426 q 161 430 165 439 q 173 459 190 487 q 207 515 229 545 q 251 575 276 604 q 300 634 324 657 q 348 680 369 694 q 390 709 405 709 q 421 709 442 696 q 464 682 484 662 q 504 641 520 616 q 535 592 538 569 q 539 564 533 553 q 527 542 518 527 q 508 512 496 493 q 484 474 473 454 q 537 505 600 551 q 662 597 718 631 q 773 665 818 684 q 862 702 891 698 z"},"*":{"x_min":0,"x_max":571,"ha":571,"o":"m 484 354 q 492 352 494 344 q 496 335 492 324 q 487 313 476 300 q 466 288 448 279 q 443 277 422 278 q 400 280 368 284 q 376 268 385 262 q 396 254 390 240 q 385 225 371 212 q 357 199 339 192 q 321 184 307 189 q 299 192 294 202 q 289 212 288 226 q 286 241 287 259 q 288 277 292 295 l 290 295 q 266 275 242 255 q 218 235 194 215 q 188 210 176 216 q 164 221 154 231 q 143 241 138 252 q 132 263 140 269 q 149 276 160 286 q 172 296 186 307 q 168 309 152 310 q 136 311 124 311 q 112 311 111 320 q 110 329 116 340 q 121 352 130 363 q 139 374 147 377 q 154 379 170 380 q 186 381 209 380 q 206 395 201 408 q 196 421 190 428 q 181 438 190 451 q 198 464 214 474 q 230 485 249 489 q 268 493 282 486 q 289 482 292 472 q 294 461 293 446 q 292 432 288 416 q 284 399 277 382 q 300 400 322 418 q 345 435 366 448 q 386 462 403 470 q 420 479 432 481 q 442 482 453 474 q 464 465 471 453 q 478 441 479 430 q 480 418 471 414 q 448 404 426 392 q 405 380 384 366 z"},"Y":{"x_min":0,"x_max":569,"ha":569,"o":"m 813 691 q 832 687 848 674 q 865 662 876 648 q 886 634 888 622 q 891 609 882 606 q 820 586 764 560 q 708 533 653 496 q 598 458 540 406 q 483 355 418 285 q 373 237 338 186 q 303 134 278 90 q 252 47 236 17 q 220 -13 215 -19 q 210 -25 194 -23 q 177 -21 160 -12 q 143 -3 129 11 q 115 25 115 43 q 115 47 130 69 q 144 91 168 124 q 191 157 222 197 q 253 237 286 278 q 238 290 213 311 q 188 332 184 350 q 180 368 186 392 q 192 417 204 444 q 215 472 230 500 q 244 528 256 552 q 267 577 274 595 q 281 613 278 620 q 274 631 252 620 q 229 609 197 586 q 165 563 129 532 q 93 501 62 473 q 34 447 20 443 q 5 439 13 458 q 22 478 38 504 q 54 531 74 559 q 94 587 117 614 q 140 641 162 662 q 184 683 204 696 q 225 709 241 709 q 257 709 282 696 q 306 682 328 661 q 351 640 366 614 q 382 589 382 565 q 382 549 365 520 q 348 491 328 460 q 307 429 290 402 q 272 374 270 362 q 268 347 282 332 q 295 318 321 310 q 426 424 510 500 q 594 575 656 618 q 719 662 758 678 q 798 694 813 691 z"},"c":{"x_min":0,"x_max":359,"ha":359,"o":"m 210 427 q 229 430 253 422 q 277 413 295 396 q 313 378 320 354 q 328 329 315 300 q 309 286 290 278 q 270 271 251 270 q 232 269 222 274 q 211 280 223 292 q 241 310 250 326 q 260 343 262 354 q 265 366 260 372 q 255 377 244 373 q 223 365 196 344 q 168 323 140 294 q 112 266 86 234 q 61 201 44 172 q 26 142 19 118 q 12 94 22 83 q 32 72 54 74 q 77 77 108 88 q 138 100 173 119 q 208 138 242 160 q 277 183 308 206 q 338 230 359 251 q 383 274 393 272 q 403 271 389 251 q 382 240 360 216 q 339 193 310 163 q 281 133 247 102 q 213 70 180 44 q 146 17 116 -1 q 87 -19 67 -20 q 42 -22 20 4 q -1 29 -14 65 q -28 101 -32 139 q -36 177 -26 201 q -12 236 16 274 q 44 313 78 346 q 111 378 146 400 q 181 423 210 427 z"},"!":{"x_min":0,"x_max":322,"ha":322,"o":"m 88 42 q 76 23 59 14 q 42 6 25 6 q 8 5 -6 12 q -19 18 -22 29 q -25 40 -19 56 q -13 71 -2 86 q 9 101 22 112 q 36 123 48 125 q 60 127 72 120 q 84 114 90 102 q 97 90 98 74 q 98 58 88 42 z m 145 205 q 139 194 132 195 q 124 196 118 203 q 111 210 107 220 q 103 231 103 239 q 104 252 108 266 q 113 281 126 305 q 138 329 162 368 q 186 406 225 468 q 266 532 286 568 q 307 604 316 623 q 325 642 328 649 q 330 656 335 662 q 340 668 353 666 q 366 664 380 656 q 393 647 404 633 q 415 619 415 601 q 415 596 398 570 q 381 545 354 507 q 328 469 296 424 q 263 379 233 337 q 203 295 179 260 q 155 224 145 205 z"},"/":{"x_min":0,"x_max":472,"ha":472,"o":"m 627 470 q 524 429 422 367 q 321 305 230 233 q 139 161 63 86 q -13 11 -65 -55 q -71 -63 -86 -60 q -101 -58 -114 -50 q -128 -41 -136 -30 q -143 -18 -135 -9 q -111 19 -72 58 q -32 98 18 143 q 67 188 124 236 q 180 284 238 330 q 296 375 352 416 q 408 457 457 488 q 506 519 544 538 q 583 556 606 557 q 618 557 627 546 q 636 534 640 518 q 643 503 640 488 q 638 474 627 470 z"},"[":{"x_min":0,"x_max":247,"ha":247,"o":"m 0 251 q 49 311 82 354 q 116 396 142 422 q 169 447 193 458 q 217 469 247 466 q 275 463 304 456 q 334 450 352 442 q 371 434 373 426 q 375 418 350 414 q 303 405 264 395 q 226 385 188 366 q 150 346 107 313 q 64 280 7 225 q -8 211 -14 220 q -19 228 0 251 z"},"6":{"x_min":0,"x_max":1372,"ha":1372,"o":"m 408 206 l 450 206 q 454 154 458 104 q 462 54 464 2 q 466 40 469 79 q 472 118 476 156 l 482 206 l 522 206 q 526 164 530 123 q 534 82 538 40 l 540 2 q 544 44 545 83 q 546 122 550 162 q 552 172 553 183 q 554 194 554 206 l 584 206 l 564 -38 l 518 -38 q 514 10 509 58 q 504 106 502 156 q 500 120 497 83 q 494 46 490 10 l 486 -38 l 440 -38 l 428 98 l 416 -38 l 372 -38 q 366 10 361 58 q 356 106 354 156 q 352 120 350 83 q 348 46 344 10 l 338 -38 l 292 -38 l 280 102 l 270 -38 l 224 -38 q 218 10 214 58 q 210 104 208 150 q 206 116 203 82 q 200 46 196 10 l 190 -38 l 146 -38 l 124 206 l 154 206 q 160 154 163 104 q 166 54 168 2 q 172 40 174 79 q 176 118 182 156 l 188 206 l 226 206 q 232 164 236 123 q 240 82 242 40 l 246 2 q 248 44 250 83 q 252 122 256 162 l 260 206 l 302 206 q 306 154 310 104 q 314 54 316 2 q 320 40 322 79 q 324 118 328 156 q 330 168 331 180 q 332 192 334 206 l 374 206 q 380 164 383 123 q 386 82 390 40 l 392 2 q 396 44 398 83 q 400 122 404 162 z m 1254 734 l 124 734 l 124 756 l 1254 756 z m 1254 -194 l 124 -194 l 124 -172 l 1254 -172 z m 790 -38 l 754 -38 l 754 206 l 813 206 q 824 206 834 202 q 850 194 855 174 q 860 154 860 138 l 860 119 q 860 108 858 97 q 856 86 851 77 q 846 68 836 64 l 866 -38 l 828 -38 l 806 58 l 790 58 z m 1032 16 l 1032 -38 l 1000 -38 l 1000 206 l 1032 206 q 1044 162 1056 120 q 1068 78 1078 34 q 1074 78 1074 120 l 1074 206 l 1106 206 l 1106 -38 l 1072 -38 q 1060 4 1048 45 q 1036 86 1026 128 q 1028 100 1029 72 q 1030 44 1032 16 z m 656 -38 l 622 -38 l 652 206 l 708 206 l 738 -38 l 704 -38 l 696 20 l 664 20 z m 1202 114 q 1204 126 1203 138 q 1202 150 1198 162 q 1194 170 1187 175 q 1180 180 1172 170 q 1166 162 1165 149 q 1164 136 1164 126 q 1162 114 1162 102 l 1162 56 q 1162 44 1164 34 q 1164 24 1166 11 q 1168 -2 1178 -6 q 1188 -12 1194 -5 q 1200 2 1202 15 q 1204 28 1204 40 l 1204 58 l 1180 58 l 1180 86 l 1238 86 l 1238 -38 l 1212 -38 l 1210 -4 q 1208 -16 1203 -27 q 1198 -38 1186 -40 q 1176 -44 1165 -39 q 1154 -34 1146 -26 q 1132 -8 1130 17 q 1128 42 1128 62 q 1126 88 1127 114 q 1128 140 1136 164 q 1138 176 1143 186 q 1148 196 1158 200 q 1168 206 1180 207 q 1192 208 1202 204 q 1214 200 1221 190 q 1228 180 1231 167 q 1234 154 1235 141 q 1236 128 1236 118 z m 274 330 q 278 338 285 344 q 292 350 302 352 q 310 354 318 350 q 326 346 334 350 l 316 316 q 314 312 311 305 q 308 298 312 296 q 316 292 322 298 q 328 304 334 312 q 336 316 339 321 q 342 326 344 332 l 352 350 q 360 350 368 354 l 348 316 l 343 306 q 340 300 344 296 q 348 292 354 298 q 360 304 364 310 q 368 320 374 330 q 380 340 384 348 q 388 358 392 367 q 396 376 402 384 q 410 382 416 388 l 388 332 q 386 328 384 323 q 382 318 380 312 q 378 308 376 300 q 374 292 382 296 q 386 298 391 303 q 396 308 400 314 q 402 322 408 330 q 412 338 419 344 q 426 350 436 352 q 444 354 452 350 q 460 346 470 350 q 464 342 460 333 q 456 324 452 316 q 450 312 447 305 q 444 298 446 296 q 450 294 453 296 q 456 298 460 301 q 464 304 467 309 q 470 314 472 316 l 472 318 l 504 384 q 512 384 518 388 q 512 376 507 364 q 502 352 494 342 q 502 348 511 353 q 520 358 528 346 q 534 336 528 323 q 522 310 516 302 q 522 302 527 305 q 532 308 536 312 l 545 330 q 550 340 556 348 l 574 384 q 580 382 586 388 l 574 360 q 568 346 560 332 q 558 328 555 323 q 552 318 550 312 q 548 310 547 307 q 546 304 546 301 q 546 298 547 296 q 548 294 554 296 q 558 298 564 304 q 570 310 572 316 q 576 330 584 338 q 588 342 594 346 q 600 350 608 352 q 616 354 622 353 q 628 352 630 342 q 630 334 626 327 q 622 320 614 316 q 606 312 597 309 q 588 306 582 306 q 582 300 586 297 q 590 294 596 294 q 608 294 619 301 q 630 308 636 318 l 640 316 q 632 302 617 294 q 602 286 586 288 q 570 292 570 306 q 566 302 562 297 q 558 292 554 290 q 546 286 539 289 q 532 292 534 302 l 534 304 q 532 302 530 302 q 526 298 518 298 l 510 298 q 508 298 507 296 q 506 294 504 294 q 494 288 483 289 q 472 290 466 300 q 458 292 448 288 q 440 286 436 291 q 432 296 436 304 q 430 298 422 291 q 414 284 404 290 q 398 294 398 304 q 392 296 384 290 q 376 286 369 289 q 362 292 362 300 q 356 292 352 290 q 344 286 336 289 q 328 292 330 300 q 326 296 322 293 q 318 290 314 288 q 304 286 301 291 q 298 296 302 304 l 300 304 q 296 298 287 291 q 278 284 270 290 q 264 292 263 297 q 262 302 264 306 q 258 302 254 300 q 250 298 240 298 q 236 298 235 297 q 234 296 230 294 q 226 292 219 290 q 212 288 207 289 q 202 290 199 294 q 196 298 198 306 q 200 318 206 329 q 212 340 218 350 q 222 350 230 354 q 228 346 225 339 q 222 332 218 324 q 216 322 213 317 q 210 312 208 307 q 206 302 206 298 q 206 294 210 294 q 220 292 228 302 q 236 312 238 316 q 244 324 247 334 q 250 344 250 352 q 258 354 259 347 q 260 340 258 334 q 254 318 240 304 q 248 302 255 307 q 262 312 266 318 z m 438 448 q 428 448 421 453 q 414 458 411 466 q 408 474 407 484 q 406 494 404 502 l 404 541 q 404 562 410 580 q 412 588 417 595 q 422 602 432 602 q 454 608 464 590 q 472 572 472 552 l 472 514 q 472 504 471 493 q 470 482 467 472 q 464 462 457 455 q 450 448 438 448 z m 992 448 q 982 448 975 453 q 968 458 965 466 q 962 474 961 484 q 960 494 960 502 q 958 520 958 541 q 958 562 964 580 q 966 588 972 595 q 978 602 986 602 q 1006 608 1018 590 q 1026 572 1026 552 l 1026 493 q 1026 482 1022 472 q 1018 462 1011 455 q 1004 448 992 448 z m 916 -38 l 882 -38 l 882 206 l 916 206 z m 274 450 l 254 450 l 254 602 l 291 602 q 298 602 304 600 q 314 594 317 583 q 320 572 320 562 q 320 552 318 535 q 316 518 304 514 l 322 450 l 298 450 l 286 510 q 282 510 280 511 q 278 512 274 512 z m 1056 484 l 1056 450 l 1036 450 l 1036 602 l 1054 602 q 1062 576 1070 549 q 1078 522 1084 496 q 1082 522 1082 549 l 1082 602 l 1102 602 l 1102 450 l 1080 450 q 1072 476 1065 502 q 1058 528 1052 554 q 1054 536 1054 519 q 1054 502 1056 484 z m 138 450 l 116 450 l 116 602 l 150 602 q 176 602 182 576 q 186 562 185 544 q 184 526 176 512 q 170 502 159 501 q 148 500 138 500 z m 502 484 l 502 450 l 482 450 l 482 602 l 500 602 q 508 576 516 549 q 524 522 530 496 q 528 522 527 549 q 526 576 526 602 l 546 602 l 546 450 l 526 450 q 518 476 511 502 q 504 528 498 554 q 500 536 500 519 q 500 502 502 484 z m 574 450 l 552 450 l 570 602 l 606 602 l 624 450 l 604 450 l 598 486 l 578 486 z m 750 448 q 736 448 728 457 q 720 466 718 478 q 716 490 716 504 l 716 602 l 738 602 l 738 485 q 738 480 740 476 q 742 470 747 468 q 752 466 756 470 q 762 476 762 484 l 762 498 q 764 510 763 522 q 762 534 762 546 l 762 602 l 784 602 l 784 530 q 784 518 785 504 q 786 490 783 478 q 780 466 773 457 q 766 448 750 448 z m 1140 350 q 1144 350 1152 354 q 1150 348 1147 343 q 1144 338 1140 334 l 1140 332 q 1146 340 1155 346 q 1164 352 1172 354 q 1184 354 1184 345 q 1184 336 1180 328 q 1178 324 1171 313 q 1164 302 1166 298 q 1168 294 1172 295 q 1176 296 1179 300 q 1182 304 1186 308 q 1190 312 1192 316 l 1210 354 l 1202 354 l 1206 360 l 1214 360 l 1222 376 q 1230 376 1236 380 l 1226 360 l 1240 360 l 1236 354 l 1222 354 l 1204 316 l 1199 306 q 1196 300 1198 296 q 1202 294 1206 296 q 1210 298 1214 303 q 1218 308 1221 312 q 1224 316 1226 318 l 1230 316 q 1224 308 1217 299 q 1210 290 1200 288 q 1190 286 1187 290 q 1184 294 1186 300 l 1181 295 q 1178 292 1174 290 q 1168 286 1160 288 q 1152 290 1154 300 q 1154 308 1160 316 q 1166 324 1168 330 q 1170 334 1172 340 q 1174 346 1168 346 q 1156 344 1147 332 q 1138 320 1134 312 q 1130 306 1127 300 q 1124 294 1122 288 l 1110 288 l 1115 301 q 1111 300 1106 298 l 1096 298 q 1092 292 1086 290 q 1080 288 1078 288 q 1068 284 1060 292 q 1052 298 1053 309 q 1054 320 1058 330 q 1064 338 1073 346 q 1082 354 1094 354 q 1104 354 1108 348 q 1112 342 1112 334 q 1112 326 1109 317 q 1106 308 1102 302 q 1114 302 1122 314 z m 354 520 q 330 536 328 560 q 326 570 330 582 q 334 594 344 600 q 354 604 366 603 q 378 602 386 594 q 396 586 396 575 l 396 554 l 374 554 l 374 567 q 374 574 370 578 q 360 586 355 579 q 350 572 348 564 q 348 554 356 547 q 364 540 372 534 q 380 528 386 520 q 392 512 394 504 q 396 492 394 482 q 392 472 387 464 q 382 456 373 451 q 364 446 352 448 q 332 452 330 468 q 328 484 328 500 l 348 500 l 348 480 q 350 474 356 470 q 362 466 368 470 q 372 474 373 483 q 374 492 372 498 q 370 506 365 511 q 360 516 354 520 z m 820 520 q 798 534 794 560 q 792 570 796 582 q 800 594 810 600 q 820 604 832 603 q 844 602 852 594 q 862 586 861 575 q 860 564 860 554 l 840 554 q 840 560 841 567 q 842 574 836 578 q 828 586 822 579 q 816 572 816 564 q 816 554 823 547 q 830 540 838 534 q 854 522 860 504 q 862 492 861 482 q 860 472 854 464 q 848 456 839 451 q 830 446 818 448 q 798 452 796 468 q 794 484 794 500 l 816 500 q 816 494 815 489 q 814 484 816 480 q 818 474 823 470 q 828 466 834 470 q 840 474 841 483 q 842 492 840 498 q 838 506 833 511 q 828 516 820 520 z m 248 450 l 192 450 l 192 602 l 248 602 l 248 582 l 214 582 l 214 538 l 242 538 l 242 516 l 214 516 l 214 470 l 248 470 z m 924 450 l 870 450 l 870 602 l 924 602 l 924 582 l 892 582 l 892 538 l 920 538 l 920 516 l 892 516 l 892 470 l 924 470 z m 178 322 l 136 320 q 130 312 126 303 q 122 294 122 284 q 114 282 112 286 q 110 290 112 297 q 114 304 117 311 q 120 318 122 320 l 108 318 l 102 326 l 126 326 q 136 344 151 361 q 166 378 186 388 q 192 392 202 393 q 212 394 214 382 q 216 378 214 372 q 212 366 210 362 q 204 352 200 342 q 196 332 190 324 q 188 316 182 306 q 176 296 178 288 q 170 286 168 290 q 166 294 168 300 q 170 306 173 312 z m 1212 602 l 1234 602 q 1228 580 1223 559 q 1218 538 1214 516 q 1208 500 1210 483 q 1212 466 1212 450 l 1188 450 q 1188 466 1189 483 q 1190 500 1186 516 q 1180 538 1175 559 q 1170 580 1166 602 l 1186 602 q 1190 582 1194 563 q 1198 544 1200 524 q 1200 544 1204 563 q 1208 582 1212 602 z m 850 290 q 842 294 844 301 q 846 308 848 314 l 866 350 q 872 350 880 354 l 866 326 q 864 322 858 312 q 852 302 856 298 q 862 292 871 300 q 880 308 882 312 q 886 316 888 319 q 890 322 892 328 l 904 352 q 908 352 916 354 q 912 344 908 335 q 904 326 898 316 l 893 306 q 890 300 894 296 q 898 292 904 298 q 910 304 914 310 q 918 320 924 330 q 930 340 934 348 q 938 358 942 367 q 946 376 952 384 q 958 382 966 388 l 928 312 q 926 308 925 300 q 924 292 932 296 q 940 300 946 310 q 950 320 956 330 q 962 340 966 348 q 970 358 974 367 q 978 376 984 384 q 990 382 998 388 l 960 312 q 960 310 959 307 l 957 301 q 956 298 957 296 q 958 294 964 296 q 970 298 975 305 q 980 312 984 318 l 988 316 q 982 308 977 301 q 972 294 964 290 q 958 286 951 289 q 944 292 944 300 q 938 294 932 290 q 926 286 919 289 q 912 292 912 300 q 908 296 903 292 q 898 288 892 288 q 884 288 883 294 q 882 299 883 305 q 877 297 868 291 q 858 284 850 290 z m 1164 450 l 1110 450 l 1110 602 l 1132 602 l 1132 468 l 1164 468 z m 684 450 l 630 450 l 630 602 l 652 602 l 652 468 l 684 468 z m 790 84 q 796 84 802 83 q 808 82 814 86 q 822 94 824 106 q 826 118 826 128 q 826 140 824 153 q 822 166 814 174 q 810 178 803 178 l 790 178 z m 724 350 q 730 350 738 354 q 736 348 733 343 q 730 338 726 334 l 726 332 q 732 340 741 346 q 750 352 758 354 q 770 354 770 345 q 770 336 766 328 q 764 324 756 313 q 748 302 752 298 q 754 294 758 296 q 762 298 766 303 q 770 308 774 312 q 778 316 778 318 l 782 316 q 778 310 773 303 q 768 296 760 290 q 752 286 745 288 q 738 290 740 300 q 740 308 746 316 q 752 324 754 330 q 756 332 757 335 q 758 338 758 340 q 758 342 757 344 q 756 346 752 346 q 742 344 733 332 q 724 320 720 312 l 708 288 l 696 288 l 700 296 q 698 294 696 293 q 694 292 692 290 q 684 286 677 289 q 670 292 672 302 q 672 310 676 317 q 680 324 684 332 q 690 340 692 350 q 702 350 708 354 l 688 316 l 683 306 q 680 300 684 296 q 686 294 690 296 q 694 298 698 303 q 702 308 705 312 q 708 316 710 318 z m 992 584 q 986 584 983 577 q 980 570 979 560 q 978 550 979 540 q 980 530 980 526 q 980 522 979 512 q 978 502 979 492 q 980 482 983 475 q 986 468 992 468 q 998 468 1001 475 q 1004 482 1005 492 q 1006 502 1006 512 l 1006 540 q 1006 550 1005 560 q 1004 570 1001 577 q 998 584 992 584 z m 438 584 q 432 584 429 577 q 426 570 425 560 q 424 550 425 540 q 426 530 426 526 q 426 522 425 512 q 424 502 425 492 q 426 482 429 475 q 432 468 438 468 q 444 468 447 475 q 450 482 451 492 q 452 502 451 512 q 450 522 450 526 q 450 530 451 540 q 452 550 451 560 q 450 570 447 577 q 444 584 438 584 z m 1240 602 l 1262 602 q 1262 574 1261 546 q 1260 518 1258 488 l 1244 488 q 1242 518 1241 545 q 1240 572 1240 602 z m 202 386 q 194 388 183 379 q 172 370 168 366 q 152 348 138 326 l 180 326 l 194 354 q 194 356 197 361 q 200 366 202 372 q 204 378 205 382 q 206 386 202 386 z m 1088 374 q 1084 370 1082 374 q 1080 378 1082 382 q 1070 386 1065 376 q 1060 366 1058 360 l 1072 360 l 1068 354 l 1054 354 l 1010 264 q 1006 264 996 262 l 1042 354 l 1028 354 l 1030 360 l 1046 360 q 1048 368 1053 376 q 1058 384 1068 386 q 1074 388 1084 384 q 1086 384 1089 380 q 1092 376 1088 374 z m 884 374 q 880 370 878 374 q 876 378 876 382 q 866 386 860 376 q 854 366 852 360 l 866 360 l 864 354 l 850 354 l 806 264 q 800 264 792 262 l 838 354 l 822 354 l 826 360 l 840 360 q 844 368 849 376 q 854 384 864 386 q 870 388 878 384 q 880 384 884 380 q 888 376 884 374 z m 672 94 q 670 84 669 74 q 668 64 666 54 l 694 54 q 692 82 687 112 q 682 141 680 171 q 678 151 676 133 q 674 114 672 94 z m 138 518 q 142 518 147 517 q 152 516 154 520 q 160 526 160 535 l 160 567 q 160 576 154 580 q 152 586 147 585 q 142 584 138 584 z m 1094 348 q 1086 348 1079 339 q 1072 330 1068 320 q 1064 310 1064 301 q 1064 292 1072 292 q 1078 292 1085 301 q 1092 310 1097 321 q 1102 332 1102 340 q 1102 348 1094 348 z m 512 346 q 504 346 499 341 q 494 336 489 328 q 484 320 481 312 q 478 304 474 298 q 486 290 496 298 q 506 306 510 314 q 512 316 515 321 q 518 326 519 332 q 520 338 519 342 q 518 346 512 346 z m 978 -18 q 978 -28 972 -33 q 966 -38 958 -38 q 950 -38 944 -33 q 938 -28 938 -18 q 938 -8 944 -3 q 950 2 958 2 q 966 2 972 -3 q 978 -8 978 -18 z m 612 -18 q 612 -28 606 -33 q 600 -38 592 -38 q 584 -38 578 -33 q 572 -28 572 -18 q 572 -8 578 -3 q 584 2 592 2 q 600 2 606 -3 q 612 -8 612 -18 z m 274 526 l 282 526 q 286 526 290 528 q 296 532 297 540 q 298 548 298 556 q 298 562 297 570 q 296 578 290 582 q 286 584 283 584 l 274 584 z m 280 294 q 288 294 294 300 q 300 306 304 314 q 308 322 312 331 q 316 340 318 346 q 308 350 298 342 q 288 334 284 326 q 282 324 279 319 q 276 314 275 309 q 274 304 274 299 q 274 294 280 294 z m 416 294 q 422 294 428 300 q 434 306 439 314 q 444 322 447 331 q 450 340 454 346 q 442 350 433 342 q 424 334 418 326 q 418 324 415 319 q 412 314 410 309 q 408 304 409 299 q 410 294 416 294 z m 588 324 q 586 320 585 317 q 584 314 582 310 q 594 310 607 320 q 620 330 620 342 q 620 350 615 349 q 610 348 604 344 q 600 340 596 335 q 592 330 588 324 z m 582 532 l 580 508 l 596 508 l 588 580 q 588 568 586 556 z m 1262 462 q 1262 456 1258 453 q 1254 450 1250 450 q 1246 450 1242 453 q 1238 456 1238 462 q 1238 468 1242 472 q 1246 476 1250 476 q 1254 476 1258 472 q 1262 468 1262 462 z m 1244 294 q 1240 286 1232 289 q 1224 292 1228 300 q 1232 308 1240 304 q 1248 300 1244 294 z m 376 370 q 374 364 366 366 q 358 368 360 376 q 362 380 365 381 q 368 382 372 381 q 376 380 378 377 q 380 374 376 370 z m 716 370 q 712 364 705 366 q 698 368 700 376 q 700 380 704 381 q 708 382 712 381 q 716 380 717 377 q 718 374 716 370 z m 1264 340 q 1262 336 1259 335 q 1256 334 1253 335 q 1250 336 1249 339 q 1248 342 1250 346 q 1254 352 1261 349 q 1268 346 1264 340 z"},"r":{"x_min":0,"x_max":362,"ha":362,"o":"m 362 251 q 371 261 380 266 q 389 271 394 270 q 400 270 400 265 q 400 260 392 251 q 376 234 354 208 q 331 181 305 152 q 279 122 251 92 q 223 62 197 38 q 171 13 149 -2 q 127 -18 111 -19 q 98 -20 86 -8 q 75 3 66 22 q 58 40 52 64 q 47 88 45 112 q 43 137 46 160 q 49 182 57 198 q 64 212 82 232 q 100 252 120 272 q 140 292 158 308 q 175 324 181 331 q 193 345 194 350 q 196 355 193 357 q 188 360 170 358 q 151 356 132 360 q 109 334 81 306 q 53 277 30 251 q 23 242 15 238 q 7 235 2 236 q -4 236 -5 240 q -6 244 0 251 q 20 274 47 308 q 74 343 100 382 q 93 397 93 414 q 93 430 98 445 q 102 460 111 472 q 120 483 131 486 q 143 490 152 484 q 162 479 169 470 q 176 460 180 450 q 185 440 185 434 q 186 422 180 411 q 174 400 160 386 q 166 381 188 385 q 210 389 239 394 q 247 396 258 389 q 268 382 276 371 q 283 360 286 348 q 290 337 284 330 q 261 301 226 266 q 190 232 159 200 q 128 167 110 139 q 92 111 105 94 q 115 81 144 91 q 174 101 212 125 q 249 149 290 182 q 330 216 362 251 z"},"2":{"x_min":0,"x_max":1372,"ha":1372,"o":"m 408 206 l 450 206 q 454 154 458 104 q 462 54 464 2 q 466 40 469 79 q 472 118 476 156 l 482 206 l 522 206 q 526 164 530 123 q 534 82 538 40 l 540 2 q 544 44 545 83 q 546 122 550 162 q 552 172 553 183 q 554 194 554 206 l 584 206 l 564 -38 l 518 -38 q 514 10 509 58 q 504 106 502 156 q 500 120 497 83 q 494 46 490 10 l 486 -38 l 440 -38 l 428 98 l 416 -38 l 372 -38 q 366 10 361 58 q 356 106 354 156 q 352 120 350 83 q 348 46 344 10 l 338 -38 l 292 -38 l 280 102 l 270 -38 l 224 -38 q 218 10 214 58 q 210 104 208 150 q 206 116 203 82 q 200 46 196 10 l 190 -38 l 146 -38 l 124 206 l 154 206 q 160 154 163 104 q 166 54 168 2 q 172 40 174 79 q 176 118 182 156 l 188 206 l 226 206 q 232 164 236 123 q 240 82 242 40 l 246 2 q 248 44 250 83 q 252 122 256 162 l 260 206 l 302 206 q 306 154 310 104 q 314 54 316 2 q 320 40 322 79 q 324 118 328 156 q 330 168 331 180 q 332 192 334 206 l 374 206 q 380 164 383 123 q 386 82 390 40 l 392 2 q 396 44 398 83 q 400 122 404 162 z m 1254 734 l 124 734 l 124 756 l 1254 756 z m 1254 -194 l 124 -194 l 124 -172 l 1254 -172 z m 790 -38 l 754 -38 l 754 206 l 813 206 q 824 206 834 202 q 850 194 855 174 q 860 154 860 138 l 860 119 q 860 108 858 97 q 856 86 851 77 q 846 68 836 64 l 866 -38 l 828 -38 l 806 58 l 790 58 z m 1032 16 l 1032 -38 l 1000 -38 l 1000 206 l 1032 206 q 1044 162 1056 120 q 1068 78 1078 34 q 1074 78 1074 120 l 1074 206 l 1106 206 l 1106 -38 l 1072 -38 q 1060 4 1048 45 q 1036 86 1026 128 q 1028 100 1029 72 q 1030 44 1032 16 z m 656 -38 l 622 -38 l 652 206 l 708 206 l 738 -38 l 704 -38 l 696 20 l 664 20 z m 1202 114 q 1204 126 1203 138 q 1202 150 1198 162 q 1194 170 1187 175 q 1180 180 1172 170 q 1166 162 1165 149 q 1164 136 1164 126 q 1162 114 1162 102 l 1162 56 q 1162 44 1164 34 q 1164 24 1166 11 q 1168 -2 1178 -6 q 1188 -12 1194 -5 q 1200 2 1202 15 q 1204 28 1204 40 l 1204 58 l 1180 58 l 1180 86 l 1238 86 l 1238 -38 l 1212 -38 l 1210 -4 q 1208 -16 1203 -27 q 1198 -38 1186 -40 q 1176 -44 1165 -39 q 1154 -34 1146 -26 q 1132 -8 1130 17 q 1128 42 1128 62 q 1126 88 1127 114 q 1128 140 1136 164 q 1138 176 1143 186 q 1148 196 1158 200 q 1168 206 1180 207 q 1192 208 1202 204 q 1214 200 1221 190 q 1228 180 1231 167 q 1234 154 1235 141 q 1236 128 1236 118 z m 274 330 q 278 338 285 344 q 292 350 302 352 q 310 354 318 350 q 326 346 334 350 l 316 316 q 314 312 311 305 q 308 298 312 296 q 316 292 322 298 q 328 304 334 312 q 336 316 339 321 q 342 326 344 332 l 352 350 q 360 350 368 354 l 348 316 l 343 306 q 340 300 344 296 q 348 292 354 298 q 360 304 364 310 q 368 320 374 330 q 380 340 384 348 q 388 358 392 367 q 396 376 402 384 q 410 382 416 388 l 388 332 q 386 328 384 323 q 382 318 380 312 q 378 308 376 300 q 374 292 382 296 q 386 298 391 303 q 396 308 400 314 q 402 322 408 330 q 412 338 419 344 q 426 350 436 352 q 444 354 452 350 q 460 346 470 350 q 464 342 460 333 q 456 324 452 316 q 450 312 447 305 q 444 298 446 296 q 450 294 453 296 q 456 298 460 301 q 464 304 467 309 q 470 314 472 316 l 472 318 l 504 384 q 512 384 518 388 q 512 376 507 364 q 502 352 494 342 q 502 348 511 353 q 520 358 528 346 q 534 336 528 323 q 522 310 516 302 q 522 302 527 305 q 532 308 536 312 l 545 330 q 550 340 556 348 l 574 384 q 580 382 586 388 l 574 360 q 568 346 560 332 q 558 328 555 323 q 552 318 550 312 q 548 310 547 307 q 546 304 546 301 q 546 298 547 296 q 548 294 554 296 q 558 298 564 304 q 570 310 572 316 q 576 330 584 338 q 588 342 594 346 q 600 350 608 352 q 616 354 622 353 q 628 352 630 342 q 630 334 626 327 q 622 320 614 316 q 606 312 597 309 q 588 306 582 306 q 582 300 586 297 q 590 294 596 294 q 608 294 619 301 q 630 308 636 318 l 640 316 q 632 302 617 294 q 602 286 586 288 q 570 292 570 306 q 566 302 562 297 q 558 292 554 290 q 546 286 539 289 q 532 292 534 302 l 534 304 q 532 302 530 302 q 526 298 518 298 l 510 298 q 508 298 507 296 q 506 294 504 294 q 494 288 483 289 q 472 290 466 300 q 458 292 448 288 q 440 286 436 291 q 432 296 436 304 q 430 298 422 291 q 414 284 404 290 q 398 294 398 304 q 392 296 384 290 q 376 286 369 289 q 362 292 362 300 q 356 292 352 290 q 344 286 336 289 q 328 292 330 300 q 326 296 322 293 q 318 290 314 288 q 304 286 301 291 q 298 296 302 304 l 300 304 q 296 298 287 291 q 278 284 270 290 q 264 292 263 297 q 262 302 264 306 q 258 302 254 300 q 250 298 240 298 q 236 298 235 297 q 234 296 230 294 q 226 292 219 290 q 212 288 207 289 q 202 290 199 294 q 196 298 198 306 q 200 318 206 329 q 212 340 218 350 q 222 350 230 354 q 228 346 225 339 q 222 332 218 324 q 216 322 213 317 q 210 312 208 307 q 206 302 206 298 q 206 294 210 294 q 220 292 228 302 q 236 312 238 316 q 244 324 247 334 q 250 344 250 352 q 258 354 259 347 q 260 340 258 334 q 254 318 240 304 q 248 302 255 307 q 262 312 266 318 z m 438 448 q 428 448 421 453 q 414 458 411 466 q 408 474 407 484 q 406 494 404 502 l 404 541 q 404 562 410 580 q 412 588 417 595 q 422 602 432 602 q 454 608 464 590 q 472 572 472 552 l 472 514 q 472 504 471 493 q 470 482 467 472 q 464 462 457 455 q 450 448 438 448 z m 992 448 q 982 448 975 453 q 968 458 965 466 q 962 474 961 484 q 960 494 960 502 q 958 520 958 541 q 958 562 964 580 q 966 588 972 595 q 978 602 986 602 q 1006 608 1018 590 q 1026 572 1026 552 l 1026 493 q 1026 482 1022 472 q 1018 462 1011 455 q 1004 448 992 448 z m 916 -38 l 882 -38 l 882 206 l 916 206 z m 274 450 l 254 450 l 254 602 l 291 602 q 298 602 304 600 q 314 594 317 583 q 320 572 320 562 q 320 552 318 535 q 316 518 304 514 l 322 450 l 298 450 l 286 510 q 282 510 280 511 q 278 512 274 512 z m 1056 484 l 1056 450 l 1036 450 l 1036 602 l 1054 602 q 1062 576 1070 549 q 1078 522 1084 496 q 1082 522 1082 549 l 1082 602 l 1102 602 l 1102 450 l 1080 450 q 1072 476 1065 502 q 1058 528 1052 554 q 1054 536 1054 519 q 1054 502 1056 484 z m 138 450 l 116 450 l 116 602 l 150 602 q 176 602 182 576 q 186 562 185 544 q 184 526 176 512 q 170 502 159 501 q 148 500 138 500 z m 502 484 l 502 450 l 482 450 l 482 602 l 500 602 q 508 576 516 549 q 524 522 530 496 q 528 522 527 549 q 526 576 526 602 l 546 602 l 546 450 l 526 450 q 518 476 511 502 q 504 528 498 554 q 500 536 500 519 q 500 502 502 484 z m 574 450 l 552 450 l 570 602 l 606 602 l 624 450 l 604 450 l 598 486 l 578 486 z m 750 448 q 736 448 728 457 q 720 466 718 478 q 716 490 716 504 l 716 602 l 738 602 l 738 485 q 738 480 740 476 q 742 470 747 468 q 752 466 756 470 q 762 476 762 484 l 762 498 q 764 510 763 522 q 762 534 762 546 l 762 602 l 784 602 l 784 530 q 784 518 785 504 q 786 490 783 478 q 780 466 773 457 q 766 448 750 448 z m 1140 350 q 1144 350 1152 354 q 1150 348 1147 343 q 1144 338 1140 334 l 1140 332 q 1146 340 1155 346 q 1164 352 1172 354 q 1184 354 1184 345 q 1184 336 1180 328 q 1178 324 1171 313 q 1164 302 1166 298 q 1168 294 1172 295 q 1176 296 1179 300 q 1182 304 1186 308 q 1190 312 1192 316 l 1210 354 l 1202 354 l 1206 360 l 1214 360 l 1222 376 q 1230 376 1236 380 l 1226 360 l 1240 360 l 1236 354 l 1222 354 l 1204 316 l 1199 306 q 1196 300 1198 296 q 1202 294 1206 296 q 1210 298 1214 303 q 1218 308 1221 312 q 1224 316 1226 318 l 1230 316 q 1224 308 1217 299 q 1210 290 1200 288 q 1190 286 1187 290 q 1184 294 1186 300 l 1181 295 q 1178 292 1174 290 q 1168 286 1160 288 q 1152 290 1154 300 q 1154 308 1160 316 q 1166 324 1168 330 q 1170 334 1172 340 q 1174 346 1168 346 q 1156 344 1147 332 q 1138 320 1134 312 q 1130 306 1127 300 q 1124 294 1122 288 l 1110 288 l 1115 301 q 1111 300 1106 298 l 1096 298 q 1092 292 1086 290 q 1080 288 1078 288 q 1068 284 1060 292 q 1052 298 1053 309 q 1054 320 1058 330 q 1064 338 1073 346 q 1082 354 1094 354 q 1104 354 1108 348 q 1112 342 1112 334 q 1112 326 1109 317 q 1106 308 1102 302 q 1114 302 1122 314 z m 354 520 q 330 536 328 560 q 326 570 330 582 q 334 594 344 600 q 354 604 366 603 q 378 602 386 594 q 396 586 396 575 l 396 554 l 374 554 l 374 567 q 374 574 370 578 q 360 586 355 579 q 350 572 348 564 q 348 554 356 547 q 364 540 372 534 q 380 528 386 520 q 392 512 394 504 q 396 492 394 482 q 392 472 387 464 q 382 456 373 451 q 364 446 352 448 q 332 452 330 468 q 328 484 328 500 l 348 500 l 348 480 q 350 474 356 470 q 362 466 368 470 q 372 474 373 483 q 374 492 372 498 q 370 506 365 511 q 360 516 354 520 z m 820 520 q 798 534 794 560 q 792 570 796 582 q 800 594 810 600 q 820 604 832 603 q 844 602 852 594 q 862 586 861 575 q 860 564 860 554 l 840 554 q 840 560 841 567 q 842 574 836 578 q 828 586 822 579 q 816 572 816 564 q 816 554 823 547 q 830 540 838 534 q 854 522 860 504 q 862 492 861 482 q 860 472 854 464 q 848 456 839 451 q 830 446 818 448 q 798 452 796 468 q 794 484 794 500 l 816 500 q 816 494 815 489 q 814 484 816 480 q 818 474 823 470 q 828 466 834 470 q 840 474 841 483 q 842 492 840 498 q 838 506 833 511 q 828 516 820 520 z m 248 450 l 192 450 l 192 602 l 248 602 l 248 582 l 214 582 l 214 538 l 242 538 l 242 516 l 214 516 l 214 470 l 248 470 z m 924 450 l 870 450 l 870 602 l 924 602 l 924 582 l 892 582 l 892 538 l 920 538 l 920 516 l 892 516 l 892 470 l 924 470 z m 178 322 l 136 320 q 130 312 126 303 q 122 294 122 284 q 114 282 112 286 q 110 290 112 297 q 114 304 117 311 q 120 318 122 320 l 108 318 l 102 326 l 126 326 q 136 344 151 361 q 166 378 186 388 q 192 392 202 393 q 212 394 214 382 q 216 378 214 372 q 212 366 210 362 q 204 352 200 342 q 196 332 190 324 q 188 316 182 306 q 176 296 178 288 q 170 286 168 290 q 166 294 168 300 q 170 306 173 312 z m 1212 602 l 1234 602 q 1228 580 1223 559 q 1218 538 1214 516 q 1208 500 1210 483 q 1212 466 1212 450 l 1188 450 q 1188 466 1189 483 q 1190 500 1186 516 q 1180 538 1175 559 q 1170 580 1166 602 l 1186 602 q 1190 582 1194 563 q 1198 544 1200 524 q 1200 544 1204 563 q 1208 582 1212 602 z m 850 290 q 842 294 844 301 q 846 308 848 314 l 866 350 q 872 350 880 354 l 866 326 q 864 322 858 312 q 852 302 856 298 q 862 292 871 300 q 880 308 882 312 q 886 316 888 319 q 890 322 892 328 l 904 352 q 908 352 916 354 q 912 344 908 335 q 904 326 898 316 l 893 306 q 890 300 894 296 q 898 292 904 298 q 910 304 914 310 q 918 320 924 330 q 930 340 934 348 q 938 358 942 367 q 946 376 952 384 q 958 382 966 388 l 928 312 q 926 308 925 300 q 924 292 932 296 q 940 300 946 310 q 950 320 956 330 q 962 340 966 348 q 970 358 974 367 q 978 376 984 384 q 990 382 998 388 l 960 312 q 960 310 959 307 l 957 301 q 956 298 957 296 q 958 294 964 296 q 970 298 975 305 q 980 312 984 318 l 988 316 q 982 308 977 301 q 972 294 964 290 q 958 286 951 289 q 944 292 944 300 q 938 294 932 290 q 926 286 919 289 q 912 292 912 300 q 908 296 903 292 q 898 288 892 288 q 884 288 883 294 q 882 299 883 305 q 877 297 868 291 q 858 284 850 290 z m 1164 450 l 1110 450 l 1110 602 l 1132 602 l 1132 468 l 1164 468 z m 684 450 l 630 450 l 630 602 l 652 602 l 652 468 l 684 468 z m 790 84 q 796 84 802 83 q 808 82 814 86 q 822 94 824 106 q 826 118 826 128 q 826 140 824 153 q 822 166 814 174 q 810 178 803 178 l 790 178 z m 724 350 q 730 350 738 354 q 736 348 733 343 q 730 338 726 334 l 726 332 q 732 340 741 346 q 750 352 758 354 q 770 354 770 345 q 770 336 766 328 q 764 324 756 313 q 748 302 752 298 q 754 294 758 296 q 762 298 766 303 q 770 308 774 312 q 778 316 778 318 l 782 316 q 778 310 773 303 q 768 296 760 290 q 752 286 745 288 q 738 290 740 300 q 740 308 746 316 q 752 324 754 330 q 756 332 757 335 q 758 338 758 340 q 758 342 757 344 q 756 346 752 346 q 742 344 733 332 q 724 320 720 312 l 708 288 l 696 288 l 700 296 q 698 294 696 293 q 694 292 692 290 q 684 286 677 289 q 670 292 672 302 q 672 310 676 317 q 680 324 684 332 q 690 340 692 350 q 702 350 708 354 l 688 316 l 683 306 q 680 300 684 296 q 686 294 690 296 q 694 298 698 303 q 702 308 705 312 q 708 316 710 318 z m 992 584 q 986 584 983 577 q 980 570 979 560 q 978 550 979 540 q 980 530 980 526 q 980 522 979 512 q 978 502 979 492 q 980 482 983 475 q 986 468 992 468 q 998 468 1001 475 q 1004 482 1005 492 q 1006 502 1006 512 l 1006 540 q 1006 550 1005 560 q 1004 570 1001 577 q 998 584 992 584 z m 438 584 q 432 584 429 577 q 426 570 425 560 q 424 550 425 540 q 426 530 426 526 q 426 522 425 512 q 424 502 425 492 q 426 482 429 475 q 432 468 438 468 q 444 468 447 475 q 450 482 451 492 q 452 502 451 512 q 450 522 450 526 q 450 530 451 540 q 452 550 451 560 q 450 570 447 577 q 444 584 438 584 z m 1240 602 l 1262 602 q 1262 574 1261 546 q 1260 518 1258 488 l 1244 488 q 1242 518 1241 545 q 1240 572 1240 602 z m 202 386 q 194 388 183 379 q 172 370 168 366 q 152 348 138 326 l 180 326 l 194 354 q 194 356 197 361 q 200 366 202 372 q 204 378 205 382 q 206 386 202 386 z m 1088 374 q 1084 370 1082 374 q 1080 378 1082 382 q 1070 386 1065 376 q 1060 366 1058 360 l 1072 360 l 1068 354 l 1054 354 l 1010 264 q 1006 264 996 262 l 1042 354 l 1028 354 l 1030 360 l 1046 360 q 1048 368 1053 376 q 1058 384 1068 386 q 1074 388 1084 384 q 1086 384 1089 380 q 1092 376 1088 374 z m 884 374 q 880 370 878 374 q 876 378 876 382 q 866 386 860 376 q 854 366 852 360 l 866 360 l 864 354 l 850 354 l 806 264 q 800 264 792 262 l 838 354 l 822 354 l 826 360 l 840 360 q 844 368 849 376 q 854 384 864 386 q 870 388 878 384 q 880 384 884 380 q 888 376 884 374 z m 672 94 q 670 84 669 74 q 668 64 666 54 l 694 54 q 692 82 687 112 q 682 141 680 171 q 678 151 676 133 q 674 114 672 94 z m 138 518 q 142 518 147 517 q 152 516 154 520 q 160 526 160 535 l 160 567 q 160 576 154 580 q 152 586 147 585 q 142 584 138 584 z m 1094 348 q 1086 348 1079 339 q 1072 330 1068 320 q 1064 310 1064 301 q 1064 292 1072 292 q 1078 292 1085 301 q 1092 310 1097 321 q 1102 332 1102 340 q 1102 348 1094 348 z m 512 346 q 504 346 499 341 q 494 336 489 328 q 484 320 481 312 q 478 304 474 298 q 486 290 496 298 q 506 306 510 314 q 512 316 515 321 q 518 326 519 332 q 520 338 519 342 q 518 346 512 346 z m 978 -18 q 978 -28 972 -33 q 966 -38 958 -38 q 950 -38 944 -33 q 938 -28 938 -18 q 938 -8 944 -3 q 950 2 958 2 q 966 2 972 -3 q 978 -8 978 -18 z m 612 -18 q 612 -28 606 -33 q 600 -38 592 -38 q 584 -38 578 -33 q 572 -28 572 -18 q 572 -8 578 -3 q 584 2 592 2 q 600 2 606 -3 q 612 -8 612 -18 z m 274 526 l 282 526 q 286 526 290 528 q 296 532 297 540 q 298 548 298 556 q 298 562 297 570 q 296 578 290 582 q 286 584 283 584 l 274 584 z m 280 294 q 288 294 294 300 q 300 306 304 314 q 308 322 312 331 q 316 340 318 346 q 308 350 298 342 q 288 334 284 326 q 282 324 279 319 q 276 314 275 309 q 274 304 274 299 q 274 294 280 294 z m 416 294 q 422 294 428 300 q 434 306 439 314 q 444 322 447 331 q 450 340 454 346 q 442 350 433 342 q 424 334 418 326 q 418 324 415 319 q 412 314 410 309 q 408 304 409 299 q 410 294 416 294 z m 588 324 q 586 320 585 317 q 584 314 582 310 q 594 310 607 320 q 620 330 620 342 q 620 350 615 349 q 610 348 604 344 q 600 340 596 335 q 592 330 588 324 z m 582 532 l 580 508 l 596 508 l 588 580 q 588 568 586 556 z m 1262 462 q 1262 456 1258 453 q 1254 450 1250 450 q 1246 450 1242 453 q 1238 456 1238 462 q 1238 468 1242 472 q 1246 476 1250 476 q 1254 476 1258 472 q 1262 468 1262 462 z m 1244 294 q 1240 286 1232 289 q 1224 292 1228 300 q 1232 308 1240 304 q 1248 300 1244 294 z m 376 370 q 374 364 366 366 q 358 368 360 376 q 362 380 365 381 q 368 382 372 381 q 376 380 378 377 q 380 374 376 370 z m 716 370 q 712 364 705 366 q 698 368 700 376 q 700 380 704 381 q 708 382 712 381 q 716 380 717 377 q 718 374 716 370 z m 1264 340 q 1262 336 1259 335 q 1256 334 1253 335 q 1250 336 1249 339 q 1248 342 1250 346 q 1254 352 1261 349 q 1268 346 1264 340 z"},"{":{"x_min":0,"x_max":153,"ha":153,"o":"m 0 251 q 35 288 56 332 q 77 375 80 418 q 83 461 66 502 q 49 542 7 574 q -24 597 -73 604 q -122 612 -180 610 q -239 608 -304 600 q -368 592 -430 585 q -491 578 -545 576 q -599 573 -637 581 q -663 586 -686 600 q -710 614 -729 630 q -748 647 -760 664 q -773 681 -776 693 q -780 705 -773 709 q -766 713 -746 704 q -700 683 -640 679 q -579 675 -510 678 q -442 680 -369 684 q -296 688 -226 686 q -156 683 -92 668 q -29 652 22 616 q 73 579 94 529 q 114 479 110 426 q 105 372 78 320 q 50 268 7 227 q -8 213 -14 221 q -20 229 0 251 z"},"9":{"x_min":0,"x_max":1372,"ha":1372,"o":"m 408 206 l 450 206 q 454 154 458 104 q 462 54 464 2 q 466 40 469 79 q 472 118 476 156 l 482 206 l 522 206 q 526 164 530 123 q 534 82 538 40 l 540 2 q 544 44 545 83 q 546 122 550 162 q 552 172 553 183 q 554 194 554 206 l 584 206 l 564 -38 l 518 -38 q 514 10 509 58 q 504 106 502 156 q 500 120 497 83 q 494 46 490 10 l 486 -38 l 440 -38 l 428 98 l 416 -38 l 372 -38 q 366 10 361 58 q 356 106 354 156 q 352 120 350 83 q 348 46 344 10 l 338 -38 l 292 -38 l 280 102 l 270 -38 l 224 -38 q 218 10 214 58 q 210 104 208 150 q 206 116 203 82 q 200 46 196 10 l 190 -38 l 146 -38 l 124 206 l 154 206 q 160 154 163 104 q 166 54 168 2 q 172 40 174 79 q 176 118 182 156 l 188 206 l 226 206 q 232 164 236 123 q 240 82 242 40 l 246 2 q 248 44 250 83 q 252 122 256 162 l 260 206 l 302 206 q 306 154 310 104 q 314 54 316 2 q 320 40 322 79 q 324 118 328 156 q 330 168 331 180 q 332 192 334 206 l 374 206 q 380 164 383 123 q 386 82 390 40 l 392 2 q 396 44 398 83 q 400 122 404 162 z m 1254 734 l 124 734 l 124 756 l 1254 756 z m 1254 -194 l 124 -194 l 124 -172 l 1254 -172 z m 790 -38 l 754 -38 l 754 206 l 813 206 q 824 206 834 202 q 850 194 855 174 q 860 154 860 138 l 860 119 q 860 108 858 97 q 856 86 851 77 q 846 68 836 64 l 866 -38 l 828 -38 l 806 58 l 790 58 z m 1032 16 l 1032 -38 l 1000 -38 l 1000 206 l 1032 206 q 1044 162 1056 120 q 1068 78 1078 34 q 1074 78 1074 120 l 1074 206 l 1106 206 l 1106 -38 l 1072 -38 q 1060 4 1048 45 q 1036 86 1026 128 q 1028 100 1029 72 q 1030 44 1032 16 z m 656 -38 l 622 -38 l 652 206 l 708 206 l 738 -38 l 704 -38 l 696 20 l 664 20 z m 1202 114 q 1204 126 1203 138 q 1202 150 1198 162 q 1194 170 1187 175 q 1180 180 1172 170 q 1166 162 1165 149 q 1164 136 1164 126 q 1162 114 1162 102 l 1162 56 q 1162 44 1164 34 q 1164 24 1166 11 q 1168 -2 1178 -6 q 1188 -12 1194 -5 q 1200 2 1202 15 q 1204 28 1204 40 l 1204 58 l 1180 58 l 1180 86 l 1238 86 l 1238 -38 l 1212 -38 l 1210 -4 q 1208 -16 1203 -27 q 1198 -38 1186 -40 q 1176 -44 1165 -39 q 1154 -34 1146 -26 q 1132 -8 1130 17 q 1128 42 1128 62 q 1126 88 1127 114 q 1128 140 1136 164 q 1138 176 1143 186 q 1148 196 1158 200 q 1168 206 1180 207 q 1192 208 1202 204 q 1214 200 1221 190 q 1228 180 1231 167 q 1234 154 1235 141 q 1236 128 1236 118 z m 274 330 q 278 338 285 344 q 292 350 302 352 q 310 354 318 350 q 326 346 334 350 l 316 316 q 314 312 311 305 q 308 298 312 296 q 316 292 322 298 q 328 304 334 312 q 336 316 339 321 q 342 326 344 332 l 352 350 q 360 350 368 354 l 348 316 l 343 306 q 340 300 344 296 q 348 292 354 298 q 360 304 364 310 q 368 320 374 330 q 380 340 384 348 q 388 358 392 367 q 396 376 402 384 q 410 382 416 388 l 388 332 q 386 328 384 323 q 382 318 380 312 q 378 308 376 300 q 374 292 382 296 q 386 298 391 303 q 396 308 400 314 q 402 322 408 330 q 412 338 419 344 q 426 350 436 352 q 444 354 452 350 q 460 346 470 350 q 464 342 460 333 q 456 324 452 316 q 450 312 447 305 q 444 298 446 296 q 450 294 453 296 q 456 298 460 301 q 464 304 467 309 q 470 314 472 316 l 472 318 l 504 384 q 512 384 518 388 q 512 376 507 364 q 502 352 494 342 q 502 348 511 353 q 520 358 528 346 q 534 336 528 323 q 522 310 516 302 q 522 302 527 305 q 532 308 536 312 l 545 330 q 550 340 556 348 l 574 384 q 580 382 586 388 l 574 360 q 568 346 560 332 q 558 328 555 323 q 552 318 550 312 q 548 310 547 307 q 546 304 546 301 q 546 298 547 296 q 548 294 554 296 q 558 298 564 304 q 570 310 572 316 q 576 330 584 338 q 588 342 594 346 q 600 350 608 352 q 616 354 622 353 q 628 352 630 342 q 630 334 626 327 q 622 320 614 316 q 606 312 597 309 q 588 306 582 306 q 582 300 586 297 q 590 294 596 294 q 608 294 619 301 q 630 308 636 318 l 640 316 q 632 302 617 294 q 602 286 586 288 q 570 292 570 306 q 566 302 562 297 q 558 292 554 290 q 546 286 539 289 q 532 292 534 302 l 534 304 q 532 302 530 302 q 526 298 518 298 l 510 298 q 508 298 507 296 q 506 294 504 294 q 494 288 483 289 q 472 290 466 300 q 458 292 448 288 q 440 286 436 291 q 432 296 436 304 q 430 298 422 291 q 414 284 404 290 q 398 294 398 304 q 392 296 384 290 q 376 286 369 289 q 362 292 362 300 q 356 292 352 290 q 344 286 336 289 q 328 292 330 300 q 326 296 322 293 q 318 290 314 288 q 304 286 301 291 q 298 296 302 304 l 300 304 q 296 298 287 291 q 278 284 270 290 q 264 292 263 297 q 262 302 264 306 q 258 302 254 300 q 250 298 240 298 q 236 298 235 297 q 234 296 230 294 q 226 292 219 290 q 212 288 207 289 q 202 290 199 294 q 196 298 198 306 q 200 318 206 329 q 212 340 218 350 q 222 350 230 354 q 228 346 225 339 q 222 332 218 324 q 216 322 213 317 q 210 312 208 307 q 206 302 206 298 q 206 294 210 294 q 220 292 228 302 q 236 312 238 316 q 244 324 247 334 q 250 344 250 352 q 258 354 259 347 q 260 340 258 334 q 254 318 240 304 q 248 302 255 307 q 262 312 266 318 z m 438 448 q 428 448 421 453 q 414 458 411 466 q 408 474 407 484 q 406 494 404 502 l 404 541 q 404 562 410 580 q 412 588 417 595 q 422 602 432 602 q 454 608 464 590 q 472 572 472 552 l 472 514 q 472 504 471 493 q 470 482 467 472 q 464 462 457 455 q 450 448 438 448 z m 992 448 q 982 448 975 453 q 968 458 965 466 q 962 474 961 484 q 960 494 960 502 q 958 520 958 541 q 958 562 964 580 q 966 588 972 595 q 978 602 986 602 q 1006 608 1018 590 q 1026 572 1026 552 l 1026 493 q 1026 482 1022 472 q 1018 462 1011 455 q 1004 448 992 448 z m 916 -38 l 882 -38 l 882 206 l 916 206 z m 274 450 l 254 450 l 254 602 l 291 602 q 298 602 304 600 q 314 594 317 583 q 320 572 320 562 q 320 552 318 535 q 316 518 304 514 l 322 450 l 298 450 l 286 510 q 282 510 280 511 q 278 512 274 512 z m 1056 484 l 1056 450 l 1036 450 l 1036 602 l 1054 602 q 1062 576 1070 549 q 1078 522 1084 496 q 1082 522 1082 549 l 1082 602 l 1102 602 l 1102 450 l 1080 450 q 1072 476 1065 502 q 1058 528 1052 554 q 1054 536 1054 519 q 1054 502 1056 484 z m 138 450 l 116 450 l 116 602 l 150 602 q 176 602 182 576 q 186 562 185 544 q 184 526 176 512 q 170 502 159 501 q 148 500 138 500 z m 502 484 l 502 450 l 482 450 l 482 602 l 500 602 q 508 576 516 549 q 524 522 530 496 q 528 522 527 549 q 526 576 526 602 l 546 602 l 546 450 l 526 450 q 518 476 511 502 q 504 528 498 554 q 500 536 500 519 q 500 502 502 484 z m 574 450 l 552 450 l 570 602 l 606 602 l 624 450 l 604 450 l 598 486 l 578 486 z m 750 448 q 736 448 728 457 q 720 466 718 478 q 716 490 716 504 l 716 602 l 738 602 l 738 485 q 738 480 740 476 q 742 470 747 468 q 752 466 756 470 q 762 476 762 484 l 762 498 q 764 510 763 522 q 762 534 762 546 l 762 602 l 784 602 l 784 530 q 784 518 785 504 q 786 490 783 478 q 780 466 773 457 q 766 448 750 448 z m 1140 350 q 1144 350 1152 354 q 1150 348 1147 343 q 1144 338 1140 334 l 1140 332 q 1146 340 1155 346 q 1164 352 1172 354 q 1184 354 1184 345 q 1184 336 1180 328 q 1178 324 1171 313 q 1164 302 1166 298 q 1168 294 1172 295 q 1176 296 1179 300 q 1182 304 1186 308 q 1190 312 1192 316 l 1210 354 l 1202 354 l 1206 360 l 1214 360 l 1222 376 q 1230 376 1236 380 l 1226 360 l 1240 360 l 1236 354 l 1222 354 l 1204 316 l 1199 306 q 1196 300 1198 296 q 1202 294 1206 296 q 1210 298 1214 303 q 1218 308 1221 312 q 1224 316 1226 318 l 1230 316 q 1224 308 1217 299 q 1210 290 1200 288 q 1190 286 1187 290 q 1184 294 1186 300 l 1181 295 q 1178 292 1174 290 q 1168 286 1160 288 q 1152 290 1154 300 q 1154 308 1160 316 q 1166 324 1168 330 q 1170 334 1172 340 q 1174 346 1168 346 q 1156 344 1147 332 q 1138 320 1134 312 q 1130 306 1127 300 q 1124 294 1122 288 l 1110 288 l 1115 301 q 1111 300 1106 298 l 1096 298 q 1092 292 1086 290 q 1080 288 1078 288 q 1068 284 1060 292 q 1052 298 1053 309 q 1054 320 1058 330 q 1064 338 1073 346 q 1082 354 1094 354 q 1104 354 1108 348 q 1112 342 1112 334 q 1112 326 1109 317 q 1106 308 1102 302 q 1114 302 1122 314 z m 354 520 q 330 536 328 560 q 326 570 330 582 q 334 594 344 600 q 354 604 366 603 q 378 602 386 594 q 396 586 396 575 l 396 554 l 374 554 l 374 567 q 374 574 370 578 q 360 586 355 579 q 350 572 348 564 q 348 554 356 547 q 364 540 372 534 q 380 528 386 520 q 392 512 394 504 q 396 492 394 482 q 392 472 387 464 q 382 456 373 451 q 364 446 352 448 q 332 452 330 468 q 328 484 328 500 l 348 500 l 348 480 q 350 474 356 470 q 362 466 368 470 q 372 474 373 483 q 374 492 372 498 q 370 506 365 511 q 360 516 354 520 z m 820 520 q 798 534 794 560 q 792 570 796 582 q 800 594 810 600 q 820 604 832 603 q 844 602 852 594 q 862 586 861 575 q 860 564 860 554 l 840 554 q 840 560 841 567 q 842 574 836 578 q 828 586 822 579 q 816 572 816 564 q 816 554 823 547 q 830 540 838 534 q 854 522 860 504 q 862 492 861 482 q 860 472 854 464 q 848 456 839 451 q 830 446 818 448 q 798 452 796 468 q 794 484 794 500 l 816 500 q 816 494 815 489 q 814 484 816 480 q 818 474 823 470 q 828 466 834 470 q 840 474 841 483 q 842 492 840 498 q 838 506 833 511 q 828 516 820 520 z m 248 450 l 192 450 l 192 602 l 248 602 l 248 582 l 214 582 l 214 538 l 242 538 l 242 516 l 214 516 l 214 470 l 248 470 z m 924 450 l 870 450 l 870 602 l 924 602 l 924 582 l 892 582 l 892 538 l 920 538 l 920 516 l 892 516 l 892 470 l 924 470 z m 178 322 l 136 320 q 130 312 126 303 q 122 294 122 284 q 114 282 112 286 q 110 290 112 297 q 114 304 117 311 q 120 318 122 320 l 108 318 l 102 326 l 126 326 q 136 344 151 361 q 166 378 186 388 q 192 392 202 393 q 212 394 214 382 q 216 378 214 372 q 212 366 210 362 q 204 352 200 342 q 196 332 190 324 q 188 316 182 306 q 176 296 178 288 q 170 286 168 290 q 166 294 168 300 q 170 306 173 312 z m 1212 602 l 1234 602 q 1228 580 1223 559 q 1218 538 1214 516 q 1208 500 1210 483 q 1212 466 1212 450 l 1188 450 q 1188 466 1189 483 q 1190 500 1186 516 q 1180 538 1175 559 q 1170 580 1166 602 l 1186 602 q 1190 582 1194 563 q 1198 544 1200 524 q 1200 544 1204 563 q 1208 582 1212 602 z m 850 290 q 842 294 844 301 q 846 308 848 314 l 866 350 q 872 350 880 354 l 866 326 q 864 322 858 312 q 852 302 856 298 q 862 292 871 300 q 880 308 882 312 q 886 316 888 319 q 890 322 892 328 l 904 352 q 908 352 916 354 q 912 344 908 335 q 904 326 898 316 l 893 306 q 890 300 894 296 q 898 292 904 298 q 910 304 914 310 q 918 320 924 330 q 930 340 934 348 q 938 358 942 367 q 946 376 952 384 q 958 382 966 388 l 928 312 q 926 308 925 300 q 924 292 932 296 q 940 300 946 310 q 950 320 956 330 q 962 340 966 348 q 970 358 974 367 q 978 376 984 384 q 990 382 998 388 l 960 312 q 960 310 959 307 l 957 301 q 956 298 957 296 q 958 294 964 296 q 970 298 975 305 q 980 312 984 318 l 988 316 q 982 308 977 301 q 972 294 964 290 q 958 286 951 289 q 944 292 944 300 q 938 294 932 290 q 926 286 919 289 q 912 292 912 300 q 908 296 903 292 q 898 288 892 288 q 884 288 883 294 q 882 299 883 305 q 877 297 868 291 q 858 284 850 290 z m 1164 450 l 1110 450 l 1110 602 l 1132 602 l 1132 468 l 1164 468 z m 684 450 l 630 450 l 630 602 l 652 602 l 652 468 l 684 468 z m 790 84 q 796 84 802 83 q 808 82 814 86 q 822 94 824 106 q 826 118 826 128 q 826 140 824 153 q 822 166 814 174 q 810 178 803 178 l 790 178 z m 724 350 q 730 350 738 354 q 736 348 733 343 q 730 338 726 334 l 726 332 q 732 340 741 346 q 750 352 758 354 q 770 354 770 345 q 770 336 766 328 q 764 324 756 313 q 748 302 752 298 q 754 294 758 296 q 762 298 766 303 q 770 308 774 312 q 778 316 778 318 l 782 316 q 778 310 773 303 q 768 296 760 290 q 752 286 745 288 q 738 290 740 300 q 740 308 746 316 q 752 324 754 330 q 756 332 757 335 q 758 338 758 340 q 758 342 757 344 q 756 346 752 346 q 742 344 733 332 q 724 320 720 312 l 708 288 l 696 288 l 700 296 q 698 294 696 293 q 694 292 692 290 q 684 286 677 289 q 670 292 672 302 q 672 310 676 317 q 680 324 684 332 q 690 340 692 350 q 702 350 708 354 l 688 316 l 683 306 q 680 300 684 296 q 686 294 690 296 q 694 298 698 303 q 702 308 705 312 q 708 316 710 318 z m 992 584 q 986 584 983 577 q 980 570 979 560 q 978 550 979 540 q 980 530 980 526 q 980 522 979 512 q 978 502 979 492 q 980 482 983 475 q 986 468 992 468 q 998 468 1001 475 q 1004 482 1005 492 q 1006 502 1006 512 l 1006 540 q 1006 550 1005 560 q 1004 570 1001 577 q 998 584 992 584 z m 438 584 q 432 584 429 577 q 426 570 425 560 q 424 550 425 540 q 426 530 426 526 q 426 522 425 512 q 424 502 425 492 q 426 482 429 475 q 432 468 438 468 q 444 468 447 475 q 450 482 451 492 q 452 502 451 512 q 450 522 450 526 q 450 530 451 540 q 452 550 451 560 q 450 570 447 577 q 444 584 438 584 z m 1240 602 l 1262 602 q 1262 574 1261 546 q 1260 518 1258 488 l 1244 488 q 1242 518 1241 545 q 1240 572 1240 602 z m 202 386 q 194 388 183 379 q 172 370 168 366 q 152 348 138 326 l 180 326 l 194 354 q 194 356 197 361 q 200 366 202 372 q 204 378 205 382 q 206 386 202 386 z m 1088 374 q 1084 370 1082 374 q 1080 378 1082 382 q 1070 386 1065 376 q 1060 366 1058 360 l 1072 360 l 1068 354 l 1054 354 l 1010 264 q 1006 264 996 262 l 1042 354 l 1028 354 l 1030 360 l 1046 360 q 1048 368 1053 376 q 1058 384 1068 386 q 1074 388 1084 384 q 1086 384 1089 380 q 1092 376 1088 374 z m 884 374 q 880 370 878 374 q 876 378 876 382 q 866 386 860 376 q 854 366 852 360 l 866 360 l 864 354 l 850 354 l 806 264 q 800 264 792 262 l 838 354 l 822 354 l 826 360 l 840 360 q 844 368 849 376 q 854 384 864 386 q 870 388 878 384 q 880 384 884 380 q 888 376 884 374 z m 672 94 q 670 84 669 74 q 668 64 666 54 l 694 54 q 692 82 687 112 q 682 141 680 171 q 678 151 676 133 q 674 114 672 94 z m 138 518 q 142 518 147 517 q 152 516 154 520 q 160 526 160 535 l 160 567 q 160 576 154 580 q 152 586 147 585 q 142 584 138 584 z m 1094 348 q 1086 348 1079 339 q 1072 330 1068 320 q 1064 310 1064 301 q 1064 292 1072 292 q 1078 292 1085 301 q 1092 310 1097 321 q 1102 332 1102 340 q 1102 348 1094 348 z m 512 346 q 504 346 499 341 q 494 336 489 328 q 484 320 481 312 q 478 304 474 298 q 486 290 496 298 q 506 306 510 314 q 512 316 515 321 q 518 326 519 332 q 520 338 519 342 q 518 346 512 346 z m 978 -18 q 978 -28 972 -33 q 966 -38 958 -38 q 950 -38 944 -33 q 938 -28 938 -18 q 938 -8 944 -3 q 950 2 958 2 q 966 2 972 -3 q 978 -8 978 -18 z m 612 -18 q 612 -28 606 -33 q 600 -38 592 -38 q 584 -38 578 -33 q 572 -28 572 -18 q 572 -8 578 -3 q 584 2 592 2 q 600 2 606 -3 q 612 -8 612 -18 z m 274 526 l 282 526 q 286 526 290 528 q 296 532 297 540 q 298 548 298 556 q 298 562 297 570 q 296 578 290 582 q 286 584 283 584 l 274 584 z m 280 294 q 288 294 294 300 q 300 306 304 314 q 308 322 312 331 q 316 340 318 346 q 308 350 298 342 q 288 334 284 326 q 282 324 279 319 q 276 314 275 309 q 274 304 274 299 q 274 294 280 294 z m 416 294 q 422 294 428 300 q 434 306 439 314 q 444 322 447 331 q 450 340 454 346 q 442 350 433 342 q 424 334 418 326 q 418 324 415 319 q 412 314 410 309 q 408 304 409 299 q 410 294 416 294 z m 588 324 q 586 320 585 317 q 584 314 582 310 q 594 310 607 320 q 620 330 620 342 q 620 350 615 349 q 610 348 604 344 q 600 340 596 335 q 592 330 588 324 z m 582 532 l 580 508 l 596 508 l 588 580 q 588 568 586 556 z m 1262 462 q 1262 456 1258 453 q 1254 450 1250 450 q 1246 450 1242 453 q 1238 456 1238 462 q 1238 468 1242 472 q 1246 476 1250 476 q 1254 476 1258 472 q 1262 468 1262 462 z m 1244 294 q 1240 286 1232 289 q 1224 292 1228 300 q 1232 308 1240 304 q 1248 300 1244 294 z m 376 370 q 374 364 366 366 q 358 368 360 376 q 362 380 365 381 q 368 382 372 381 q 376 380 378 377 q 380 374 376 370 z m 716 370 q 712 364 705 366 q 698 368 700 376 q 700 380 704 381 q 708 382 712 381 q 716 380 717 377 q 718 374 716 370 z m 1264 340 q 1262 336 1259 335 q 1256 334 1253 335 q 1250 336 1249 339 q 1248 342 1250 346 q 1254 352 1261 349 q 1268 346 1264 340 z"}," ":{"x_min":0,"x_max":300,"ha":300,"o":""},"I":{"x_min":0,"x_max":437,"ha":437,"o":"m 351 711 q 418 698 454 666 q 491 635 496 600 q 497 587 479 544 q 461 502 430 442 q 398 383 355 314 q 312 244 264 176 q 217 109 168 50 q 119 -8 73 -45 q 62 -54 48 -50 q 35 -46 25 -36 q 15 -25 12 -12 q 8 1 17 11 q 55 50 100 111 q 145 172 190 240 q 234 308 274 378 q 315 447 345 505 q 375 563 390 602 q 406 641 401 648 q 396 655 373 652 q 350 650 316 636 q 282 621 240 594 q 199 566 159 523 q 153 516 140 524 q 127 531 115 545 q 103 559 96 576 q 89 593 95 606 q 104 625 136 646 q 167 667 206 683 q 245 699 285 708 q 325 716 351 711 z"},"H":{"x_min":0,"x_max":762,"ha":762,"o":"m 90 -8 q 83 -12 68 -8 q 53 -4 40 4 q 26 12 19 23 q 12 34 21 43 q 63 85 107 140 q 151 194 196 255 q 151 255 114 256 q 78 258 59 261 q 49 262 37 277 q 25 292 18 309 q 10 326 11 339 q 12 352 29 350 q 62 346 121 341 q 180 336 249 331 q 300 406 344 478 q 387 551 416 610 q 390 584 373 572 q 356 561 347 558 q 338 556 338 560 q 337 565 345 572 q 353 579 367 594 q 381 608 397 627 q 413 646 430 668 q 446 690 458 711 q 462 721 476 720 q 491 718 506 708 q 521 698 532 682 q 544 666 543 647 q 541 626 526 592 q 512 557 488 514 q 465 472 434 423 q 404 374 370 324 q 418 321 462 320 q 505 318 539 318 q 575 373 620 434 q 666 496 710 550 q 754 604 792 645 q 830 686 852 702 q 861 708 876 704 q 892 699 906 690 q 920 681 928 670 q 936 660 929 653 q 915 640 890 612 q 865 585 834 548 q 802 510 767 466 q 732 421 698 375 q 664 329 634 285 q 603 241 582 203 q 560 165 549 137 q 538 109 543 96 q 547 85 566 92 q 584 100 614 121 q 643 142 681 176 q 719 209 762 251 q 788 276 796 272 q 805 268 792 251 q 786 243 770 220 q 755 198 734 168 q 712 138 686 105 q 661 72 636 44 q 612 17 590 -1 q 567 -19 552 -19 q 537 -19 520 1 q 502 21 488 50 q 474 78 466 110 q 457 141 459 163 q 461 178 474 206 q 486 233 507 268 q 468 264 420 262 q 373 259 323 257 q 290 211 256 168 q 223 125 192 90 q 161 55 135 30 q 109 4 90 -8 z"},"4":{"x_min":0,"x_max":1372,"ha":1372,"o":"m 408 206 l 450 206 q 454 154 458 104 q 462 54 464 2 q 466 40 469 79 q 472 118 476 156 l 482 206 l 522 206 q 526 164 530 123 q 534 82 538 40 l 540 2 q 544 44 545 83 q 546 122 550 162 q 552 172 553 183 q 554 194 554 206 l 584 206 l 564 -38 l 518 -38 q 514 10 509 58 q 504 106 502 156 q 500 120 497 83 q 494 46 490 10 l 486 -38 l 440 -38 l 428 98 l 416 -38 l 372 -38 q 366 10 361 58 q 356 106 354 156 q 352 120 350 83 q 348 46 344 10 l 338 -38 l 292 -38 l 280 102 l 270 -38 l 224 -38 q 218 10 214 58 q 210 104 208 150 q 206 116 203 82 q 200 46 196 10 l 190 -38 l 146 -38 l 124 206 l 154 206 q 160 154 163 104 q 166 54 168 2 q 172 40 174 79 q 176 118 182 156 l 188 206 l 226 206 q 232 164 236 123 q 240 82 242 40 l 246 2 q 248 44 250 83 q 252 122 256 162 l 260 206 l 302 206 q 306 154 310 104 q 314 54 316 2 q 320 40 322 79 q 324 118 328 156 q 330 168 331 180 q 332 192 334 206 l 374 206 q 380 164 383 123 q 386 82 390 40 l 392 2 q 396 44 398 83 q 400 122 404 162 z m 1254 734 l 124 734 l 124 756 l 1254 756 z m 1254 -194 l 124 -194 l 124 -172 l 1254 -172 z m 790 -38 l 754 -38 l 754 206 l 813 206 q 824 206 834 202 q 850 194 855 174 q 860 154 860 138 l 860 119 q 860 108 858 97 q 856 86 851 77 q 846 68 836 64 l 866 -38 l 828 -38 l 806 58 l 790 58 z m 1032 16 l 1032 -38 l 1000 -38 l 1000 206 l 1032 206 q 1044 162 1056 120 q 1068 78 1078 34 q 1074 78 1074 120 l 1074 206 l 1106 206 l 1106 -38 l 1072 -38 q 1060 4 1048 45 q 1036 86 1026 128 q 1028 100 1029 72 q 1030 44 1032 16 z m 656 -38 l 622 -38 l 652 206 l 708 206 l 738 -38 l 704 -38 l 696 20 l 664 20 z m 1202 114 q 1204 126 1203 138 q 1202 150 1198 162 q 1194 170 1187 175 q 1180 180 1172 170 q 1166 162 1165 149 q 1164 136 1164 126 q 1162 114 1162 102 l 1162 56 q 1162 44 1164 34 q 1164 24 1166 11 q 1168 -2 1178 -6 q 1188 -12 1194 -5 q 1200 2 1202 15 q 1204 28 1204 40 l 1204 58 l 1180 58 l 1180 86 l 1238 86 l 1238 -38 l 1212 -38 l 1210 -4 q 1208 -16 1203 -27 q 1198 -38 1186 -40 q 1176 -44 1165 -39 q 1154 -34 1146 -26 q 1132 -8 1130 17 q 1128 42 1128 62 q 1126 88 1127 114 q 1128 140 1136 164 q 1138 176 1143 186 q 1148 196 1158 200 q 1168 206 1180 207 q 1192 208 1202 204 q 1214 200 1221 190 q 1228 180 1231 167 q 1234 154 1235 141 q 1236 128 1236 118 z m 274 330 q 278 338 285 344 q 292 350 302 352 q 310 354 318 350 q 326 346 334 350 l 316 316 q 314 312 311 305 q 308 298 312 296 q 316 292 322 298 q 328 304 334 312 q 336 316 339 321 q 342 326 344 332 l 352 350 q 360 350 368 354 l 348 316 l 343 306 q 340 300 344 296 q 348 292 354 298 q 360 304 364 310 q 368 320 374 330 q 380 340 384 348 q 388 358 392 367 q 396 376 402 384 q 410 382 416 388 l 388 332 q 386 328 384 323 q 382 318 380 312 q 378 308 376 300 q 374 292 382 296 q 386 298 391 303 q 396 308 400 314 q 402 322 408 330 q 412 338 419 344 q 426 350 436 352 q 444 354 452 350 q 460 346 470 350 q 464 342 460 333 q 456 324 452 316 q 450 312 447 305 q 444 298 446 296 q 450 294 453 296 q 456 298 460 301 q 464 304 467 309 q 470 314 472 316 l 472 318 l 504 384 q 512 384 518 388 q 512 376 507 364 q 502 352 494 342 q 502 348 511 353 q 520 358 528 346 q 534 336 528 323 q 522 310 516 302 q 522 302 527 305 q 532 308 536 312 l 545 330 q 550 340 556 348 l 574 384 q 580 382 586 388 l 574 360 q 568 346 560 332 q 558 328 555 323 q 552 318 550 312 q 548 310 547 307 q 546 304 546 301 q 546 298 547 296 q 548 294 554 296 q 558 298 564 304 q 570 310 572 316 q 576 330 584 338 q 588 342 594 346 q 600 350 608 352 q 616 354 622 353 q 628 352 630 342 q 630 334 626 327 q 622 320 614 316 q 606 312 597 309 q 588 306 582 306 q 582 300 586 297 q 590 294 596 294 q 608 294 619 301 q 630 308 636 318 l 640 316 q 632 302 617 294 q 602 286 586 288 q 570 292 570 306 q 566 302 562 297 q 558 292 554 290 q 546 286 539 289 q 532 292 534 302 l 534 304 q 532 302 530 302 q 526 298 518 298 l 510 298 q 508 298 507 296 q 506 294 504 294 q 494 288 483 289 q 472 290 466 300 q 458 292 448 288 q 440 286 436 291 q 432 296 436 304 q 430 298 422 291 q 414 284 404 290 q 398 294 398 304 q 392 296 384 290 q 376 286 369 289 q 362 292 362 300 q 356 292 352 290 q 344 286 336 289 q 328 292 330 300 q 326 296 322 293 q 318 290 314 288 q 304 286 301 291 q 298 296 302 304 l 300 304 q 296 298 287 291 q 278 284 270 290 q 264 292 263 297 q 262 302 264 306 q 258 302 254 300 q 250 298 240 298 q 236 298 235 297 q 234 296 230 294 q 226 292 219 290 q 212 288 207 289 q 202 290 199 294 q 196 298 198 306 q 200 318 206 329 q 212 340 218 350 q 222 350 230 354 q 228 346 225 339 q 222 332 218 324 q 216 322 213 317 q 210 312 208 307 q 206 302 206 298 q 206 294 210 294 q 220 292 228 302 q 236 312 238 316 q 244 324 247 334 q 250 344 250 352 q 258 354 259 347 q 260 340 258 334 q 254 318 240 304 q 248 302 255 307 q 262 312 266 318 z m 438 448 q 428 448 421 453 q 414 458 411 466 q 408 474 407 484 q 406 494 404 502 l 404 541 q 404 562 410 580 q 412 588 417 595 q 422 602 432 602 q 454 608 464 590 q 472 572 472 552 l 472 514 q 472 504 471 493 q 470 482 467 472 q 464 462 457 455 q 450 448 438 448 z m 992 448 q 982 448 975 453 q 968 458 965 466 q 962 474 961 484 q 960 494 960 502 q 958 520 958 541 q 958 562 964 580 q 966 588 972 595 q 978 602 986 602 q 1006 608 1018 590 q 1026 572 1026 552 l 1026 493 q 1026 482 1022 472 q 1018 462 1011 455 q 1004 448 992 448 z m 916 -38 l 882 -38 l 882 206 l 916 206 z m 274 450 l 254 450 l 254 602 l 291 602 q 298 602 304 600 q 314 594 317 583 q 320 572 320 562 q 320 552 318 535 q 316 518 304 514 l 322 450 l 298 450 l 286 510 q 282 510 280 511 q 278 512 274 512 z m 1056 484 l 1056 450 l 1036 450 l 1036 602 l 1054 602 q 1062 576 1070 549 q 1078 522 1084 496 q 1082 522 1082 549 l 1082 602 l 1102 602 l 1102 450 l 1080 450 q 1072 476 1065 502 q 1058 528 1052 554 q 1054 536 1054 519 q 1054 502 1056 484 z m 138 450 l 116 450 l 116 602 l 150 602 q 176 602 182 576 q 186 562 185 544 q 184 526 176 512 q 170 502 159 501 q 148 500 138 500 z m 502 484 l 502 450 l 482 450 l 482 602 l 500 602 q 508 576 516 549 q 524 522 530 496 q 528 522 527 549 q 526 576 526 602 l 546 602 l 546 450 l 526 450 q 518 476 511 502 q 504 528 498 554 q 500 536 500 519 q 500 502 502 484 z m 574 450 l 552 450 l 570 602 l 606 602 l 624 450 l 604 450 l 598 486 l 578 486 z m 750 448 q 736 448 728 457 q 720 466 718 478 q 716 490 716 504 l 716 602 l 738 602 l 738 485 q 738 480 740 476 q 742 470 747 468 q 752 466 756 470 q 762 476 762 484 l 762 498 q 764 510 763 522 q 762 534 762 546 l 762 602 l 784 602 l 784 530 q 784 518 785 504 q 786 490 783 478 q 780 466 773 457 q 766 448 750 448 z m 1140 350 q 1144 350 1152 354 q 1150 348 1147 343 q 1144 338 1140 334 l 1140 332 q 1146 340 1155 346 q 1164 352 1172 354 q 1184 354 1184 345 q 1184 336 1180 328 q 1178 324 1171 313 q 1164 302 1166 298 q 1168 294 1172 295 q 1176 296 1179 300 q 1182 304 1186 308 q 1190 312 1192 316 l 1210 354 l 1202 354 l 1206 360 l 1214 360 l 1222 376 q 1230 376 1236 380 l 1226 360 l 1240 360 l 1236 354 l 1222 354 l 1204 316 l 1199 306 q 1196 300 1198 296 q 1202 294 1206 296 q 1210 298 1214 303 q 1218 308 1221 312 q 1224 316 1226 318 l 1230 316 q 1224 308 1217 299 q 1210 290 1200 288 q 1190 286 1187 290 q 1184 294 1186 300 l 1181 295 q 1178 292 1174 290 q 1168 286 1160 288 q 1152 290 1154 300 q 1154 308 1160 316 q 1166 324 1168 330 q 1170 334 1172 340 q 1174 346 1168 346 q 1156 344 1147 332 q 1138 320 1134 312 q 1130 306 1127 300 q 1124 294 1122 288 l 1110 288 l 1115 301 q 1111 300 1106 298 l 1096 298 q 1092 292 1086 290 q 1080 288 1078 288 q 1068 284 1060 292 q 1052 298 1053 309 q 1054 320 1058 330 q 1064 338 1073 346 q 1082 354 1094 354 q 1104 354 1108 348 q 1112 342 1112 334 q 1112 326 1109 317 q 1106 308 1102 302 q 1114 302 1122 314 z m 354 520 q 330 536 328 560 q 326 570 330 582 q 334 594 344 600 q 354 604 366 603 q 378 602 386 594 q 396 586 396 575 l 396 554 l 374 554 l 374 567 q 374 574 370 578 q 360 586 355 579 q 350 572 348 564 q 348 554 356 547 q 364 540 372 534 q 380 528 386 520 q 392 512 394 504 q 396 492 394 482 q 392 472 387 464 q 382 456 373 451 q 364 446 352 448 q 332 452 330 468 q 328 484 328 500 l 348 500 l 348 480 q 350 474 356 470 q 362 466 368 470 q 372 474 373 483 q 374 492 372 498 q 370 506 365 511 q 360 516 354 520 z m 820 520 q 798 534 794 560 q 792 570 796 582 q 800 594 810 600 q 820 604 832 603 q 844 602 852 594 q 862 586 861 575 q 860 564 860 554 l 840 554 q 840 560 841 567 q 842 574 836 578 q 828 586 822 579 q 816 572 816 564 q 816 554 823 547 q 830 540 838 534 q 854 522 860 504 q 862 492 861 482 q 860 472 854 464 q 848 456 839 451 q 830 446 818 448 q 798 452 796 468 q 794 484 794 500 l 816 500 q 816 494 815 489 q 814 484 816 480 q 818 474 823 470 q 828 466 834 470 q 840 474 841 483 q 842 492 840 498 q 838 506 833 511 q 828 516 820 520 z m 248 450 l 192 450 l 192 602 l 248 602 l 248 582 l 214 582 l 214 538 l 242 538 l 242 516 l 214 516 l 214 470 l 248 470 z m 924 450 l 870 450 l 870 602 l 924 602 l 924 582 l 892 582 l 892 538 l 920 538 l 920 516 l 892 516 l 892 470 l 924 470 z m 178 322 l 136 320 q 130 312 126 303 q 122 294 122 284 q 114 282 112 286 q 110 290 112 297 q 114 304 117 311 q 120 318 122 320 l 108 318 l 102 326 l 126 326 q 136 344 151 361 q 166 378 186 388 q 192 392 202 393 q 212 394 214 382 q 216 378 214 372 q 212 366 210 362 q 204 352 200 342 q 196 332 190 324 q 188 316 182 306 q 176 296 178 288 q 170 286 168 290 q 166 294 168 300 q 170 306 173 312 z m 1212 602 l 1234 602 q 1228 580 1223 559 q 1218 538 1214 516 q 1208 500 1210 483 q 1212 466 1212 450 l 1188 450 q 1188 466 1189 483 q 1190 500 1186 516 q 1180 538 1175 559 q 1170 580 1166 602 l 1186 602 q 1190 582 1194 563 q 1198 544 1200 524 q 1200 544 1204 563 q 1208 582 1212 602 z m 850 290 q 842 294 844 301 q 846 308 848 314 l 866 350 q 872 350 880 354 l 866 326 q 864 322 858 312 q 852 302 856 298 q 862 292 871 300 q 880 308 882 312 q 886 316 888 319 q 890 322 892 328 l 904 352 q 908 352 916 354 q 912 344 908 335 q 904 326 898 316 l 893 306 q 890 300 894 296 q 898 292 904 298 q 910 304 914 310 q 918 320 924 330 q 930 340 934 348 q 938 358 942 367 q 946 376 952 384 q 958 382 966 388 l 928 312 q 926 308 925 300 q 924 292 932 296 q 940 300 946 310 q 950 320 956 330 q 962 340 966 348 q 970 358 974 367 q 978 376 984 384 q 990 382 998 388 l 960 312 q 960 310 959 307 l 957 301 q 956 298 957 296 q 958 294 964 296 q 970 298 975 305 q 980 312 984 318 l 988 316 q 982 308 977 301 q 972 294 964 290 q 958 286 951 289 q 944 292 944 300 q 938 294 932 290 q 926 286 919 289 q 912 292 912 300 q 908 296 903 292 q 898 288 892 288 q 884 288 883 294 q 882 299 883 305 q 877 297 868 291 q 858 284 850 290 z m 1164 450 l 1110 450 l 1110 602 l 1132 602 l 1132 468 l 1164 468 z m 684 450 l 630 450 l 630 602 l 652 602 l 652 468 l 684 468 z m 790 84 q 796 84 802 83 q 808 82 814 86 q 822 94 824 106 q 826 118 826 128 q 826 140 824 153 q 822 166 814 174 q 810 178 803 178 l 790 178 z m 724 350 q 730 350 738 354 q 736 348 733 343 q 730 338 726 334 l 726 332 q 732 340 741 346 q 750 352 758 354 q 770 354 770 345 q 770 336 766 328 q 764 324 756 313 q 748 302 752 298 q 754 294 758 296 q 762 298 766 303 q 770 308 774 312 q 778 316 778 318 l 782 316 q 778 310 773 303 q 768 296 760 290 q 752 286 745 288 q 738 290 740 300 q 740 308 746 316 q 752 324 754 330 q 756 332 757 335 q 758 338 758 340 q 758 342 757 344 q 756 346 752 346 q 742 344 733 332 q 724 320 720 312 l 708 288 l 696 288 l 700 296 q 698 294 696 293 q 694 292 692 290 q 684 286 677 289 q 670 292 672 302 q 672 310 676 317 q 680 324 684 332 q 690 340 692 350 q 702 350 708 354 l 688 316 l 683 306 q 680 300 684 296 q 686 294 690 296 q 694 298 698 303 q 702 308 705 312 q 708 316 710 318 z m 992 584 q 986 584 983 577 q 980 570 979 560 q 978 550 979 540 q 980 530 980 526 q 980 522 979 512 q 978 502 979 492 q 980 482 983 475 q 986 468 992 468 q 998 468 1001 475 q 1004 482 1005 492 q 1006 502 1006 512 l 1006 540 q 1006 550 1005 560 q 1004 570 1001 577 q 998 584 992 584 z m 438 584 q 432 584 429 577 q 426 570 425 560 q 424 550 425 540 q 426 530 426 526 q 426 522 425 512 q 424 502 425 492 q 426 482 429 475 q 432 468 438 468 q 444 468 447 475 q 450 482 451 492 q 452 502 451 512 q 450 522 450 526 q 450 530 451 540 q 452 550 451 560 q 450 570 447 577 q 444 584 438 584 z m 1240 602 l 1262 602 q 1262 574 1261 546 q 1260 518 1258 488 l 1244 488 q 1242 518 1241 545 q 1240 572 1240 602 z m 202 386 q 194 388 183 379 q 172 370 168 366 q 152 348 138 326 l 180 326 l 194 354 q 194 356 197 361 q 200 366 202 372 q 204 378 205 382 q 206 386 202 386 z m 1088 374 q 1084 370 1082 374 q 1080 378 1082 382 q 1070 386 1065 376 q 1060 366 1058 360 l 1072 360 l 1068 354 l 1054 354 l 1010 264 q 1006 264 996 262 l 1042 354 l 1028 354 l 1030 360 l 1046 360 q 1048 368 1053 376 q 1058 384 1068 386 q 1074 388 1084 384 q 1086 384 1089 380 q 1092 376 1088 374 z m 884 374 q 880 370 878 374 q 876 378 876 382 q 866 386 860 376 q 854 366 852 360 l 866 360 l 864 354 l 850 354 l 806 264 q 800 264 792 262 l 838 354 l 822 354 l 826 360 l 840 360 q 844 368 849 376 q 854 384 864 386 q 870 388 878 384 q 880 384 884 380 q 888 376 884 374 z m 672 94 q 670 84 669 74 q 668 64 666 54 l 694 54 q 692 82 687 112 q 682 141 680 171 q 678 151 676 133 q 674 114 672 94 z m 138 518 q 142 518 147 517 q 152 516 154 520 q 160 526 160 535 l 160 567 q 160 576 154 580 q 152 586 147 585 q 142 584 138 584 z m 1094 348 q 1086 348 1079 339 q 1072 330 1068 320 q 1064 310 1064 301 q 1064 292 1072 292 q 1078 292 1085 301 q 1092 310 1097 321 q 1102 332 1102 340 q 1102 348 1094 348 z m 512 346 q 504 346 499 341 q 494 336 489 328 q 484 320 481 312 q 478 304 474 298 q 486 290 496 298 q 506 306 510 314 q 512 316 515 321 q 518 326 519 332 q 520 338 519 342 q 518 346 512 346 z m 978 -18 q 978 -28 972 -33 q 966 -38 958 -38 q 950 -38 944 -33 q 938 -28 938 -18 q 938 -8 944 -3 q 950 2 958 2 q 966 2 972 -3 q 978 -8 978 -18 z m 612 -18 q 612 -28 606 -33 q 600 -38 592 -38 q 584 -38 578 -33 q 572 -28 572 -18 q 572 -8 578 -3 q 584 2 592 2 q 600 2 606 -3 q 612 -8 612 -18 z m 274 526 l 282 526 q 286 526 290 528 q 296 532 297 540 q 298 548 298 556 q 298 562 297 570 q 296 578 290 582 q 286 584 283 584 l 274 584 z m 280 294 q 288 294 294 300 q 300 306 304 314 q 308 322 312 331 q 316 340 318 346 q 308 350 298 342 q 288 334 284 326 q 282 324 279 319 q 276 314 275 309 q 274 304 274 299 q 274 294 280 294 z m 416 294 q 422 294 428 300 q 434 306 439 314 q 444 322 447 331 q 450 340 454 346 q 442 350 433 342 q 424 334 418 326 q 418 324 415 319 q 412 314 410 309 q 408 304 409 299 q 410 294 416 294 z m 588 324 q 586 320 585 317 q 584 314 582 310 q 594 310 607 320 q 620 330 620 342 q 620 350 615 349 q 610 348 604 344 q 600 340 596 335 q 592 330 588 324 z m 582 532 l 580 508 l 596 508 l 588 580 q 588 568 586 556 z m 1262 462 q 1262 456 1258 453 q 1254 450 1250 450 q 1246 450 1242 453 q 1238 456 1238 462 q 1238 468 1242 472 q 1246 476 1250 476 q 1254 476 1258 472 q 1262 468 1262 462 z m 1244 294 q 1240 286 1232 289 q 1224 292 1228 300 q 1232 308 1240 304 q 1248 300 1244 294 z m 376 370 q 374 364 366 366 q 358 368 360 376 q 362 380 365 381 q 368 382 372 381 q 376 380 378 377 q 380 374 376 370 z m 716 370 q 712 364 705 366 q 698 368 700 376 q 700 380 704 381 q 708 382 712 381 q 716 380 717 377 q 718 374 716 370 z m 1264 340 q 1262 336 1259 335 q 1256 334 1253 335 q 1250 336 1249 339 q 1248 342 1250 346 q 1254 352 1261 349 q 1268 346 1264 340 z"},"~":{"x_min":0,"x_max":457,"ha":457,"o":"m 349 283 q 353 290 366 288 q 378 287 390 280 q 403 274 412 264 q 420 255 417 245 q 414 235 388 218 q 361 201 328 184 q 294 168 261 156 q 228 145 212 146 q 195 147 186 154 q 177 162 172 174 q 168 185 167 198 q 166 210 167 222 q 149 215 135 202 q 121 190 112 177 q 102 164 96 153 q 89 142 86 137 q 80 129 71 134 q 62 138 54 148 q 46 159 42 174 q 38 188 43 200 q 46 206 61 219 q 76 232 98 246 q 119 261 142 272 q 166 284 185 287 q 196 286 208 278 q 219 269 224 251 q 230 225 238 213 q 245 201 259 203 q 269 204 283 215 q 297 226 311 240 q 325 253 336 266 q 346 278 349 283 z"},"D":{"x_min":0,"x_max":816,"ha":816,"o":"m 703 720 q 751 711 790 694 q 829 678 856 658 q 883 637 898 614 q 913 592 915 570 q 916 545 887 492 q 858 439 808 374 q 757 308 690 239 q 624 170 550 112 q 477 55 402 18 q 328 -18 261 -18 q 209 -18 166 -6 q 122 7 90 24 q 58 42 38 61 q 18 80 14 93 q 8 109 12 132 q 17 156 28 179 q 38 202 52 221 q 66 240 81 248 q 92 254 123 256 q 154 258 193 257 q 216 291 252 336 q 287 380 326 427 q 366 474 404 520 q 443 565 473 600 q 427 585 382 568 q 338 551 300 534 q 263 516 234 500 q 204 483 188 468 q 179 460 168 469 q 157 478 148 494 q 140 509 136 526 q 132 542 138 551 q 152 572 192 594 q 233 617 288 637 q 343 657 406 674 q 469 692 527 704 q 585 715 632 720 q 679 725 703 720 z m 350 322 l 299 252 l 399 245 q 426 243 422 234 q 418 226 390 221 q 370 218 338 214 q 305 211 267 206 q 250 180 240 162 q 230 144 224 132 q 218 121 215 114 q 212 107 208 103 q 202 97 194 103 q 186 109 178 123 q 171 137 166 155 q 161 173 161 191 q 132 186 114 180 q 95 174 93 167 q 90 157 104 138 q 119 118 141 98 q 163 78 188 62 q 212 47 229 45 q 271 40 320 60 q 370 79 422 115 q 473 151 524 200 q 575 248 622 302 q 668 355 707 408 q 746 461 772 506 q 799 552 811 586 q 823 619 816 633 q 808 646 787 652 q 766 657 734 656 q 703 655 664 648 q 624 642 581 631 q 574 614 554 585 q 533 556 502 517 q 472 478 433 428 q 394 379 350 322 z"},"^":{"x_min":0,"x_max":422,"ha":422,"o":"m 157 486 q 164 486 184 494 q 203 501 226 513 q 250 525 274 542 q 297 558 313 577 q 316 581 328 582 q 339 584 350 580 q 360 575 364 564 q 368 552 357 530 l 353 525 q 364 504 377 485 q 390 466 399 460 q 405 455 404 442 q 403 428 397 414 q 391 401 382 392 q 374 382 366 385 q 359 387 352 398 q 345 408 339 423 q 333 438 328 456 q 323 475 320 494 q 300 476 276 458 q 253 441 232 427 q 211 413 196 404 q 180 396 176 397 q 163 400 154 414 q 146 428 144 444 q 141 459 144 472 q 147 485 157 486 z"},"0":{"x_min":0,"x_max":1372,"ha":1372,"o":"m 408 206 l 450 206 q 454 154 458 104 q 462 54 464 2 q 466 40 469 79 q 472 118 476 156 l 482 206 l 522 206 q 526 164 530 123 q 534 82 538 40 l 540 2 q 544 44 545 83 q 546 122 550 162 q 552 172 553 183 q 554 194 554 206 l 584 206 l 564 -38 l 518 -38 q 514 10 509 58 q 504 106 502 156 q 500 120 497 83 q 494 46 490 10 l 486 -38 l 440 -38 l 428 98 l 416 -38 l 372 -38 q 366 10 361 58 q 356 106 354 156 q 352 120 350 83 q 348 46 344 10 l 338 -38 l 292 -38 l 280 102 l 270 -38 l 224 -38 q 218 10 214 58 q 210 104 208 150 q 206 116 203 82 q 200 46 196 10 l 190 -38 l 146 -38 l 124 206 l 154 206 q 160 154 163 104 q 166 54 168 2 q 172 40 174 79 q 176 118 182 156 l 188 206 l 226 206 q 232 164 236 123 q 240 82 242 40 l 246 2 q 248 44 250 83 q 252 122 256 162 l 260 206 l 302 206 q 306 154 310 104 q 314 54 316 2 q 320 40 322 79 q 324 118 328 156 q 330 168 331 180 q 332 192 334 206 l 374 206 q 380 164 383 123 q 386 82 390 40 l 392 2 q 396 44 398 83 q 400 122 404 162 z m 1254 734 l 124 734 l 124 756 l 1254 756 z m 1254 -194 l 124 -194 l 124 -172 l 1254 -172 z m 790 -38 l 754 -38 l 754 206 l 813 206 q 824 206 834 202 q 850 194 855 174 q 860 154 860 138 l 860 119 q 860 108 858 97 q 856 86 851 77 q 846 68 836 64 l 866 -38 l 828 -38 l 806 58 l 790 58 z m 1032 16 l 1032 -38 l 1000 -38 l 1000 206 l 1032 206 q 1044 162 1056 120 q 1068 78 1078 34 q 1074 78 1074 120 l 1074 206 l 1106 206 l 1106 -38 l 1072 -38 q 1060 4 1048 45 q 1036 86 1026 128 q 1028 100 1029 72 q 1030 44 1032 16 z m 656 -38 l 622 -38 l 652 206 l 708 206 l 738 -38 l 704 -38 l 696 20 l 664 20 z m 1202 114 q 1204 126 1203 138 q 1202 150 1198 162 q 1194 170 1187 175 q 1180 180 1172 170 q 1166 162 1165 149 q 1164 136 1164 126 q 1162 114 1162 102 l 1162 56 q 1162 44 1164 34 q 1164 24 1166 11 q 1168 -2 1178 -6 q 1188 -12 1194 -5 q 1200 2 1202 15 q 1204 28 1204 40 l 1204 58 l 1180 58 l 1180 86 l 1238 86 l 1238 -38 l 1212 -38 l 1210 -4 q 1208 -16 1203 -27 q 1198 -38 1186 -40 q 1176 -44 1165 -39 q 1154 -34 1146 -26 q 1132 -8 1130 17 q 1128 42 1128 62 q 1126 88 1127 114 q 1128 140 1136 164 q 1138 176 1143 186 q 1148 196 1158 200 q 1168 206 1180 207 q 1192 208 1202 204 q 1214 200 1221 190 q 1228 180 1231 167 q 1234 154 1235 141 q 1236 128 1236 118 z m 274 330 q 278 338 285 344 q 292 350 302 352 q 310 354 318 350 q 326 346 334 350 l 316 316 q 314 312 311 305 q 308 298 312 296 q 316 292 322 298 q 328 304 334 312 q 336 316 339 321 q 342 326 344 332 l 352 350 q 360 350 368 354 l 348 316 l 343 306 q 340 300 344 296 q 348 292 354 298 q 360 304 364 310 q 368 320 374 330 q 380 340 384 348 q 388 358 392 367 q 396 376 402 384 q 410 382 416 388 l 388 332 q 386 328 384 323 q 382 318 380 312 q 378 308 376 300 q 374 292 382 296 q 386 298 391 303 q 396 308 400 314 q 402 322 408 330 q 412 338 419 344 q 426 350 436 352 q 444 354 452 350 q 460 346 470 350 q 464 342 460 333 q 456 324 452 316 q 450 312 447 305 q 444 298 446 296 q 450 294 453 296 q 456 298 460 301 q 464 304 467 309 q 470 314 472 316 l 472 318 l 504 384 q 512 384 518 388 q 512 376 507 364 q 502 352 494 342 q 502 348 511 353 q 520 358 528 346 q 534 336 528 323 q 522 310 516 302 q 522 302 527 305 q 532 308 536 312 l 545 330 q 550 340 556 348 l 574 384 q 580 382 586 388 l 574 360 q 568 346 560 332 q 558 328 555 323 q 552 318 550 312 q 548 310 547 307 q 546 304 546 301 q 546 298 547 296 q 548 294 554 296 q 558 298 564 304 q 570 310 572 316 q 576 330 584 338 q 588 342 594 346 q 600 350 608 352 q 616 354 622 353 q 628 352 630 342 q 630 334 626 327 q 622 320 614 316 q 606 312 597 309 q 588 306 582 306 q 582 300 586 297 q 590 294 596 294 q 608 294 619 301 q 630 308 636 318 l 640 316 q 632 302 617 294 q 602 286 586 288 q 570 292 570 306 q 566 302 562 297 q 558 292 554 290 q 546 286 539 289 q 532 292 534 302 l 534 304 q 532 302 530 302 q 526 298 518 298 l 510 298 q 508 298 507 296 q 506 294 504 294 q 494 288 483 289 q 472 290 466 300 q 458 292 448 288 q 440 286 436 291 q 432 296 436 304 q 430 298 422 291 q 414 284 404 290 q 398 294 398 304 q 392 296 384 290 q 376 286 369 289 q 362 292 362 300 q 356 292 352 290 q 344 286 336 289 q 328 292 330 300 q 326 296 322 293 q 318 290 314 288 q 304 286 301 291 q 298 296 302 304 l 300 304 q 296 298 287 291 q 278 284 270 290 q 264 292 263 297 q 262 302 264 306 q 258 302 254 300 q 250 298 240 298 q 236 298 235 297 q 234 296 230 294 q 226 292 219 290 q 212 288 207 289 q 202 290 199 294 q 196 298 198 306 q 200 318 206 329 q 212 340 218 350 q 222 350 230 354 q 228 346 225 339 q 222 332 218 324 q 216 322 213 317 q 210 312 208 307 q 206 302 206 298 q 206 294 210 294 q 220 292 228 302 q 236 312 238 316 q 244 324 247 334 q 250 344 250 352 q 258 354 259 347 q 260 340 258 334 q 254 318 240 304 q 248 302 255 307 q 262 312 266 318 z m 438 448 q 428 448 421 453 q 414 458 411 466 q 408 474 407 484 q 406 494 404 502 l 404 541 q 404 562 410 580 q 412 588 417 595 q 422 602 432 602 q 454 608 464 590 q 472 572 472 552 l 472 514 q 472 504 471 493 q 470 482 467 472 q 464 462 457 455 q 450 448 438 448 z m 992 448 q 982 448 975 453 q 968 458 965 466 q 962 474 961 484 q 960 494 960 502 q 958 520 958 541 q 958 562 964 580 q 966 588 972 595 q 978 602 986 602 q 1006 608 1018 590 q 1026 572 1026 552 l 1026 493 q 1026 482 1022 472 q 1018 462 1011 455 q 1004 448 992 448 z m 916 -38 l 882 -38 l 882 206 l 916 206 z m 274 450 l 254 450 l 254 602 l 291 602 q 298 602 304 600 q 314 594 317 583 q 320 572 320 562 q 320 552 318 535 q 316 518 304 514 l 322 450 l 298 450 l 286 510 q 282 510 280 511 q 278 512 274 512 z m 1056 484 l 1056 450 l 1036 450 l 1036 602 l 1054 602 q 1062 576 1070 549 q 1078 522 1084 496 q 1082 522 1082 549 l 1082 602 l 1102 602 l 1102 450 l 1080 450 q 1072 476 1065 502 q 1058 528 1052 554 q 1054 536 1054 519 q 1054 502 1056 484 z m 138 450 l 116 450 l 116 602 l 150 602 q 176 602 182 576 q 186 562 185 544 q 184 526 176 512 q 170 502 159 501 q 148 500 138 500 z m 502 484 l 502 450 l 482 450 l 482 602 l 500 602 q 508 576 516 549 q 524 522 530 496 q 528 522 527 549 q 526 576 526 602 l 546 602 l 546 450 l 526 450 q 518 476 511 502 q 504 528 498 554 q 500 536 500 519 q 500 502 502 484 z m 574 450 l 552 450 l 570 602 l 606 602 l 624 450 l 604 450 l 598 486 l 578 486 z m 750 448 q 736 448 728 457 q 720 466 718 478 q 716 490 716 504 l 716 602 l 738 602 l 738 485 q 738 480 740 476 q 742 470 747 468 q 752 466 756 470 q 762 476 762 484 l 762 498 q 764 510 763 522 q 762 534 762 546 l 762 602 l 784 602 l 784 530 q 784 518 785 504 q 786 490 783 478 q 780 466 773 457 q 766 448 750 448 z m 1140 350 q 1144 350 1152 354 q 1150 348 1147 343 q 1144 338 1140 334 l 1140 332 q 1146 340 1155 346 q 1164 352 1172 354 q 1184 354 1184 345 q 1184 336 1180 328 q 1178 324 1171 313 q 1164 302 1166 298 q 1168 294 1172 295 q 1176 296 1179 300 q 1182 304 1186 308 q 1190 312 1192 316 l 1210 354 l 1202 354 l 1206 360 l 1214 360 l 1222 376 q 1230 376 1236 380 l 1226 360 l 1240 360 l 1236 354 l 1222 354 l 1204 316 l 1199 306 q 1196 300 1198 296 q 1202 294 1206 296 q 1210 298 1214 303 q 1218 308 1221 312 q 1224 316 1226 318 l 1230 316 q 1224 308 1217 299 q 1210 290 1200 288 q 1190 286 1187 290 q 1184 294 1186 300 l 1181 295 q 1178 292 1174 290 q 1168 286 1160 288 q 1152 290 1154 300 q 1154 308 1160 316 q 1166 324 1168 330 q 1170 334 1172 340 q 1174 346 1168 346 q 1156 344 1147 332 q 1138 320 1134 312 q 1130 306 1127 300 q 1124 294 1122 288 l 1110 288 l 1115 301 q 1111 300 1106 298 l 1096 298 q 1092 292 1086 290 q 1080 288 1078 288 q 1068 284 1060 292 q 1052 298 1053 309 q 1054 320 1058 330 q 1064 338 1073 346 q 1082 354 1094 354 q 1104 354 1108 348 q 1112 342 1112 334 q 1112 326 1109 317 q 1106 308 1102 302 q 1114 302 1122 314 z m 354 520 q 330 536 328 560 q 326 570 330 582 q 334 594 344 600 q 354 604 366 603 q 378 602 386 594 q 396 586 396 575 l 396 554 l 374 554 l 374 567 q 374 574 370 578 q 360 586 355 579 q 350 572 348 564 q 348 554 356 547 q 364 540 372 534 q 380 528 386 520 q 392 512 394 504 q 396 492 394 482 q 392 472 387 464 q 382 456 373 451 q 364 446 352 448 q 332 452 330 468 q 328 484 328 500 l 348 500 l 348 480 q 350 474 356 470 q 362 466 368 470 q 372 474 373 483 q 374 492 372 498 q 370 506 365 511 q 360 516 354 520 z m 820 520 q 798 534 794 560 q 792 570 796 582 q 800 594 810 600 q 820 604 832 603 q 844 602 852 594 q 862 586 861 575 q 860 564 860 554 l 840 554 q 840 560 841 567 q 842 574 836 578 q 828 586 822 579 q 816 572 816 564 q 816 554 823 547 q 830 540 838 534 q 854 522 860 504 q 862 492 861 482 q 860 472 854 464 q 848 456 839 451 q 830 446 818 448 q 798 452 796 468 q 794 484 794 500 l 816 500 q 816 494 815 489 q 814 484 816 480 q 818 474 823 470 q 828 466 834 470 q 840 474 841 483 q 842 492 840 498 q 838 506 833 511 q 828 516 820 520 z m 248 450 l 192 450 l 192 602 l 248 602 l 248 582 l 214 582 l 214 538 l 242 538 l 242 516 l 214 516 l 214 470 l 248 470 z m 924 450 l 870 450 l 870 602 l 924 602 l 924 582 l 892 582 l 892 538 l 920 538 l 920 516 l 892 516 l 892 470 l 924 470 z m 178 322 l 136 320 q 130 312 126 303 q 122 294 122 284 q 114 282 112 286 q 110 290 112 297 q 114 304 117 311 q 120 318 122 320 l 108 318 l 102 326 l 126 326 q 136 344 151 361 q 166 378 186 388 q 192 392 202 393 q 212 394 214 382 q 216 378 214 372 q 212 366 210 362 q 204 352 200 342 q 196 332 190 324 q 188 316 182 306 q 176 296 178 288 q 170 286 168 290 q 166 294 168 300 q 170 306 173 312 z m 1212 602 l 1234 602 q 1228 580 1223 559 q 1218 538 1214 516 q 1208 500 1210 483 q 1212 466 1212 450 l 1188 450 q 1188 466 1189 483 q 1190 500 1186 516 q 1180 538 1175 559 q 1170 580 1166 602 l 1186 602 q 1190 582 1194 563 q 1198 544 1200 524 q 1200 544 1204 563 q 1208 582 1212 602 z m 850 290 q 842 294 844 301 q 846 308 848 314 l 866 350 q 872 350 880 354 l 866 326 q 864 322 858 312 q 852 302 856 298 q 862 292 871 300 q 880 308 882 312 q 886 316 888 319 q 890 322 892 328 l 904 352 q 908 352 916 354 q 912 344 908 335 q 904 326 898 316 l 893 306 q 890 300 894 296 q 898 292 904 298 q 910 304 914 310 q 918 320 924 330 q 930 340 934 348 q 938 358 942 367 q 946 376 952 384 q 958 382 966 388 l 928 312 q 926 308 925 300 q 924 292 932 296 q 940 300 946 310 q 950 320 956 330 q 962 340 966 348 q 970 358 974 367 q 978 376 984 384 q 990 382 998 388 l 960 312 q 960 310 959 307 l 957 301 q 956 298 957 296 q 958 294 964 296 q 970 298 975 305 q 980 312 984 318 l 988 316 q 982 308 977 301 q 972 294 964 290 q 958 286 951 289 q 944 292 944 300 q 938 294 932 290 q 926 286 919 289 q 912 292 912 300 q 908 296 903 292 q 898 288 892 288 q 884 288 883 294 q 882 299 883 305 q 877 297 868 291 q 858 284 850 290 z m 1164 450 l 1110 450 l 1110 602 l 1132 602 l 1132 468 l 1164 468 z m 684 450 l 630 450 l 630 602 l 652 602 l 652 468 l 684 468 z m 790 84 q 796 84 802 83 q 808 82 814 86 q 822 94 824 106 q 826 118 826 128 q 826 140 824 153 q 822 166 814 174 q 810 178 803 178 l 790 178 z m 724 350 q 730 350 738 354 q 736 348 733 343 q 730 338 726 334 l 726 332 q 732 340 741 346 q 750 352 758 354 q 770 354 770 345 q 770 336 766 328 q 764 324 756 313 q 748 302 752 298 q 754 294 758 296 q 762 298 766 303 q 770 308 774 312 q 778 316 778 318 l 782 316 q 778 310 773 303 q 768 296 760 290 q 752 286 745 288 q 738 290 740 300 q 740 308 746 316 q 752 324 754 330 q 756 332 757 335 q 758 338 758 340 q 758 342 757 344 q 756 346 752 346 q 742 344 733 332 q 724 320 720 312 l 708 288 l 696 288 l 700 296 q 698 294 696 293 q 694 292 692 290 q 684 286 677 289 q 670 292 672 302 q 672 310 676 317 q 680 324 684 332 q 690 340 692 350 q 702 350 708 354 l 688 316 l 683 306 q 680 300 684 296 q 686 294 690 296 q 694 298 698 303 q 702 308 705 312 q 708 316 710 318 z m 992 584 q 986 584 983 577 q 980 570 979 560 q 978 550 979 540 q 980 530 980 526 q 980 522 979 512 q 978 502 979 492 q 980 482 983 475 q 986 468 992 468 q 998 468 1001 475 q 1004 482 1005 492 q 1006 502 1006 512 l 1006 540 q 1006 550 1005 560 q 1004 570 1001 577 q 998 584 992 584 z m 438 584 q 432 584 429 577 q 426 570 425 560 q 424 550 425 540 q 426 530 426 526 q 426 522 425 512 q 424 502 425 492 q 426 482 429 475 q 432 468 438 468 q 444 468 447 475 q 450 482 451 492 q 452 502 451 512 q 450 522 450 526 q 450 530 451 540 q 452 550 451 560 q 450 570 447 577 q 444 584 438 584 z m 1240 602 l 1262 602 q 1262 574 1261 546 q 1260 518 1258 488 l 1244 488 q 1242 518 1241 545 q 1240 572 1240 602 z m 202 386 q 194 388 183 379 q 172 370 168 366 q 152 348 138 326 l 180 326 l 194 354 q 194 356 197 361 q 200 366 202 372 q 204 378 205 382 q 206 386 202 386 z m 1088 374 q 1084 370 1082 374 q 1080 378 1082 382 q 1070 386 1065 376 q 1060 366 1058 360 l 1072 360 l 1068 354 l 1054 354 l 1010 264 q 1006 264 996 262 l 1042 354 l 1028 354 l 1030 360 l 1046 360 q 1048 368 1053 376 q 1058 384 1068 386 q 1074 388 1084 384 q 1086 384 1089 380 q 1092 376 1088 374 z m 884 374 q 880 370 878 374 q 876 378 876 382 q 866 386 860 376 q 854 366 852 360 l 866 360 l 864 354 l 850 354 l 806 264 q 800 264 792 262 l 838 354 l 822 354 l 826 360 l 840 360 q 844 368 849 376 q 854 384 864 386 q 870 388 878 384 q 880 384 884 380 q 888 376 884 374 z m 672 94 q 670 84 669 74 q 668 64 666 54 l 694 54 q 692 82 687 112 q 682 141 680 171 q 678 151 676 133 q 674 114 672 94 z m 138 518 q 142 518 147 517 q 152 516 154 520 q 160 526 160 535 l 160 567 q 160 576 154 580 q 152 586 147 585 q 142 584 138 584 z m 1094 348 q 1086 348 1079 339 q 1072 330 1068 320 q 1064 310 1064 301 q 1064 292 1072 292 q 1078 292 1085 301 q 1092 310 1097 321 q 1102 332 1102 340 q 1102 348 1094 348 z m 512 346 q 504 346 499 341 q 494 336 489 328 q 484 320 481 312 q 478 304 474 298 q 486 290 496 298 q 506 306 510 314 q 512 316 515 321 q 518 326 519 332 q 520 338 519 342 q 518 346 512 346 z m 978 -18 q 978 -28 972 -33 q 966 -38 958 -38 q 950 -38 944 -33 q 938 -28 938 -18 q 938 -8 944 -3 q 950 2 958 2 q 966 2 972 -3 q 978 -8 978 -18 z m 612 -18 q 612 -28 606 -33 q 600 -38 592 -38 q 584 -38 578 -33 q 572 -28 572 -18 q 572 -8 578 -3 q 584 2 592 2 q 600 2 606 -3 q 612 -8 612 -18 z m 274 526 l 282 526 q 286 526 290 528 q 296 532 297 540 q 298 548 298 556 q 298 562 297 570 q 296 578 290 582 q 286 584 283 584 l 274 584 z m 280 294 q 288 294 294 300 q 300 306 304 314 q 308 322 312 331 q 316 340 318 346 q 308 350 298 342 q 288 334 284 326 q 282 324 279 319 q 276 314 275 309 q 274 304 274 299 q 274 294 280 294 z m 416 294 q 422 294 428 300 q 434 306 439 314 q 444 322 447 331 q 450 340 454 346 q 442 350 433 342 q 424 334 418 326 q 418 324 415 319 q 412 314 410 309 q 408 304 409 299 q 410 294 416 294 z m 588 324 q 586 320 585 317 q 584 314 582 310 q 594 310 607 320 q 620 330 620 342 q 620 350 615 349 q 610 348 604 344 q 600 340 596 335 q 592 330 588 324 z m 582 532 l 580 508 l 596 508 l 588 580 q 588 568 586 556 z m 1262 462 q 1262 456 1258 453 q 1254 450 1250 450 q 1246 450 1242 453 q 1238 456 1238 462 q 1238 468 1242 472 q 1246 476 1250 476 q 1254 476 1258 472 q 1262 468 1262 462 z m 1244 294 q 1240 286 1232 289 q 1224 292 1228 300 q 1232 308 1240 304 q 1248 300 1244 294 z m 376 370 q 374 364 366 366 q 358 368 360 376 q 362 380 365 381 q 368 382 372 381 q 376 380 378 377 q 380 374 376 370 z m 716 370 q 712 364 705 366 q 698 368 700 376 q 700 380 704 381 q 708 382 712 381 q 716 380 717 377 q 718 374 716 370 z m 1264 340 q 1262 336 1259 335 q 1256 334 1253 335 q 1250 336 1249 339 q 1248 342 1250 346 q 1254 352 1261 349 q 1268 346 1264 340 z"},"F":{"x_min":0,"x_max":506,"ha":506,"o":"m 110 246 q 100 253 95 268 q 90 283 90 297 q 89 311 94 320 q 98 330 107 326 q 124 318 144 310 q 165 302 188 295 q 224 339 262 384 q 301 430 336 473 q 372 516 402 554 q 433 591 455 618 q 407 612 364 606 q 321 600 286 594 q 251 588 226 584 q 201 579 189 576 q 176 573 172 582 q 168 592 170 605 q 172 618 179 630 q 186 643 195 646 q 226 658 287 670 q 348 681 422 691 q 497 701 578 708 q 660 715 732 718 q 805 722 861 722 q 917 721 942 715 q 951 713 954 700 q 956 686 954 670 q 952 655 946 643 q 939 631 929 633 q 905 634 878 632 q 851 630 826 626 q 801 623 781 618 q 761 614 751 611 q 735 606 738 615 q 740 624 778 637 q 743 637 710 636 q 678 636 656 635 l 561 629 q 553 611 532 582 q 512 553 482 514 q 451 475 412 427 q 374 379 331 322 l 292 271 q 355 262 422 269 q 489 276 550 310 q 565 318 572 318 q 578 317 578 312 q 577 307 570 298 q 563 289 550 280 q 517 257 480 242 q 442 227 402 219 q 362 211 322 208 q 283 206 247 209 q 215 165 188 126 q 161 87 140 58 q 119 28 106 9 q 92 -10 88 -15 q 82 -21 69 -16 q 56 -11 43 1 q 30 13 20 30 q 10 48 11 66 q 11 70 20 84 q 30 98 47 120 q 64 142 87 170 q 110 199 137 232 q 122 237 110 246 z"},"`":{"x_min":0,"x_max":112,"ha":112,"o":"m 64 489 q 51 506 40 530 q 28 553 20 576 q 13 600 11 620 q 9 640 15 650 q 21 660 35 660 q 49 659 63 653 q 77 647 87 638 q 97 628 94 619 q 91 610 90 594 q 89 577 90 558 q 90 540 92 522 q 95 504 99 491 q 103 477 101 472 q 99 466 94 466 q 88 467 80 473 q 72 479 64 489 z"},"k":{"x_min":0,"x_max":447,"ha":447,"o":"m 352 701 q 356 708 368 704 q 381 701 394 691 q 407 681 416 666 q 424 652 420 639 q 416 627 396 604 q 376 580 345 546 q 314 513 274 470 q 235 426 193 374 q 241 406 290 422 q 339 438 383 431 q 395 429 406 414 q 416 398 422 378 q 429 357 430 336 q 430 316 421 304 q 404 281 368 266 q 333 252 291 244 q 249 236 208 234 q 166 233 137 237 q 141 185 159 150 q 177 114 200 109 q 211 107 239 118 q 267 128 302 148 q 338 167 376 194 q 415 220 447 251 q 456 260 465 264 q 474 268 479 268 q 484 268 484 264 q 485 260 477 251 q 472 245 452 224 q 432 202 404 172 q 376 143 342 110 q 309 77 277 50 q 245 22 217 3 q 189 -16 172 -17 q 152 -18 136 2 q 119 22 108 56 q 97 90 90 136 q 84 181 84 231 q 50 184 22 144 q -6 104 -28 74 q -49 43 -63 24 q -77 5 -81 0 q -87 -6 -98 -4 q -110 -2 -122 6 q -133 13 -142 24 q -150 35 -150 47 q -150 52 -130 82 q -109 111 -75 155 q -41 199 2 254 q 46 310 92 368 q 138 425 183 482 q 228 538 264 584 q 300 629 324 660 q 348 692 352 701 z m 356 376 q 352 385 329 380 q 306 375 272 360 q 237 345 195 321 q 153 297 113 269 q 167 276 213 290 q 259 304 292 320 q 325 335 342 350 q 360 366 356 376 z"},"u":{"x_min":0,"x_max":436,"ha":436,"o":"m 436 251 q 445 261 454 266 q 463 271 468 270 q 474 270 474 265 q 474 260 466 251 q 450 234 428 208 q 406 181 381 151 q 356 121 330 90 q 303 60 278 34 q 253 9 232 -8 q 210 -25 196 -27 q 180 -29 170 -14 q 159 1 154 25 q 148 49 148 78 q 148 107 153 134 q 130 105 106 76 q 83 47 62 24 q 40 1 22 -14 q 3 -30 -10 -32 q -23 -34 -33 -23 q -43 -12 -49 7 q -55 26 -58 50 q -62 74 -61 99 q -60 124 -56 146 q -52 169 -44 185 q -36 201 -18 226 q -1 250 20 278 q 41 305 64 333 q 87 361 108 384 q 128 406 142 421 q 157 436 162 438 q 169 441 179 432 q 189 424 197 412 q 205 399 208 386 q 212 372 206 365 q 191 345 166 319 q 142 293 116 264 q 89 234 63 204 q 37 174 18 148 q -1 121 -10 100 q -18 79 -10 68 q -4 59 18 68 q 39 78 68 100 q 97 123 130 156 q 162 188 192 224 q 221 260 246 292 q 272 323 292 347 q 311 371 324 386 q 338 400 344 402 q 351 405 361 397 q 371 389 379 376 q 387 364 390 350 q 394 337 388 330 q 373 310 351 286 q 329 263 306 238 q 283 212 261 186 q 239 161 224 138 q 209 115 203 96 q 197 78 205 67 q 210 60 223 64 q 236 69 254 82 q 273 95 296 114 q 319 133 343 156 q 367 179 391 204 q 415 228 436 251 z"},"]":{"x_min":0,"x_max":247,"ha":247,"o":"m -107 144 q -54 201 -4 260 q 47 318 92 366 q 138 415 176 448 q 215 482 245 489 q 287 498 328 492 q 368 487 394 476 q 421 466 428 455 q 434 444 409 441 q 354 433 291 400 q 228 368 160 320 q 93 272 24 214 q -45 156 -111 99 q -119 92 -123 94 q -127 96 -127 104 q -127 111 -122 122 q -117 133 -107 144 z"},"U":{"x_min":0,"x_max":668,"ha":668,"o":"m 668 251 q 677 261 686 266 q 695 271 700 270 q 706 270 706 265 q 706 260 698 251 q 682 234 660 208 q 638 181 613 151 q 588 121 562 90 q 535 60 510 35 q 485 10 464 -7 q 442 -24 428 -26 q 417 -28 407 -16 q 397 -5 390 14 q 382 34 378 60 q 374 86 375 113 q 376 140 383 166 q 390 192 404 212 q 389 192 362 165 q 334 138 302 109 q 269 80 234 52 q 198 23 166 0 q 134 -22 109 -35 q 84 -48 72 -46 q 59 -44 48 -29 q 38 -14 30 8 q 22 31 18 59 q 13 87 11 114 q 9 142 11 166 q 13 191 18 208 q 23 226 42 258 q 61 289 88 328 q 114 368 147 412 q 180 457 214 502 q 247 546 279 586 q 311 627 337 658 q 363 690 380 710 q 397 729 401 730 q 408 733 420 724 q 433 714 444 700 q 455 687 461 672 q 467 658 461 651 q 446 631 408 586 q 371 540 324 481 q 278 422 229 357 q 180 292 142 234 q 104 175 83 131 q 62 87 72 69 q 75 62 98 70 q 122 78 156 97 q 191 116 234 144 q 277 171 320 204 q 363 237 402 274 q 442 311 470 348 q 489 372 514 406 q 540 440 568 476 q 596 513 624 548 q 651 584 674 613 q 697 642 713 660 q 729 678 733 680 q 740 683 752 676 q 765 669 776 658 q 787 647 793 634 q 799 622 793 615 q 772 589 734 542 q 696 495 651 438 q 606 381 561 320 q 516 260 482 208 q 448 155 432 116 q 416 77 428 64 q 437 55 464 70 q 490 85 524 114 q 559 143 598 180 q 636 217 668 251 z"},"o":{"x_min":0,"x_max":383,"ha":383,"o":"m 478 365 q 511 372 509 360 q 507 349 478 335 q 457 324 430 316 q 403 307 374 301 q 346 295 319 292 q 292 288 270 287 q 250 237 219 181 q 188 125 154 76 q 119 28 84 -6 q 49 -39 22 -43 q 5 -45 -13 -31 q -31 -17 -45 7 q -59 31 -67 60 q -75 89 -72 117 q -68 149 -42 192 q -16 235 22 277 q 59 319 102 353 q 144 387 180 401 q 192 423 210 436 q 228 450 245 451 q 262 452 276 438 q 290 423 293 390 q 294 375 290 354 q 332 350 382 352 q 433 354 478 365 z m -19 85 q -22 69 -16 64 q -11 58 0 60 q 11 61 25 68 q 39 75 53 84 q 72 97 95 120 q 118 144 140 173 q 163 202 182 234 q 202 266 213 296 q 196 304 187 315 q 157 305 123 278 q 89 250 60 216 q 30 181 8 146 q -13 110 -19 85 z"},"N":{"x_min":0,"x_max":812,"ha":812,"o":"m 939 715 q 952 715 965 706 q 978 696 987 684 q 996 671 1000 658 q 1003 645 997 639 q 940 582 888 516 q 836 450 790 382 q 743 315 704 250 q 665 186 636 134 q 606 81 586 44 q 566 7 558 -5 q 553 -13 534 -15 q 516 -17 496 -12 q 477 -8 462 2 q 448 12 451 28 q 477 175 480 309 q 482 443 474 565 q 454 509 426 448 q 398 386 366 326 q 335 265 301 209 q 267 153 236 108 q 204 64 177 33 q 150 2 131 -7 q 120 -13 96 -10 q 73 -7 51 1 q 29 9 16 20 q 4 32 16 43 q 56 82 108 142 q 160 202 214 272 q 269 342 320 415 q 372 488 411 553 q 420 568 429 586 q 438 603 446 622 q 453 641 458 661 q 463 681 463 700 q 463 710 480 709 q 497 708 518 700 q 538 692 556 679 q 573 666 575 653 q 578 634 578 596 q 579 559 577 511 q 575 463 570 407 q 566 351 558 294 q 551 238 540 184 q 529 131 515 87 l 520 87 q 523 90 531 105 q 539 120 551 142 q 563 164 578 191 q 592 218 607 244 q 688 382 746 473 q 803 564 842 618 q 882 672 905 694 q 928 715 939 715 z"},"+":{"x_min":0,"x_max":544,"ha":544,"o":"m 424 290 q 432 288 434 280 q 436 271 432 260 q 427 249 416 236 q 406 224 388 215 q 381 211 344 216 q 306 220 255 228 q 238 200 222 172 q 205 144 188 117 q 184 111 171 112 q 158 113 145 118 q 132 124 123 132 q 114 139 119 147 q 129 162 142 186 q 156 211 173 239 q 141 243 112 246 q 84 248 64 248 q 52 248 51 257 q 50 266 56 277 q 61 288 70 299 q 79 310 87 313 q 98 317 136 316 q 173 316 219 312 q 244 350 267 380 q 290 409 308 418 q 317 422 330 418 q 343 414 354 406 q 365 397 370 388 q 376 378 369 372 q 352 356 336 339 q 321 322 307 304 q 352 299 384 295 q 417 291 424 290 z"}}}
